<svg width="24" height="25" viewBox="0 0 24 25" fill="none" xmlns="http://www.w3.org/2000/svg">
<path d="M13.3275 6.56008L19.7274 4C21.7806 8.4508 21.9399 13.6014 19.7283 18.3998C19.7283 18.3998 18.4057 17.8709 16.8366 17.2433C15.6539 16.7702 14.3308 16.2409 13.3275 15.8397V6.56008Z" fill="#EFEFEF"/>
<path d="M9.32768 10.3998V7.19992H11.7277V15.1998H9.32768V19.1999C9.32768 19.642 8.96913 19.9998 8.52752 19.9998C8.08616 19.9998 7.72761 19.642 7.72761 19.1999V15.1998H6.92769C6.04809 15.1998 5.32761 14.4796 5.32761 13.6H4.52769C3.20193 13.6 2.12769 12.525 2.12769 11.2C2.12769 9.87496 3.20193 8.8 4.52769 8.8H5.32761C5.32761 7.9204 6.04809 7.19992 6.92769 7.19992H7.72761V10.3998H9.32768Z" fill="#EFEFEF"/>
</svg>
