<svg width="24" height="24" viewBox="0 0 24 24" fill="none" xmlns="http://www.w3.org/2000/svg">
<path d="M19.0678 9.13681C18.9602 9.21782 17.0609 10.2565 17.0609 12.5662C17.0609 15.2376 19.4777 16.1827 19.55 16.2061C19.5389 16.2637 19.1661 17.5005 18.2758 18.7606C17.4819 19.8695 16.6528 20.9766 15.3915 20.9766C14.1302 20.9766 13.8056 20.2655 12.3496 20.2655C10.9307 20.2655 10.4261 21 9.27244 21C8.11874 21 7.31374 19.9739 6.38818 18.7138C5.31609 17.234 4.44989 14.9352 4.44989 12.7534C4.44989 9.25383 6.79439 7.39784 9.10179 7.39784C10.3278 7.39784 11.3498 8.17912 12.1196 8.17912C12.8523 8.17912 13.9948 7.35104 15.3897 7.35104C15.9183 7.35104 17.8176 7.39784 19.0678 9.13681ZM14.7275 5.86949C15.3043 5.20522 15.7124 4.28353 15.7124 3.36184C15.7124 3.23402 15.7013 3.10441 15.6772 3C14.7386 3.0342 13.622 3.60666 12.9487 4.36454C12.4201 4.94779 11.9267 5.86949 11.9267 6.80378C11.9267 6.94419 11.9508 7.08461 11.9619 7.12961C12.0213 7.14041 12.1177 7.15302 12.2142 7.15302C13.0563 7.15302 14.1154 6.60576 14.7275 5.86949Z" fill="white"/>
</svg>
