<svg width="24" height="24" viewBox="0 0 24 24" fill="none" xmlns="http://www.w3.org/2000/svg">
<path d="M15.4436 11.2302C14.8405 11.2302 14.2374 11.1359 13.6342 10.9474C13.0311 10.7589 12.3113 10.497 11.4747 10.1619C10.716 9.84768 10.0642 9.60679 9.51946 9.43922C8.99416 9.27164 8.4786 9.18786 7.97276 9.18786C7.36965 9.18786 6.85409 9.30307 6.42607 9.53348C6.01751 9.74295 5.59922 10.099 5.17121 10.6018C4.72374 10.0362 4.5 9.48111 4.5 8.9365C4.5 8.2662 4.82101 7.72158 5.46303 7.30265C6.10506 6.86276 6.94163 6.64282 7.97276 6.64282C8.63424 6.64282 9.26654 6.73708 9.86965 6.9256C10.4922 7.11412 11.2218 7.38643 12.0584 7.74253C12.8366 8.07768 13.4689 8.32904 13.9553 8.49661C14.4416 8.64324 14.9377 8.71655 15.4436 8.71655C16.0467 8.71655 16.6012 8.56993 17.107 8.27667C17.6128 7.98342 18.0992 7.51211 18.5661 6.86276C19.1887 7.2817 19.5 7.80537 19.5 8.43377C19.5 8.8946 19.3249 9.34496 18.9747 9.78484C18.6245 10.2038 18.1381 10.5494 17.5156 10.8217C16.893 11.094 16.2023 11.2302 15.4436 11.2302ZM15.4436 17.3571C14.8405 17.3571 14.2374 17.2628 13.6342 17.0743C13.0311 16.8858 12.3113 16.624 11.4747 16.2888C10.6576 15.9537 9.99611 15.7023 9.49027 15.5347C8.98444 15.3672 8.4786 15.2834 7.97276 15.2834C7.36965 15.2834 6.85409 15.3986 6.42607 15.629C6.01751 15.8385 5.59922 16.1946 5.17121 16.6973C4.72374 16.1317 4.5 15.5766 4.5 15.032C4.5 14.3617 4.82101 13.8171 5.46303 13.3982C6.10506 12.9583 6.94163 12.7383 7.97276 12.7383C8.63424 12.7383 9.26654 12.8326 9.86965 13.0211C10.4922 13.2096 11.2218 13.482 12.0584 13.838C12.8366 14.1732 13.4689 14.4246 13.9553 14.5921C14.4416 14.7388 14.9377 14.8121 15.4436 14.8121C16.0661 14.8121 16.6304 14.6654 17.1362 14.3722C17.642 14.0789 18.1187 13.6076 18.5661 12.9583C19.1887 13.3772 19.5 13.9009 19.5 14.5293C19.5 14.9901 19.3249 15.4405 18.9747 15.8804C18.6245 16.3202 18.1381 16.6763 17.5156 16.9486C16.893 17.221 16.2023 17.3571 15.4436 17.3571Z" fill="white"/>
</svg>
