<svg width="24" height="24" viewBox="0 0 24 24" fill="none" xmlns="http://www.w3.org/2000/svg">
<path fill-rule="evenodd" clip-rule="evenodd" d="M15.9039 18.2903L19.744 13.1701C19.9102 12.9487 20 12.6794 20 12.4026C20 12.1258 19.9102 11.8565 19.744 11.6351L15.9039 6.51491C15.8033 6.37993 15.6771 6.26614 15.5324 6.18004C15.3878 6.09394 15.2276 6.03723 15.061 6.01315C14.8944 5.98908 14.7246 5.99812 14.5615 6.03975C14.3984 6.08138 14.2451 6.15479 14.1105 6.25576C13.9758 6.35674 13.8623 6.4833 13.7766 6.62819C13.6909 6.77308 13.6347 6.93346 13.6111 7.10013C13.5875 7.2668 13.597 7.43649 13.6391 7.59948C13.6812 7.76247 13.755 7.91555 13.8564 8.04996L16.1603 11.1226H5.1521C4.83586 11.1559 4.54317 11.3052 4.33044 11.5415C4.11771 11.7779 4 12.0846 4 12.4026C4 12.7206 4.11771 13.0273 4.33044 13.2637C4.54317 13.5 4.83586 13.6493 5.1521 13.6826H16.1603L13.8564 16.7552C13.654 17.0268 13.5675 17.3676 13.6159 17.7028C13.6644 18.0381 13.8438 18.3405 14.1148 18.5436C14.3858 18.7468 14.7263 18.8343 15.0617 18.7868C15.3971 18.7393 15.7 18.5607 15.9039 18.2903Z" fill="#EFEFEF"/>
</svg>
