<svg width="24" height="24" viewBox="0 0 24 24" fill="none" xmlns="http://www.w3.org/2000/svg">
<path fill-rule="evenodd" clip-rule="evenodd" d="M8.09608 18.2903L4.25595 13.1701C4.08981 12.9487 4 12.6794 4 12.4026C4 12.1258 4.08981 11.8565 4.25595 11.6351L8.09608 6.51491C8.19667 6.37993 8.32291 6.26614 8.46756 6.18004C8.61221 6.09394 8.77243 6.03723 8.93903 6.01315C9.10564 5.98908 9.27536 5.99812 9.43846 6.03975C9.60157 6.08138 9.75486 6.15479 9.88954 6.25576C10.0242 6.35674 10.1377 6.4833 10.2234 6.62819C10.3091 6.77308 10.3653 6.93346 10.3889 7.10013C10.4125 7.2668 10.403 7.43649 10.3609 7.59948C10.3188 7.76247 10.245 7.91555 10.1436 8.04996L7.83968 11.1226H18.8479C19.1641 11.1559 19.4568 11.3052 19.6696 11.5415C19.8823 11.7779 20 12.0846 20 12.4026C20 12.7206 19.8823 13.0273 19.6696 13.2637C19.4568 13.5 19.1641 13.6493 18.8479 13.6826H7.83966L10.1436 16.7552C10.346 17.0268 10.4325 17.3676 10.3841 17.7028C10.3356 18.0381 10.1562 18.3405 9.88521 18.5436C9.61419 18.7468 9.27366 18.8343 8.93827 18.7868C8.60289 18.7393 8.30002 18.5607 8.09608 18.2903Z" fill="#EFEFEF"/>
</svg>
