<svg width="24" height="25" viewBox="0 0 24 25" fill="none" xmlns="http://www.w3.org/2000/svg">
<path d="M11.1647 6.03235L9.54622 4.4142L10.9604 3L14.2535 6.29303C14.644 6.68361 14.644 7.31753 14.2535 7.70723L10.9613 11L9.54739 9.58577L11.0942 8.0381C8.99152 8.2304 7.27106 9.72259 6.73676 11.7109L4.79276 11.1895C5.56109 8.32521 8.10414 6.20034 11.1647 6.03235ZM11.3656 21C8.91559 21 6.77484 19.7205 5.52506 17.8075L4.93139 20.0253L3 19.5075L4.20508 15.0085C4.34787 14.4754 4.89659 14.1583 5.42967 14.302L9.92748 15.5068L9.40999 17.4384L7.30645 16.8748C8.20585 18.1564 9.68304 18.9999 11.3657 18.9999C11.8139 18.9999 12.2417 18.9217 12.656 18.8103L13.1762 20.754C12.598 20.9091 11.9926 21 11.3656 21ZM16.5004 19.698C15.9673 19.8408 15.4186 19.5243 15.2758 18.9912L14.0707 14.4931L16.0021 13.9756L16.5646 16.075C16.8633 15.4435 17.0457 14.7472 17.0457 14.0002C17.0457 12.6221 16.4854 11.371 15.5791 10.466L16.9929 9.05299C18.2607 10.3208 19.0458 12.0706 19.0458 14.0005C19.0458 15.139 18.7626 16.2066 18.2724 17.1529L20.4813 16.561L20.9991 18.4923L16.5004 19.698Z" fill="#EFEFEF"/>
</svg>
