<svg width="24" height="24" viewBox="0 0 24 24" fill="none" xmlns="http://www.w3.org/2000/svg">
<path fill-rule="evenodd" clip-rule="evenodd" d="M14.0919 3H3.58378C3.50711 2.99996 3.43118 3.01503 3.36033 3.04435C3.28948 3.07367 3.22511 3.11667 3.17089 3.17089C3.11667 3.22511 3.07367 3.28948 3.04435 3.36033C3.01503 3.43118 2.99996 3.50711 3 3.58378V14.0919C2.99996 14.1686 3.01503 14.2445 3.04435 14.3153C3.07367 14.3862 3.11667 14.4506 3.17089 14.5048C3.22511 14.559 3.28948 14.602 3.36033 14.6313C3.43118 14.6606 3.50711 14.6757 3.58378 14.6757H8.83791V9.00811C8.83789 8.93144 8.85298 8.85552 8.88231 8.78468C8.91164 8.71384 8.95464 8.64948 9.00886 8.59527C9.06307 8.54105 9.12743 8.49805 9.19827 8.46872C9.26911 8.43939 9.34503 8.4243 9.4217 8.42432H14.6757V3.58378C14.6757 3.50711 14.6606 3.43118 14.6313 3.36033C14.602 3.28948 14.559 3.22511 14.5048 3.17089C14.4506 3.11667 14.3862 3.07367 14.3153 3.04435C14.2445 3.01503 14.1686 2.99996 14.0919 3ZM6.5027 12.9243C6.27178 12.9243 6.04604 12.8558 5.85404 12.7276C5.66203 12.5993 5.51238 12.4169 5.42401 12.2036C5.33564 11.9902 5.31252 11.7555 5.35757 11.529C5.40262 11.3025 5.51382 11.0944 5.67711 10.9312C5.84039 10.7679 6.04844 10.6567 6.27492 10.6116C6.50141 10.5666 6.73617 10.5897 6.94951 10.6781C7.16286 10.7664 7.3452 10.9161 7.4735 11.1081C7.60179 11.3001 7.67027 11.5258 7.67027 11.7568C7.66987 12.0663 7.54673 12.363 7.32785 12.5819C7.10898 12.8008 6.81224 12.9239 6.5027 12.9243ZM6.5027 7.08649C6.27178 7.08649 6.04604 7.01801 5.85404 6.88972C5.66203 6.76142 5.51238 6.57907 5.42401 6.36573C5.33564 6.15238 5.31252 5.91762 5.35757 5.69114C5.40262 5.46465 5.51382 5.25661 5.67711 5.09332C5.84039 4.93004 6.04844 4.81884 6.27492 4.77379C6.50141 4.72874 6.73617 4.75186 6.94951 4.84023C7.16286 4.9286 7.3452 5.07825 7.4735 5.27025C7.60179 5.46226 7.67027 5.688 7.67027 5.91892C7.66987 6.22845 7.54673 6.5252 7.32785 6.74407C7.10898 6.96294 6.81224 7.08608 6.5027 7.08649ZM11.173 7.08649C10.942 7.08649 10.7163 7.01801 10.5243 6.88972C10.3323 6.76142 10.1827 6.57907 10.0943 6.36573C10.0059 6.15238 9.98279 5.91762 10.0278 5.69114C10.0729 5.46465 10.1841 5.25661 10.3474 5.09332C10.5107 4.93004 10.7187 4.81884 10.9452 4.77379C11.1717 4.72874 11.4064 4.75186 11.6198 4.84023C11.8331 4.9286 12.0155 5.07825 12.1438 5.27025C12.2721 5.46226 12.3405 5.688 12.3405 5.91892C12.3401 6.22845 12.217 6.5252 11.9981 6.74407C11.7792 6.96294 11.4825 7.08608 11.173 7.08649Z" fill="#EFEFEF"/>
<path fill-rule="evenodd" clip-rule="evenodd" d="M10.3217 9.32432H20.8298C20.9065 9.32428 20.9824 9.33935 21.0533 9.36867C21.1241 9.398 21.1885 9.441 21.2427 9.49521C21.2969 9.54943 21.3399 9.6138 21.3692 9.68465C21.3986 9.7555 21.4136 9.83143 21.4136 9.90811V20.4162C21.4136 20.4929 21.3986 20.5688 21.3692 20.6397C21.3399 20.7105 21.2969 20.7749 21.2427 20.8291C21.1885 20.8833 21.1241 20.9263 21.0533 20.9557C20.9824 20.985 20.9065 21 20.8298 21H10.3217C10.245 21 10.1691 20.9849 10.0983 20.9556C10.0274 20.9263 9.96307 20.8833 9.90886 20.8291C9.85464 20.7748 9.81164 20.7105 9.78231 20.6396C9.75298 20.5688 9.73789 20.4929 9.73791 20.4162V9.90811C9.73789 9.83144 9.75298 9.75552 9.78231 9.68468C9.81164 9.61384 9.85464 9.54948 9.90886 9.49527C9.96307 9.44105 10.0274 9.39805 10.0983 9.36872C10.1691 9.33939 10.245 9.3243 10.3217 9.32432ZM13.8893 11.2724C13.6973 11.1442 13.4715 11.0757 13.2406 11.0757C12.9311 11.076 12.6343 11.1992 12.4154 11.418C12.1965 11.6369 12.0734 11.9337 12.073 12.2432C12.073 12.4742 12.1415 12.6999 12.2698 12.8919C12.3981 13.0839 12.5805 13.2336 12.7938 13.3219C13.0072 13.4103 13.2419 13.4334 13.4684 13.3884C13.6949 13.3433 13.9029 13.2321 14.0662 13.0688C14.2295 12.9056 14.3407 12.6975 14.3857 12.471C14.4308 12.2445 14.4077 12.0098 14.3193 11.7964C14.2309 11.5831 14.0813 11.4007 13.8893 11.2724ZM12.592 19.0519C12.784 19.1802 13.0097 19.2486 13.2406 19.2486C13.5502 19.2483 13.8469 19.1252 14.0658 18.9063C14.2847 18.6874 14.4078 18.3906 14.4082 18.0811C14.4082 17.8502 14.3397 17.6244 14.2114 17.4324C14.0831 17.2404 13.9008 17.0908 13.6874 17.0024C13.4741 16.914 13.2393 16.8909 13.0128 16.9359C12.7864 16.981 12.5783 17.0922 12.415 17.2555C12.2517 17.4188 12.1405 17.6268 12.0955 17.8533C12.0504 18.0798 12.0736 18.3145 12.1619 18.5279C12.2503 18.7412 12.3999 18.9236 12.592 19.0519ZM14.9271 16.133C15.1191 16.2613 15.3448 16.3297 15.5758 16.3297C15.8853 16.3294 16.1821 16.2063 16.401 15.9874C16.6198 15.7685 16.743 15.4717 16.7433 15.1622C16.7433 14.9312 16.6748 14.7055 16.5465 14.5135C16.4183 14.3215 16.2359 14.1718 16.0226 14.0835C15.8092 13.9951 15.5745 13.972 15.348 14.017C15.1215 14.0621 14.9134 14.1733 14.7502 14.3366C14.5869 14.4999 14.4757 14.7079 14.4306 14.9344C14.3856 15.1609 14.4087 15.3956 14.4971 15.609C14.5854 15.8223 14.7351 16.0047 14.9271 16.133ZM17.2622 19.0519C17.4542 19.1802 17.68 19.2486 17.9109 19.2486C18.2204 19.2482 18.5172 19.1251 18.736 18.9062C18.9549 18.6874 19.0781 18.3906 19.0785 18.0811C19.0785 17.8502 19.01 17.6244 18.8817 17.4324C18.7534 17.2404 18.571 17.0908 18.3577 17.0024C18.1444 16.914 17.9096 16.8909 17.6831 16.9359C17.4566 16.981 17.2486 17.0922 17.0853 17.2555C16.922 17.4188 16.8108 17.6268 16.7658 17.8533C16.7207 18.0798 16.7438 18.3145 16.8322 18.5279C16.9206 18.7412 17.0702 18.9236 17.2622 19.0519ZM17.2622 13.214C17.4542 13.3423 17.68 13.4108 17.9109 13.4108C18.2204 13.4104 18.5172 13.2873 18.736 13.0684C18.9549 12.8495 19.0781 12.5528 19.0785 12.2432C19.0785 12.0123 19.01 11.7866 18.8817 11.5946C18.7534 11.4026 18.571 11.2529 18.3577 11.1646C18.1444 11.0762 17.9096 11.0531 17.6831 11.0981C17.4566 11.1432 17.2486 11.2544 17.0853 11.4176C16.922 11.5809 16.8108 11.789 16.7658 12.0155C16.7207 12.2419 16.7438 12.4767 16.8322 12.6901C16.9206 12.9034 17.0702 13.0857 17.2622 13.214Z" fill="#EFEFEF"/>
</svg>
