<svg width="24" height="24" viewBox="0 0 24 24" fill="none" xmlns="http://www.w3.org/2000/svg">
<path d="M10.6502 9.54481C10.3298 9.22441 6.2714 6.76802 4.77621 6.23402C1.41432 5.03335 3.77033 16.5539 4.24221 17.8752C4.66941 19.0713 6.91219 17.3056 7.98019 16.2732C10.579 13.888 15.8192 9.07489 15.9901 8.90401C16.2037 8.69041 17.9125 6.98161 18.4465 8.26321C18.9805 9.54481 19.0873 13.3896 18.8737 14.1372C18.6601 14.8848 18.1261 14.8848 17.8057 14.778C17.5494 14.6925 15.2781 13.1048 14.1745 12.3216C13.7829 12.6064 13.0424 13.2401 13.2133 13.4964C13.4269 13.8168 17.3785 16.4868 18.7669 16.914C20.1553 17.3412 20.5825 17.448 20.9029 15.9528C21.1555 14.7739 20.9468 7.79322 19.9022 5.59323C19.4519 4.64491 18.9371 5.00627 18.3038 5.48643C12.6481 9.77451 12.1037 11.6819 7.55299 14.9916C7.19699 15.2408 6.485 15.7178 6.485 15.6324C4.9898 16.0596 5.0966 9.97201 5.3102 9.01082C5.5238 8.04962 7.23259 9.11761 7.55299 9.22441C7.80931 9.30985 7.65979 9.47361 7.55299 9.54481C7.05459 9.97201 5.99372 10.9332 5.7374 11.3604C5.417 11.8944 5.8442 12.7488 5.951 12.8556C6.0578 12.9624 8.72778 10.1856 8.83458 10.0788C8.92002 9.99337 9.43978 10.6128 9.68898 10.9332C9.85986 11.1895 10.045 11.1112 10.1162 11.04C10.5481 10.6081 11.3244 10.219 10.6502 9.54481Z" fill="#EFEFEF"/>
</svg>
