<svg width="24" height="25" viewBox="0 0 24 25" fill="none" xmlns="http://www.w3.org/2000/svg">
<path fill-rule="evenodd" clip-rule="evenodd" d="M12.5 11.4522H11.5C11.2239 11.4522 11 11.676 11 11.9522V12.9522C11 13.2283 11.2239 13.4522 11.5 13.4522H12.5C12.7761 13.4522 13 13.2283 13 12.9522V11.9522C13 11.676 12.7761 11.4522 12.5 11.4522ZM11.5 9.95218C10.3954 9.95218 9.5 10.8476 9.5 11.9522V12.9522C9.5 14.0567 10.3954 14.9522 11.5 14.9522H12.5C13.6046 14.9522 14.5 14.0567 14.5 12.9522V11.9522C14.5 10.8476 13.6046 9.95218 12.5 9.95218H11.5Z" fill="#EFEFEF"/>
<path fill-rule="evenodd" clip-rule="evenodd" d="M16.9062 7.7803C16.9062 6.26152 18.1375 5.0303 19.6562 5.0303H21V6.5303H19.6562C18.9659 6.5303 18.4062 7.08995 18.4062 7.7803V16.7803C18.4062 17.4707 18.9659 18.0303 19.6562 18.0303H21V19.5303H19.6562C18.1375 19.5303 16.9062 18.2991 16.9062 16.7803V13.0303H15.5V11.5303H16.9062V7.7803Z" fill="#EFEFEF"/>
<path fill-rule="evenodd" clip-rule="evenodd" d="M7.09375 7.7803C7.09375 6.26152 5.86253 5.0303 4.34375 5.0303H3V6.5303H4.34375C5.03411 6.5303 5.59375 7.08995 5.59375 7.7803V16.7803C5.59375 17.4707 5.03411 18.0303 4.34375 18.0303H3V19.5303H4.34375C5.86253 19.5303 7.09375 18.2991 7.09375 16.7803V13.0303H8.5V11.5303H7.09375V7.7803Z" fill="#EFEFEF"/>
</svg>
