<svg width="24" height="24" viewBox="0 0 24 24" fill="none" xmlns="http://www.w3.org/2000/svg">
<path d="M18.7829 10.932C18.7829 10.932 20.2626 11.007 20.2626 10.137C20.2626 8.9985 18.2924 7.97325 18.2924 7.97325C18.2924 7.97325 18.6014 7.3185 18.7934 6.95212C18.9865 6.58612 19.5284 5.15775 19.5771 4.83263C19.6386 4.42238 19.5449 4.29338 19.5449 4.29338C19.4114 5.17237 17.9804 7.70213 17.8675 7.78837C16.4714 7.13363 14.554 6.95212 14.554 6.95212C14.554 6.95212 12.6775 3 10.9124 3C9.16187 3 9.1705 6.38363 9.1705 6.38363C9.1705 6.38363 8.6755 5.42438 8.056 5.42438C7.14775 5.42438 6.85037 6.79837 6.85037 8.28675C5.0575 8.28675 3.55038 8.6865 3.41538 8.72475C3.28038 8.76413 2.85738 9.07163 3.049 9.03375C3.44163 8.90775 5.28287 8.622 6.89425 8.76263C6.9835 10.1779 7.81 12.0206 7.81 12.0206C7.81 12.0206 6.03887 14.5856 6.03887 16.4179C6.03887 16.8997 6.2485 17.7817 7.52012 17.7817C8.58475 17.7817 9.77987 17.1416 10.0056 17.0111C9.8095 17.2924 9.66437 17.8256 9.66437 18.0716C9.66437 18.2726 9.78287 18.8422 10.6049 18.8422C11.6594 18.8422 12.8372 18.0338 12.8372 18.0338C12.8372 18.0338 13.9491 19.8825 14.9012 20.7304C15.1574 20.9591 15.4022 21 15.4022 21C15.4022 21 14.4572 20.0903 13.2122 17.7465C14.3695 17.0318 15.5736 15.3458 15.5736 15.3458C15.5736 15.3458 15.7157 15.3502 16.8141 15.3502C18.5354 15.3502 20.9804 14.9884 20.9804 13.62C20.9804 12.2081 18.7829 10.932 18.7829 10.932ZM18.9749 10.0826C18.9749 10.5821 18.5001 10.5746 18.5001 10.5746L18.1386 10.5998C18.1386 10.5998 17.4527 10.2394 17.0384 10.071C17.0384 10.071 17.6815 9.07762 17.8322 8.80087C17.9466 8.86688 18.9749 9.51112 18.9749 10.0826ZM11.7737 4.99088C12.5822 4.99088 13.7365 6.90075 13.7365 6.90075C13.7365 6.90075 11.935 6.7395 10.4522 7.61137C10.492 6.23587 10.9547 4.99088 11.7737 4.99088ZM8.5675 6.53888C8.82512 6.53888 9.07675 6.85125 9.181 7.11637C9.181 7.29187 9.27175 8.3145 9.27175 8.3145L7.78675 8.25863C7.78675 6.91838 8.311 6.53925 8.56712 6.53925L8.5675 6.53888ZM8.41487 15.8426C7.60337 15.8426 7.435 15.3896 7.435 14.9824C7.435 14.061 8.17 12.7721 8.17 12.7721C8.17 12.7721 8.995 14.5065 10.435 15.2389C9.71987 15.6578 9.13112 15.8426 8.41487 15.8426ZM11.05 17.6588C10.48 17.6588 10.4114 17.2894 10.4114 17.2046C10.4114 16.9395 10.6176 16.626 10.6176 16.626C10.6176 16.626 11.5746 15.9799 11.6361 15.9113L12.3422 17.2294C12.3422 17.2294 11.6185 17.6588 11.05 17.6588ZM12.8256 16.9395C12.4784 16.3331 12.2234 15.7001 12.2234 15.7001C12.2234 15.7001 13.6457 15.7924 14.4104 15.0026C13.9341 15.2168 13.174 15.4879 12.2909 15.4058C14.1381 13.7782 15.2159 12.5992 16.1271 11.379C16.0495 11.2852 15.6321 10.9935 15.5297 10.9451C14.9804 11.6074 12.8402 13.8956 10.8595 15.0278C8.35037 13.6598 7.82462 9.63413 7.77025 8.79788L9.14125 8.92987C9.14125 8.92987 8.62562 9.84225 8.62562 10.5146C8.62562 11.1859 8.70625 11.2222 8.70625 11.2222C8.70625 11.2222 8.68862 10.0504 9.41237 9.14663C9.96325 12.0791 10.5374 13.5821 10.9855 14.4769C11.2127 14.3831 11.6376 14.1945 11.6376 14.1945C11.6376 14.1945 10.372 10.5457 10.4421 8.07562C11.0162 7.76962 11.866 7.45312 12.8256 7.45312C15.3494 7.45312 17.3781 8.53988 17.3781 8.53988L16.5842 9.64875C16.5842 9.64875 15.8766 8.367 14.878 8.13863C15.4049 8.53237 15.9955 9.05137 16.3015 9.79838C14.2097 8.98088 11.6856 8.54887 10.8756 8.45363C10.8055 8.7525 10.8141 9.18 10.8141 9.18C10.8141 9.18 14.1996 9.80438 16.6634 11.2148C16.6457 14.2969 13.2884 16.6643 12.8256 16.9395ZM16.0319 14.6351C16.0319 14.6351 17.0822 13.2551 17.0661 11.4289C17.0661 11.4289 18.7641 12.4804 18.7641 13.506C18.7641 14.6528 16.0319 14.6351 16.0319 14.6351Z" fill="#EFEFEF"/>
</svg>
