<svg width="24" height="24" viewBox="0 0 24 24" fill="none" xmlns="http://www.w3.org/2000/svg">
<path d="M12 16.932L8.50425 13.4363L6.47041 15.4704L12 21L17.5314 15.4687L15.4974 13.4347L12 16.932Z" fill="#EFEFEF"/>
<path d="M5.03408 14.0344L3 12L5.03391 9.96636L7.068 12.0004L5.03408 14.0344Z" fill="#EFEFEF"/>
<path d="M12 7.06803L8.50425 10.5635L6.46753 8.53251L12 3L17.5314 8.5312L17.5324 8.53223L15.4973 10.5652L12 7.06803Z" fill="#EFEFEF"/>
<path d="M18.9661 14.0332L16.932 11.9991L18.966 9.96519L21 11.9993L18.9661 14.0332Z" fill="#EFEFEF"/>
<path d="M14.2487 12.0012L14.25 12.0001L14.2489 11.9988L12 9.75L9.75312 11.9972L9.75 12.0004L9.75312 12.0034L12 14.25L14.2487 12.0012Z" fill="#EFEFEF"/>
</svg>
