<svg width="24" height="25" viewBox="0 0 24 25" fill="none" xmlns="http://www.w3.org/2000/svg">
<path d="M7.04687 5.71875L8.875 6.79688L11.9219 5.0625L14.9688 6.79688L16.7969 5.71875L11.9219 3L7.04687 5.71875Z" fill="#EFEFEF"/>
<path d="M7.5625 7.5L5.82812 8.48438V10.6406L4 9.5625V7.5L5.82812 6.46875L7.5625 7.5Z" fill="#EFEFEF"/>
<path d="M10.1406 16.5469L11.9219 17.5312L13.7031 16.5469V12.9844H13.75L16.7969 11.25V9.1875L14.9688 8.15625L11.9219 9.9375L8.875 8.15625L7.04687 9.1875V11.25L10.0937 12.9844H10.1406V16.5469Z" fill="#EFEFEF"/>
<path d="M5.82812 15.4687L8.875 17.2031V19.2656L4 16.4531V10.9219L5.82812 11.9062V15.4687Z" fill="#EFEFEF"/>
<path d="M7.09375 12.75V14.7656L8.875 15.75V13.7344L7.09375 12.75Z" fill="#EFEFEF"/>
<path d="M11.9219 6.46875L10.1406 7.5L11.9219 8.53125L13.7031 7.5L11.9219 6.46875Z" fill="#EFEFEF"/>
<path d="M10.1406 17.9062V20.0156L11.9219 21L13.7031 20.0156V17.9062L11.9219 18.9844L10.1406 17.9062Z" fill="#EFEFEF"/>
<path d="M16.2812 7.5L18.0156 8.48438V10.6406L19.8437 9.5625V7.5L18.0156 6.46875L16.2812 7.5Z" fill="#EFEFEF"/>
<path d="M18.0156 15.4687L14.9688 17.2031V19.2656L19.8437 16.4531V10.9219L18.0156 11.9062V15.4687Z" fill="#EFEFEF"/>
<path d="M16.75 12.75V14.7656L14.9688 15.75V13.7344L16.75 12.75Z" fill="#EFEFEF"/>
</svg>
