<svg width="24" height="25" viewBox="0 0 24 25" fill="none" xmlns="http://www.w3.org/2000/svg">
<path fill-rule="evenodd" clip-rule="evenodd" d="M15.8218 8.08499V4.06155C15.8218 3.63007 16.1715 3.2803 16.603 3.2803H20.1187C20.5501 3.2803 20.8999 3.63007 20.8999 4.06155V8.08499C20.8999 8.51648 20.5501 8.86624 20.1187 8.86624H16.603C16.1715 8.86624 15.8218 8.51648 15.8218 8.08499ZM19.3374 7.30374V4.8428H17.3843V7.30374H19.3374Z" fill="#EFEFEF"/>
<path fill-rule="evenodd" clip-rule="evenodd" d="M13.433 17.7256C13.8644 17.7256 14.2142 18.0754 14.2142 18.5069C14.2142 18.9384 13.8644 19.2881 13.433 19.2881H12.6577C10.9346 19.2881 9.53271 17.8862 9.53271 16.1631V16.0338H6.89712V16.9931C6.89712 17.3243 6.6287 17.5927 6.29756 17.5927H3.59956C3.26842 17.5927 3 17.3243 3 16.9931V13.8754C3 13.5443 3.26842 13.2759 3.59956 13.2759H6.29756C6.6287 13.2759 6.89712 13.5443 6.89712 13.8754V14.8347H9.53271V10.0383H6.89712V10.9976C6.89712 11.3287 6.6287 11.5971 6.29756 11.5971H3.59956C3.26842 11.5971 3 11.3287 3 10.9976V7.87986C3 7.54872 3.26842 7.2803 3.59956 7.2803L6.29756 7.2803C6.6287 7.2803 6.89712 7.54872 6.89712 7.87986V8.83915L9.53271 8.83915V8.39749C9.53271 6.67436 10.9346 5.27249 12.6577 5.27249L13.433 5.27249C13.8644 5.27249 14.2142 5.62225 14.2142 6.05374C14.2142 6.48523 13.8644 6.83499 13.433 6.83499H12.6577C11.7961 6.83499 11.0952 7.53593 11.0952 8.39749V16.1631C11.0952 17.0247 11.7961 17.7256 12.6577 17.7256H13.433ZM4.19911 10.398H5.69801V8.47942H4.19911V10.398ZM4.19911 16.3936H5.69801V14.475H4.19911V16.3936Z" fill="#EFEFEF"/>
<path fill-rule="evenodd" clip-rule="evenodd" d="M15.8218 16.4756V20.4991C15.8218 20.9305 16.1715 21.2803 16.603 21.2803H20.1187C20.5501 21.2803 20.8999 20.9305 20.8999 20.4991V16.4756C20.8999 16.0441 20.5501 15.6944 20.1187 15.6944H16.603C16.1715 15.6944 15.8218 16.0441 15.8218 16.4756ZM19.3374 17.2569V19.7178H17.3843V17.2569H19.3374Z" fill="#EFEFEF"/>
</svg>
