<svg width="24" height="25" viewBox="0 0 24 25" fill="none" xmlns="http://www.w3.org/2000/svg">
<path fill-rule="evenodd" clip-rule="evenodd" d="M14.5331 17.7256C14.9645 17.7256 15.3143 18.0754 15.3143 18.5069C15.3143 18.9384 14.9645 19.2881 14.5331 19.2881H13.7578C12.0347 19.2881 10.6328 17.8862 10.6328 16.1631V13.0616L7.07812 13.0616V14.3116C7.07812 14.743 6.72836 15.0928 6.29688 15.0928H2.78125C2.34976 15.0928 2 14.743 2 14.3116L2 10.2491C2 9.81757 2.34976 9.4678 2.78125 9.4678L6.29688 9.4678C6.72836 9.4678 7.07812 9.81757 7.07812 10.2491V11.4991L10.6328 11.4991V8.39749C10.6328 6.67436 12.0347 5.27249 13.7578 5.27249L14.5331 5.27249C14.9645 5.27249 15.3143 5.62225 15.3143 6.05374C15.3143 6.48523 14.9645 6.83499 14.5331 6.83499H13.7578C12.8962 6.83499 12.1953 7.53593 12.1953 8.39749V16.1631C12.1953 17.0247 12.8962 17.7256 13.7578 17.7256H14.5331ZM3.5625 13.5303H5.51563L5.51562 11.0303H3.5625L3.5625 13.5303Z" fill="#EFEFEF"/>
<path fill-rule="evenodd" clip-rule="evenodd" d="M16.9219 8.08499V4.06155C16.9219 3.63007 17.2716 3.2803 17.7031 3.2803L21.2188 3.2803C21.6502 3.2803 22 3.63007 22 4.06155V8.08499C22 8.51648 21.6502 8.86624 21.2188 8.86624H17.7031C17.2716 8.86624 16.9219 8.51648 16.9219 8.08499ZM20.4375 7.30374V4.8428H18.4844V7.30374H20.4375Z" fill="#EFEFEF"/>
<path fill-rule="evenodd" clip-rule="evenodd" d="M16.9219 16.4756L16.9219 20.4991C16.9219 20.9305 17.2716 21.2803 17.7031 21.2803H21.2188C21.6502 21.2803 22 20.9305 22 20.4991V16.4756C22 16.0441 21.6502 15.6944 21.2188 15.6944H17.7031C17.2716 15.6944 16.9219 16.0441 16.9219 16.4756ZM20.4375 17.2569V19.7178H18.4844V17.2569H20.4375Z" fill="#EFEFEF"/>
</svg>
