<svg width="24" height="24" viewBox="0 0 24 24" fill="none" xmlns="http://www.w3.org/2000/svg">
<path d="M19.2276 17.0071V12.284L20.3214 11.7868V17.3737C20.3214 19.1821 18.8547 20.6488 17.0463 20.6488H9.04196L9.53292 19.555H16.6796C18.0904 19.555 19.2276 18.4116 19.2276 17.0071Z" fill="#EFEFEF"/>
<path d="M3.6788 7.27508C3.6788 5.47286 5.14543 4.00622 6.95387 4.00622V4H14.9644L14.4735 5.09376H7.32051C5.90981 5.09376 4.77255 6.23724 4.77255 7.64173V12.3648L3.6788 12.862V7.27508Z" fill="#EFEFEF"/>
<path d="M13.8457 6.492H7.48202C6.75492 6.492 6.17077 7.08239 6.17077 7.80327V11.7246L7.25825 11.2268V8.31906C7.25825 7.91512 7.58142 7.59197 7.98536 7.59197H13.3485L13.8457 6.492Z" fill="#EFEFEF"/>
<path d="M17.8291 16.8454V12.9241L16.7355 13.4258V16.3297C16.7355 16.7337 16.4124 17.0568 16.0084 17.0568H10.6517L10.1604 18.1567H16.5179C17.245 18.1567 17.8291 17.5663 17.8291 16.8454Z" fill="#EFEFEF"/>
<path d="M11.565 10.7924L2.10643 15.1302C1.9635 15.1985 1.9635 15.4036 2.11265 15.4658L5.64873 16.9075C5.69223 16.9262 5.72951 16.9635 5.74816 17.007L7.22102 20.5306C7.28314 20.6798 7.49447 20.6798 7.55659 20.5368L11.8074 11.041C11.8757 10.8794 11.7203 10.7241 11.565 10.7924Z" fill="#EFEFEF"/>
<path d="M21.8936 9.51845L12.435 13.85C12.2859 13.9246 12.1243 13.763 12.1927 13.6138L16.4434 4.11177C16.5055 3.96884 16.7168 3.96884 16.779 4.11799L18.2518 7.64164C18.2705 7.68515 18.3078 7.72241 18.3513 7.74106L21.8874 9.18285C22.0365 9.24501 22.0365 9.45008 21.8936 9.51845Z" fill="#EFEFEF"/>
</svg>
