<svg width="24" height="24" viewBox="0 0 24 24" fill="none" xmlns="http://www.w3.org/2000/svg">
<path d="M19.3662 16.4135V11.9059L20.4053 11.4314V16.7634C20.4053 18.4893 19.012 19.889 17.294 19.889H9.68985L10.1563 18.8451H16.9457C18.2858 18.8451 19.3662 17.7538 19.3662 16.4135Z" fill="#EFEFEF"/>
<path d="M4.59485 7.12559C4.59485 5.40564 5.98815 4.00593 7.70617 4.00593V4H15.3162L14.8498 5.04385H8.05449C6.7143 5.04385 5.63391 6.13514 5.63391 7.47552V11.9831L4.59485 12.4575V7.12559Z" fill="#EFEFEF"/>
<path d="M13.7812 7.43673L13.7811 7.42805H8.68613C8.30237 7.42805 7.99536 7.73647 7.99536 8.12198V10.897L6.96223 11.3721V7.62969C6.96223 6.94172 7.51717 6.37828 8.20794 6.37828H14.2534L13.7812 7.43673Z" fill="#EFEFEF"/>
<path d="M18.0376 16.2592V12.5168L16.9987 12.9956V15.767C16.9987 16.1525 16.6917 16.4609 16.308 16.4609H11.2191L10.7523 17.5106H16.792C17.4827 17.5106 18.0376 16.9472 18.0376 16.2592Z" fill="#EFEFEF"/>
<path fill-rule="evenodd" clip-rule="evenodd" d="M3.1011 14.6222L12.0867 10.4824C12.2343 10.4172 12.3819 10.5655 12.317 10.7197L8.27876 19.7822C8.21974 19.9185 8.01897 19.9185 7.95995 19.7762L6.56074 16.4134C6.54304 16.3718 6.50763 16.3363 6.46629 16.3184L3.107 14.9425C2.96533 14.8832 2.96533 14.6875 3.1011 14.6222ZM5.6221 14.5629L10.0854 12.5108C10.233 12.4456 10.3806 12.5938 10.3156 12.7421L8.30835 17.2437C8.24931 17.3801 8.04856 17.3801 7.98952 17.2377L7.32239 15.6364C7.30468 15.5949 7.26924 15.5593 7.22796 15.5415L5.628 14.8832C5.4863 14.8239 5.4863 14.6281 5.6221 14.5629Z" fill="#EFEFEF"/>
<path fill-rule="evenodd" clip-rule="evenodd" d="M12.9132 13.4005L21.8989 9.2666C22.0347 9.20135 22.0347 9.00565 21.893 8.94632L18.5337 7.57034C18.4924 7.55255 18.4569 7.51697 18.4392 7.47546L17.04 4.11261C16.981 3.97027 16.7803 3.97027 16.7212 4.10668L12.683 13.1751C12.6181 13.3174 12.7716 13.4717 12.9132 13.4005ZM14.9146 11.378L19.3779 9.32587C19.5137 9.26062 19.5137 9.06489 19.372 9.00559L17.7721 8.34725C17.7308 8.32946 17.6953 8.29391 17.6776 8.25237L17.0105 6.65101C16.9515 6.50867 16.7507 6.50867 16.6917 6.64508L14.6844 11.1467C14.6194 11.2949 14.767 11.4432 14.9146 11.378Z" fill="#EFEFEF"/>
</svg>
