<svg width="24" height="25" viewBox="0 0 24 25" fill="none" xmlns="http://www.w3.org/2000/svg">
<path fill-rule="evenodd" clip-rule="evenodd" d="M19.9561 9.82935L17.7841 12.0002C16.4685 13.3158 14.4684 13.509 12.9353 12.6074L12.7349 12.8079C13.6364 14.3409 13.4438 16.3411 12.1277 17.6575L9.95591 19.8293C8.39436 21.3908 5.86018 21.3899 4.29952 19.8284C2.73707 18.2659 2.73707 15.7335 4.29952 14.1711L6.4704 12.0002C7.78684 10.6826 9.78791 10.4906 11.3213 11.393L11.5205 11.1938C10.618 9.65925 10.8112 7.65908 12.1277 6.34294L14.2995 4.17116C15.861 2.60961 18.3934 2.60961 19.9558 4.17116C21.5177 5.73242 21.5186 8.2657 19.9561 9.82935ZM17.1281 5.00011C16.5938 5.00011 16.0919 5.20682 15.7138 5.58603L13.5409 7.7578C13.0207 8.27832 12.8566 9.01545 13.0324 9.68267L14.6026 8.11152C14.9923 7.7227 15.628 7.7227 16.0178 8.11152C16.4063 8.50003 16.4063 9.13695 16.0178 9.52546L14.4463 11.0969C15.1126 11.2715 15.8498 11.1074 16.3703 10.586L18.542 8.41423C19.3227 7.6348 19.3227 6.36546 18.542 5.58483C18.164 5.20682 17.6621 5.00011 17.1281 5.00011ZM8.23932 14.475C7.8505 14.8635 7.8505 15.5004 8.23932 15.889C8.62783 16.2778 9.26475 16.2778 9.65326 15.889L11.2235 14.3187C11.3993 14.985 11.2343 15.7221 10.7138 16.2436L8.54203 18.4156C7.7617 19.1951 6.49326 19.1951 5.71383 18.4144C4.93321 17.6341 4.93231 16.3666 5.71263 15.5862L7.8856 13.4145C8.26272 13.0365 8.76463 12.8286 9.29985 12.8286C9.47566 12.8286 9.64546 12.8589 9.81137 12.9027L8.23932 14.475Z" fill="#EFEFEF"/>
</svg>
