<svg width="24" height="24" viewBox="0 0 24 24" fill="none" xmlns="http://www.w3.org/2000/svg">
<path d="M12.0015 3.00004C13.9804 2.99407 15.905 3.64664 17.4722 4.85492L18.0134 5.27109C18.0586 5.30585 18.0958 5.34985 18.1226 5.40015C18.1494 5.45045 18.1652 5.5059 18.1689 5.56278C18.1725 5.61966 18.164 5.67667 18.1439 5.73C18.1238 5.78333 18.0925 5.83176 18.0522 5.87205L14.3642 9.56008C14.3021 9.62205 14.2213 9.66192 14.1344 9.67356C14.0474 9.6852 13.959 9.66797 13.8828 9.62452L13.4845 9.39625C12.9774 9.10654 12.3966 8.97124 11.8137 9.00697C11.2307 9.04269 10.6709 9.24789 10.2029 9.59736C9.73495 9.94683 9.37923 10.4254 9.17944 10.9742C8.97965 11.523 8.94448 12.1182 9.07826 12.6867L9.15591 13.0121C9.17127 13.0783 9.16949 13.1473 9.15074 13.2127C9.13199 13.278 9.09689 13.3375 9.04876 13.3855L8.145 14.2901C8.09975 14.3354 8.04432 14.3691 7.98333 14.3886C7.92235 14.408 7.85759 14.4126 7.79449 14.4019C7.73138 14.3912 7.67176 14.3655 7.62062 14.327C7.56948 14.2885 7.52831 14.2383 7.50056 14.1806C7.24992 13.6612 7.0905 13.1026 7.02927 12.5291C7.02228 12.4639 6.99977 12.085 6.99977 12.0019C6.99952 11.1925 7.19581 10.3951 7.57177 9.67833C7.94773 8.96152 8.4921 8.3467 9.15813 7.88673C9.82415 7.42675 10.5919 7.13537 11.3954 7.03761C12.1989 6.93986 13.0141 7.03865 13.771 7.32552L15.2819 5.81536C14.2726 5.27658 13.1456 4.99597 12.0015 4.99856C10.8901 4.99892 9.79471 5.26378 8.80592 5.77127C7.81712 6.27876 6.96331 7.0143 6.31505 7.91708C5.66679 8.81986 5.2427 9.86397 5.07784 10.9631C4.91297 12.0622 5.01207 13.1848 5.36694 14.2381C5.55656 14.8016 5.81749 15.3386 6.14337 15.8359C6.19414 15.913 6.21691 16.0052 6.20786 16.0971C6.19882 16.1889 6.15851 16.2749 6.09368 16.3406L5.20234 17.232C5.15877 17.2754 5.10579 17.3082 5.0475 17.3278C4.98921 17.3475 4.92718 17.3534 4.86622 17.3453C4.80525 17.3371 4.74699 17.315 4.69595 17.2806C4.6449 17.2463 4.60245 17.2007 4.57188 17.1473L4.18366 16.4664C3.4032 15.0971 2.99575 13.5469 3.00202 11.9708C3.0083 10.3946 3.42807 8.84774 4.21941 7.48466C5.01074 6.12157 6.14593 4.99002 7.51154 4.20305C8.87715 3.41608 10.4254 3.00126 12.0015 3.00004Z" fill="white"/>
<path d="M19.4304 6.85578L19.8186 7.53748C20.598 8.90655 21.0047 10.4561 20.998 12.0315C20.9913 13.6068 20.5716 15.1529 19.7806 16.5153C18.9897 17.8777 17.8552 19.0089 16.4905 19.7958C15.1257 20.5827 13.5784 20.9979 12.0031 21C10.0243 21.006 8.09972 20.3537 6.53235 19.1458L5.98886 18.7289C5.94365 18.6943 5.90636 18.6504 5.87948 18.6002C5.8526 18.55 5.83676 18.4946 5.83301 18.4378C5.82926 18.381 5.83769 18.324 5.85774 18.2707C5.87779 18.2174 5.90899 18.169 5.94926 18.1287L9.63807 14.4407C9.69997 14.3784 9.78074 14.3383 9.8678 14.3266C9.95486 14.315 10.0433 14.3324 10.1194 14.3763L10.5178 14.6045C11.025 14.894 11.6057 15.029 12.1886 14.9931C12.7715 14.9572 13.3312 14.7519 13.7991 14.4024C14.267 14.0529 14.6227 13.5744 14.8225 13.0257C15.0223 12.4769 15.0576 11.8818 14.924 11.3133L14.8463 10.9887C14.8307 10.9224 14.8322 10.8532 14.8508 10.7877C14.8695 10.7222 14.9045 10.6626 14.9527 10.6145L15.8565 9.71692C15.9016 9.67163 15.957 9.63784 16.0179 9.61838C16.0789 9.59892 16.1436 9.59437 16.2066 9.60509C16.2697 9.61582 16.3292 9.64151 16.3803 9.68001C16.4314 9.71852 16.4725 9.76872 16.5001 9.82639C16.9358 10.727 17.0912 11.7377 16.9464 12.7276C16.8017 13.7175 16.3633 14.6413 15.688 15.3795C15.0127 16.1177 14.1315 16.6363 13.1583 16.8684C12.1851 17.1005 11.1647 17.0354 10.2289 16.6815L8.71878 18.1924C9.72864 18.7302 10.8558 19.01 12 19.0069C13.1114 19.0065 14.2068 18.7417 15.1956 18.2342C16.1844 17.7267 17.0382 16.9911 17.6864 16.0884C18.3347 15.1856 18.7588 14.1415 18.9236 13.0423C19.0885 11.9432 18.9894 10.8206 18.6345 9.76738C18.4446 9.20396 18.1837 8.66701 17.8581 8.16949C17.8068 8.09243 17.7838 8.00002 17.7928 7.90791C17.8019 7.8158 17.8425 7.72965 17.9078 7.66404L18.8007 6.77192C18.8441 6.72832 18.8969 6.69534 18.9551 6.67554C19.0133 6.65574 19.0754 6.64966 19.1363 6.65778C19.1973 6.66589 19.2555 6.68799 19.3065 6.72233C19.3575 6.75668 19.3999 6.80235 19.4304 6.85578Z" fill="white"/>
</svg>
