<svg width="24" height="24" viewBox="0 0 24 24" fill="none" xmlns="http://www.w3.org/2000/svg">
<path d="M19.4561 6.10753C18.6919 4.84465 17.3829 4.00001 15.8848 4.00001C15.5014 4.00001 15.1313 4.06 14.7778 4.16243L15.0958 5.44549C15.3492 5.372 15.6107 5.32033 15.8848 5.32033C16.9137 5.32033 17.8169 5.87719 18.3668 6.72322L17.0806 6.35113L16.7642 7.6263L19.5144 8.42163C19.8403 8.51647 20.1758 8.30714 20.2632 7.95523L21 4.98525L19.819 4.64344L19.4561 6.10753Z" fill="#EFEFEF"/>
<path d="M12.0316 10.8466L10.9899 10.4716C10.9899 10.9327 11.7398 11.1977 12.0316 10.8466Z" fill="#EFEFEF"/>
<path d="M13.6595 11.0967L14.7663 11.503C15.1186 10.8878 14.1348 10.8878 13.6595 11.0967Z" fill="#EFEFEF"/>
<path fill-rule="evenodd" clip-rule="evenodd" d="M19.3234 11.8571C17.9431 10.8918 16.1244 9.98887 13.8674 9.14847C11.6102 8.30819 9.57428 7.77337 7.76006 7.5442C6.06723 7.33583 5.02986 7.45395 4.6478 7.89841C4.6304 7.9192 4.60882 7.95046 4.58266 7.99219C4.56539 8.02685 4.54368 8.06858 4.51765 8.11724L4.50457 8.15883C4.45735 8.37282 4.53557 8.62631 4.73897 8.91931C5.00815 9.28738 5.49867 9.72151 6.21046 10.2216C7.59082 11.1869 9.33148 12.0898 11.5889 12.9301C13.846 13.7705 15.9596 14.3052 17.7742 14.5345C18.7031 14.6455 19.4324 14.6663 19.962 14.5969C20.3545 14.5329 20.6409 14.4182 20.8213 14.2531L20.8473 14.2219L20.8604 14.2115C20.8951 14.1698 20.9211 14.1316 20.9385 14.0969C20.9645 14.0552 20.9819 14.0204 20.9906 13.9927C21.1643 13.4718 20.6083 12.7599 19.3234 11.8571ZM14.9745 10.6279C15.5656 10.9304 15.873 11.2706 15.873 11.8989L16.7976 12.2321L16.6543 12.5135L15.7298 12.1696C15.4618 12.5272 15.0427 12.6637 14.6366 12.7959L14.5447 12.826L13.8547 12.2113C14.1585 12.0723 14.3736 11.9585 14.662 11.7738L13.3859 11.3258C12.712 11.8651 11.7553 11.8926 10.9638 11.5499C10.3701 11.2929 9.6522 10.7589 9.79192 10.034L8.75011 9.65903L8.90641 9.37781L10.0003 9.75281C10.4729 9.34517 10.6809 9.31785 10.9499 9.28253C11.0109 9.27452 11.0751 9.26611 11.1461 9.25275L11.8624 9.8882C11.6078 9.91529 11.3573 10.0225 11.1723 10.2008L12.3572 10.6279C13.1093 9.95083 14.1663 10.197 14.9745 10.6279Z" fill="#EFEFEF"/>
<path d="M4.17929 8.33602L3.03321 10.7945C2.85087 11.3154 3.41945 12.0272 4.73896 12.9301C6.16275 13.9232 8.02495 14.8468 10.3256 15.7011C12.6261 16.5623 14.6967 17.104 16.5371 17.3263C18.2559 17.5555 19.3107 17.4513 19.7014 17.0137L20.8475 14.5658L20.8085 14.5969C20.6262 14.7706 20.3353 14.8887 19.9359 14.9511C19.389 15.0206 18.6424 14.9998 17.6962 14.8887C15.8471 14.6525 13.7721 14.1073 11.4717 13.253C9.17116 12.3918 7.31787 11.4683 5.9115 10.482C5.1823 9.97503 4.67885 9.534 4.40103 9.15897C4.20129 8.86035 4.1232 8.60332 4.16663 8.38804L4.17929 8.33602Z" fill="#EFEFEF"/>
<path d="M4.54395 18.7814C5.30813 20.0443 6.61709 20.8889 8.11518 20.8889C8.49856 20.8889 8.86872 20.8289 9.22222 20.7265L8.90415 19.4434C8.65082 19.5169 8.38925 19.5686 8.11521 19.5686C7.08635 19.5686 6.18312 19.0117 5.63318 18.1657L6.91939 18.5378L7.23581 17.2626L4.48562 16.4673C4.15967 16.3724 3.82416 16.5818 3.73685 16.9337L3 19.9037L4.18095 20.2455L4.54395 18.7814Z" fill="#EFEFEF"/>
</svg>
