<svg width="24" height="24" viewBox="0 0 24 24" fill="none" xmlns="http://www.w3.org/2000/svg">
<path d="M12.5947 7.03932C14.3172 6.35219 16.1343 6.00008 18.0004 6.00008H18.2998L16.4997 3C14.4833 3 12.5463 3.33839 10.7407 3.95015L12.5947 7.03932Z" fill="#EFEFEF"/>
<path d="M13.9734 21L9.19725 13.0388C10.7814 12.8849 12.3294 12.5215 13.8031 11.9694L11.9487 8.87843C10.45 9.39546 8.90993 9.75073 7.34149 9.94625L6.48921 8.52541C8.07925 8.37827 9.64003 8.05675 11.1569 7.55861L9.30367 4.46989C7.30617 5.21777 5.17547 5.62501 3 5.62501L12.2245 21H13.9734Z" fill="#EFEFEF"/>
<path d="M13.3819 8.35172C14.8583 7.79373 16.4081 7.49989 18.0004 7.49989H19.1996L20.9998 10.5C18.9834 10.5 17.0462 10.8375 15.2401 11.4492L13.3819 8.35172Z" fill="#EFEFEF"/>
</svg>
