<svg width="24" height="24" viewBox="0 0 24 24" fill="none" xmlns="http://www.w3.org/2000/svg">
<path fill-rule="evenodd" clip-rule="evenodd" d="M9.6 8.1531L12 10.5469L14.4 8.1531V5C14.4 4.44772 13.9523 4 13.4 4H10.6C10.0477 4 9.6 4.44772 9.6 5V8.1531ZM4 13.4C4 13.9523 4.44772 14.4 5 14.4H8.1531L10.5469 12L8.1531 9.6H5C4.44772 9.6 4 10.0477 4 10.6V13.4ZM13.4531 12L15.8469 14.4H20V10.6C20 10.0477 19.5523 9.6 19 9.6H15.8469L13.4531 12ZM10.7734 14.6765L9.6 15.853V19C9.6 19.5523 10.0477 20 10.6 20H13.4C13.9523 20 14.4 19.5523 14.4 19V15.853L13.2266 14.6765C12.5812 14.0294 12.0292 13.5 12 13.5C11.9708 13.5 11.4188 14.0294 10.7734 14.6765Z" fill="#EFEFEF"/>
</svg>
