<svg width="24" height="24" viewBox="0 0 24 24" fill="none" xmlns="http://www.w3.org/2000/svg">
<path d="M10.2 4C8.21199 4 6.6001 5.61189 6.6001 7.59993C6.6001 9.58776 8.21199 11.1997 10.2 11.1997C12.1881 11.1997 13.8 9.58817 13.8 7.59993C13.8 5.61148 12.1881 4 10.2 4Z" fill="#EFEFEF"/>
<path d="M11.4072 12.9998H6.59993C4.61189 12.9998 3 14.6119 3 16.6V20.1999H16.4785C13.506 20.1884 11.1 17.7755 11.1 14.8C11.1 14.1687 11.2082 13.5629 11.4072 12.9998Z" fill="#EFEFEF"/>
<path fill-rule="evenodd" clip-rule="evenodd" d="M12 14.7999C12 12.3144 14.0146 10.3 16.4999 10.3C18.9854 10.3 21 12.3142 21 14.7997C21 17.2854 18.9854 19.2998 16.4999 19.2998C14.0146 19.2998 12 17.2854 12 14.7999ZM17.1749 15.4747H19.1998V14.1251H17.1749V12.0999H15.8248V14.1251H13.7999V15.4747H15.8248V17.4996H17.1749V15.4747Z" fill="#EFEFEF"/>
</svg>
