<svg width="24" height="24" viewBox="0 0 24 24" fill="none" xmlns="http://www.w3.org/2000/svg">
<path d="M6.10345 18.2069L6.6608 14.7931H3L3.62069 12.931H6.96481L7.77549 7.96552H4.24138L4.86207 6.10345H8.07951L8.58621 3H10.4483L9.94158 6.10345H14.9906L15.4138 3H17.2759L16.8527 6.10345H20.3793L19.7586 7.96552H16.5988L16.3448 9.82759H14.4828L14.7367 7.96552H9.63756L8.82688 12.931H11.069L10.4483 14.7931H8.52286L7.96552 18.2069H6.10345Z" fill="#EFEFEF"/>
<path d="M12.931 11.069C12.5882 11.069 12.3103 11.3468 12.3103 11.6897V17.8966C12.3103 18.2394 12.5882 18.5172 12.931 18.5172H13.8621V21L16.5705 18.5172H21C21.3428 18.5172 21.6207 18.2394 21.6207 17.8966V11.6897C21.6207 11.3468 21.3428 11.069 21 11.069H12.931Z" fill="#EFEFEF"/>
</svg>
