<svg width="24" height="24" viewBox="0 0 24 24" fill="none" xmlns="http://www.w3.org/2000/svg">
<path d="M21 7.63635V8.45452H3V7.63635C3 6.73652 3.73652 6 4.63653 6H19.3638C20.2635 6 21 6.73652 21 7.63635Z" fill="#EFEFEF"/>
<path fill-rule="evenodd" clip-rule="evenodd" d="M3 16.5652V9.99711H21L21 16.5546C21 17.4542 20.2635 18.1908 19.3635 18.1908H12.8183L12.8183 18.207H4.63653C3.73652 18.207 3 17.4679 3 16.5652ZM4.63653 15.744H7.09105V14.1022H4.63653V15.744ZM8.72721 15.744H11.1817V14.1022H8.72721V15.744ZM13.0384 15.744H15.493V14.1022H13.0384V15.744ZM17.1291 15.744H19.5836V14.1022H17.1291V15.744Z" fill="#EFEFEF"/>
</svg>
