<svg width="24" height="24" viewBox="0 0 24 24" fill="none" xmlns="http://www.w3.org/2000/svg">
<path fill-rule="evenodd" clip-rule="evenodd" d="M6 4H12V8C12 10.2092 13.7908 12 16 12H20V18C20 19.1046 19.1046 20 18 20H6C4.89545 20 4 19.1046 4 18V6C4 4.89545 4.89545 4 6 4ZM8 14C8 14.5523 7.55228 15 7 15C6.44772 15 6 14.5523 6 14C6 13.4477 6.44772 13 7 13C7.55228 13 8 13.4477 8 14ZM17 15C17.5523 15 18 14.5523 18 14C18 13.4477 17.5523 13 17 13C16.4477 13 16 13.4477 16 14C16 14.5523 16.4477 15 17 15ZM10.3049 15.2904C9.81512 14.8822 9.5 14.2724 9.5 13.5H10.5C10.5 13.9776 10.6849 14.3053 10.9451 14.5221C11.2168 14.7485 11.5982 14.875 12 14.875C12.4018 14.875 12.7832 14.7485 13.0549 14.5221C13.3151 14.3053 13.5 13.9776 13.5 13.5H14.5C14.5 14.2724 14.1849 14.8822 13.6951 15.2904C13.2168 15.689 12.5982 15.875 12 15.875C11.4018 15.875 10.7832 15.689 10.3049 15.2904Z" fill="#EFEFEF"/>
<path d="M13.5 4.78128V8.33333C13.5 9.52995 14.3954 10.5 15.5 10.5H19.3067C19.6896 10.5 20 10.1637 20 9.74892C20 9.53731 19.9176 9.33551 19.7731 9.19317L14.7063 4.20318C14.5736 4.07244 14.4006 4 14.2212 4C13.8229 4 13.5 4.34979 13.5 4.78128Z" fill="#EFEFEF"/>
</svg>
