<svg width="24" height="24" viewBox="0 0 24 24" fill="none" xmlns="http://www.w3.org/2000/svg">
<path d="M17.6678 9.51449L17.6671 9.51516L14.4852 6.33341L14.4861 6.33273C15.1775 5.6413 16.2035 5.50202 17.0392 5.89915L19.9397 3L21.0003 4.06066L18.1001 6.95891C18.4976 7.79457 18.3599 8.82215 17.6678 9.51449Z" fill="#EFEFEF"/>
<path d="M10.0619 10.7567L13.4246 7.39339L16.6057 10.5749L13.2425 13.9383V17.9995C13.2425 18.767 12.9503 19.535 12.3637 20.1213C11.1912 21.2933 9.29218 21.2924 8.12082 20.1213L6.53006 18.5308L12.1448 12.9158L11.0836 11.8552L5.46962 17.4694L3.87886 15.8784C2.70705 14.7064 2.70705 12.8074 3.87886 11.6356C4.46476 11.0513 5.23315 10.7567 5.99995 10.756L10.0619 10.7567Z" fill="#EFEFEF"/>
</svg>
