<svg width="24" height="24" viewBox="0 0 24 24" fill="none" xmlns="http://www.w3.org/2000/svg">
<path d="M10.4 3H14C14.6597 3 15.2001 3.54018 15.2001 4.20006H9.19994C9.19994 3.54018 9.74029 3 10.4 3Z" fill="#EFEFEF"/>
<path d="M18.1999 5.39994H6.20006C5.54018 5.39994 5 5.94029 5 6.6V7.80006H19.4V6.6C19.4 5.94029 18.8598 5.39994 18.1999 5.39994Z" fill="#EFEFEF"/>
<path fill-rule="evenodd" clip-rule="evenodd" d="M6.20006 8.99994V19.7999C6.20006 20.4598 6.74023 21 7.39994 21H17.0001C17.6598 21 18.1999 20.4598 18.1999 19.7999V8.99994H6.20006ZM9.80006 19.2H8.6V10.7999H9.80006V19.2ZM12.7999 19.2H11.6001V10.7999H12.7999V19.2ZM15.8 19.2H14.5999V10.7999H15.8V19.2Z" fill="#EFEFEF"/>
</svg>
