<svg width="24" height="24" viewBox="0 0 24 24" fill="none" xmlns="http://www.w3.org/2000/svg">
<path d="M5.99993 3V18.75C5.99993 19.1647 5.66467 19.5001 5.25 19.5001C4.83533 19.5001 4.50007 19.1647 4.50007 18.75V7.5H3V18.75C3 19.9922 4.00775 21 5.25 21H18.75C19.9922 21 21 19.9922 21 18.75V3H5.99993ZM8.24993 5.25H15.7501V6.75007H8.24993V5.25ZM8.24993 11.2501H14.25V12.7501H8.24993V11.2501ZM8.24993 14.25H17.2499V15.7501H8.24993V14.25ZM18.75 18.75H8.24993V17.2501H18.75V18.75ZM18.75 9.75H8.24993V8.25015H18.75V9.75Z" fill="#EFEFEF"/>
</svg>
