<svg width="24" height="24" viewBox="0 0 24 24" fill="none" xmlns="http://www.w3.org/2000/svg">
<path d="M18.205 6.16282C17.0441 5.62566 15.7992 5.22991 14.4976 5.00324C14.4739 4.99887 14.4502 5.0098 14.438 5.03167C14.2779 5.31882 14.1006 5.69344 13.9764 5.98789C12.5764 5.77653 11.3975 5.77398 10.0262 5.98534C9.902 5.68434 9.71822 5.31627 9.5574 5.02912C9.54519 5.00798 9.52151 4.99705 9.49781 5.00069C8.19693 5.22663 6.95206 5.62238 5.79045 6.16027C5.7804 6.16464 5.77178 6.17193 5.76606 6.1814C3.4048 9.73883 2.75795 13.2088 3.07527 16.6358C3.0767 16.6526 3.08604 16.6686 3.09896 16.6788C4.65685 17.8325 6.16594 18.5329 7.647 18.9972C7.67071 19.0045 7.69582 18.9957 7.71091 18.9761C8.06125 18.4936 8.37355 17.9849 8.64132 17.4499C8.65712 17.4186 8.64204 17.3814 8.60974 17.369C8.11438 17.1795 7.64269 16.9484 7.18897 16.6861C7.15308 16.6649 7.1502 16.6132 7.18322 16.5884C7.2787 16.5162 7.37421 16.4412 7.46538 16.3654C7.48187 16.3515 7.50486 16.3486 7.52425 16.3574C10.5051 17.7298 13.5183 17.7323 16.464 16.3599C16.4834 16.3504 16.5064 16.3534 16.5236 16.3672C16.6148 16.443 16.7102 16.5188 16.8064 16.5909C16.8395 16.6157 16.8373 16.6675 16.8014 16.6886C16.3477 16.9561 15.876 17.182 15.3799 17.3708C15.3476 17.3832 15.3333 17.4211 15.3491 17.4524C15.6226 17.9867 15.9349 18.4954 16.2788 18.9779C16.2931 18.9983 16.319 19.007 16.3427 18.9997C17.8309 18.5355 19.34 17.8351 20.8979 16.6813C20.9115 16.6711 20.9201 16.6558 20.9216 16.6391C21.3013 12.6771 20.2855 9.23558 18.2286 6.18467C18.2236 6.17448 18.215 6.16719 18.205 6.16282ZM9.08646 14.5491C8.18903 14.5491 7.44958 13.7183 7.44958 12.6979C7.44958 11.6775 8.17469 10.8467 9.08646 10.8467C10.0054 10.8467 10.7377 11.6848 10.7233 12.6979C10.7233 13.7183 9.9982 14.5491 9.08646 14.5491ZM14.9248 14.5517C14.0274 14.5517 13.2879 13.7208 13.2879 12.7004C13.2879 11.6801 14.013 10.8492 14.9248 10.8492C15.8437 10.8492 16.576 11.6874 16.5616 12.7004C16.5616 13.7208 15.8437 14.5517 14.9248 14.5517Z" fill="#EFEFEF"/>
</svg>
