<svg width="24" height="25" viewBox="0 0 24 25" fill="none" xmlns="http://www.w3.org/2000/svg">
<path fill-rule="evenodd" clip-rule="evenodd" d="M21 12.2803C21 17.2509 16.9706 21.2803 12 21.2803C7.02944 21.2803 3 17.2509 3 12.2803C3 7.30974 7.02944 3.2803 12 3.2803C16.9706 3.2803 21 7.30974 21 12.2803ZM19.5 12.2803C19.5 16.4224 16.1421 19.7803 12 19.7803C10.1991 19.7803 8.54644 19.1456 7.25355 18.0876L17.8073 7.53385C18.8653 8.82674 19.5 10.4794 19.5 12.2803ZM6.19287 17.0269L16.7466 6.47317C15.4537 5.41511 13.801 4.7803 12 4.7803C7.85786 4.7803 4.5 8.13817 4.5 12.2803C4.5 14.0813 5.13481 15.734 6.19287 17.0269Z" fill="#EFEFEF"/>
</svg>
