<svg width="24" height="24" viewBox="0 0 24 24" fill="none" xmlns="http://www.w3.org/2000/svg">
<path d="M17.3648 9.5897C17.3429 9.40318 17.182 9.27884 16.9991 9.29713L14.7353 9.52752C14.5525 9.54581 14.4245 9.70672 14.4428 9.88592C14.4611 10.0724 14.6146 10.2041 14.8012 10.1858L17.0686 9.95541C17.2514 9.93712 17.3831 9.77255 17.3648 9.5897Z" fill="#EFEFEF"/>
<path d="M12.1351 11.5133C12.1351 12.0765 11.678 12.5337 11.1148 12.5337C10.5516 12.5337 10.0944 12.0765 10.0944 11.5133C10.0944 10.9502 10.5516 10.493 11.1148 10.493C11.678 10.493 12.1351 10.9502 12.1351 11.5133Z" fill="#EFEFEF"/>
<path d="M15.8983 12.5337C16.4615 12.5337 16.9186 12.0765 16.9186 11.5133C16.9186 10.9502 16.4615 10.493 15.8983 10.493C15.3351 10.493 14.878 10.9502 14.878 11.5133C14.878 12.0765 15.3351 12.5337 15.8983 12.5337Z" fill="#EFEFEF"/>
<path d="M12.5813 9.88593C12.5996 9.70673 12.4716 9.54581 12.2887 9.52753L10.0213 9.29713C9.83478 9.27884 9.67387 9.40684 9.65558 9.5897C9.63364 9.77621 9.7653 9.93712 9.95181 9.95541L12.2229 10.1858C12.4057 10.2041 12.563 10.0688 12.5813 9.88593Z" fill="#EFEFEF"/>
<path fill-rule="evenodd" clip-rule="evenodd" d="M17.1673 5H9.84941C7.77582 5 6.0716 6.67131 6.0204 8.73759C5.4572 8.06102 4.67823 7.52708 3.92486 7.04068C3.91755 7.03702 3.91023 7.03336 3.90292 7.03336C3.89195 7.03336 3.88464 7.03336 3.87366 7.03702C3.85538 7.04434 3.84441 7.05531 3.84075 7.07359C3.63229 7.75016 3.35435 8.4121 3.00692 9.03016C2.99961 9.04479 2.99595 9.06673 3.00692 9.08136C3.01424 9.09598 3.03252 9.11061 3.05081 9.11061C4.01264 9.21301 4.95983 9.4361 5.8668 9.78352C4.95983 10.1273 4.01264 10.354 3.05081 10.4564C3.03252 10.4564 3.01424 10.4674 3.00692 10.4857C2.99961 10.5003 2.99961 10.5223 3.00692 10.5369C3.3507 11.1549 3.63229 11.8169 3.84075 12.4935C3.84441 12.5117 3.85904 12.5227 3.87366 12.53C3.88464 12.5337 3.89195 12.5337 3.90292 12.5337C3.91023 12.5337 3.91755 12.53 3.92486 12.5264C4.67457 12.0436 5.45355 11.5097 6.01674 10.8331V16.1579C6.01674 18.2644 7.73925 19.9906 9.84941 19.9906H17.1673C19.2738 19.9906 21 18.2681 21 16.1579V8.82902C20.9963 6.72251 19.2738 5 17.1673 5ZM19.8773 12.6617C19.8773 14.0185 18.7655 15.1302 17.4087 15.1302H17.0839C15.5677 14.9005 14.8158 14.0331 14.8158 14.0331C14.8158 14.0331 13.6309 12.7531 12.3034 14.0331C11.5326 14.7762 10.7089 15.0398 10.1535 15.1302H9.5093C8.15251 15.1302 7.04074 14.0185 7.04074 12.6617V10.3431C7.04074 8.98627 8.15251 7.8745 9.5093 7.8745H17.4087C18.7655 7.8745 19.8773 8.98627 19.8773 10.3431V12.6617Z" fill="#EFEFEF"/>
</svg>
