<svg width="24" height="24" viewBox="0 0 24 24" fill="none" xmlns="http://www.w3.org/2000/svg">
<path d="M10.8572 10.7144H13.4288C15.5584 10.7144 17.286 12.442 17.286 14.5716C17.286 16.7012 15.558 18.4261 13.4288 18.4288V21H10.8572V18.4288C8.7276 18.4288 7 16.7012 7 14.5716H9.57159C9.57159 15.2821 10.1467 15.8572 10.8572 15.8572H13.4261C14.1369 15.8572 14.7121 15.2821 14.7121 14.5716H14.7144C14.7144 13.8607 14.1397 13.2856 13.4288 13.2856H10.8572C8.7276 13.2856 7 11.558 7 9.42841C7 7.29806 8.7276 5.57121 10.8572 5.57121V3H13.4288V5.57121C15.5584 5.57121 17.286 7.29881 17.286 9.42841H14.7144C14.7144 8.71792 14.1397 8.1428 13.4288 8.1428H10.8572C10.1467 8.1428 9.57159 8.71792 9.57159 9.42841C9.57159 10.1393 10.1467 10.7144 10.8572 10.7144Z" fill="#EFEFEF"/>
</svg>
