<svg width="24" height="25" viewBox="0 0 24 25" fill="none" xmlns="http://www.w3.org/2000/svg">
<path fill-rule="evenodd" clip-rule="evenodd" d="M6 7.31155H5C4.72386 7.31155 4.5 7.53541 4.5 7.81155V8.81155C4.5 9.0877 4.72386 9.31155 5 9.31155H6C6.27614 9.31155 6.5 9.0877 6.5 8.81155V7.81155C6.5 7.53541 6.27614 7.31155 6 7.31155ZM5 5.81155C3.89543 5.81155 3 6.70698 3 7.81155V8.81155C3 9.91612 3.89543 10.8116 5 10.8116H6C7.10457 10.8116 8 9.91612 8 8.81155V7.81155C8 6.70698 7.10457 5.81155 6 5.81155H5Z" fill="#EFEFEF"/>
<path fill-rule="evenodd" clip-rule="evenodd" d="M6 15.2491H5C4.72386 15.2491 4.5 15.4729 4.5 15.7491V16.7491C4.5 17.0252 4.72386 17.2491 5 17.2491H6C6.27614 17.2491 6.5 17.0252 6.5 16.7491V15.7491C6.5 15.4729 6.27614 15.2491 6 15.2491ZM5 13.7491C3.89543 13.7491 3 14.6445 3 15.7491V16.7491C3 17.8536 3.89543 18.7491 5 18.7491H6C7.10457 18.7491 8 17.8536 8 16.7491V15.7491C8 14.6445 7.10457 13.7491 6 13.7491H5Z" fill="#EFEFEF"/>
<path fill-rule="evenodd" clip-rule="evenodd" d="M19 17.7803H18C17.7239 17.7803 17.5 18.0042 17.5 18.2803V19.2803C17.5 19.5564 17.7239 19.7803 18 19.7803H19C19.2761 19.7803 19.5 19.5564 19.5 19.2803V18.2803C19.5 18.0042 19.2761 17.7803 19 17.7803ZM18 16.2803C16.8954 16.2803 16 17.1757 16 18.2803V19.2803C16 20.3849 16.8954 21.2803 18 21.2803H19C20.1046 21.2803 21 20.3849 21 19.2803V18.2803C21 17.1757 20.1046 16.2803 19 16.2803H18Z" fill="#EFEFEF"/>
<path fill-rule="evenodd" clip-rule="evenodd" d="M19 4.7803H18C17.7239 4.7803 17.5 5.00416 17.5 5.2803V6.2803C17.5 6.55645 17.7239 6.7803 18 6.7803H19C19.2761 6.7803 19.5 6.55645 19.5 6.2803V5.2803C19.5 5.00416 19.2761 4.7803 19 4.7803ZM18 3.2803C16.8954 3.2803 16 4.17573 16 5.2803V6.2803C16 7.38487 16.8954 8.2803 18 8.2803H19C20.1046 8.2803 21 7.38487 21 6.2803V5.2803C21 4.17573 20.1046 3.2803 19 3.2803H18Z" fill="#EFEFEF"/>
<path fill-rule="evenodd" clip-rule="evenodd" d="M10.9148 7.56155C11.0263 6.14504 12.2111 5.0303 13.6562 5.0303H15V6.5303H13.6562C12.9659 6.5303 12.4062 7.08995 12.4062 7.7803V16.7803C12.4062 17.4707 12.9659 18.0303 13.6562 18.0303H15V19.5303H13.6562C12.2005 19.5303 11.0089 18.3991 10.9125 16.9678H7.65625V15.4678H10.9062V9.06155H7.65625V7.56155H10.9148Z" fill="#EFEFEF"/>
</svg>
