<svg width="24" height="24" viewBox="0 0 24 24" fill="none" xmlns="http://www.w3.org/2000/svg">
<path d="M15.2858 10.3749L9.10804 16.5514L8.22338 21H4.41677C3.63433 21 3 20.3657 3 19.5832V5.41507C3 4.63348 3.63433 4 4.41677 4H9.37516V8.95817C9.37516 9.73998 10.0093 10.3749 10.7917 10.3749H15.2858Z" fill="#EFEFEF"/>
<path d="M15.7501 8.95817L10.7917 4V8.95817H15.7501Z" fill="#EFEFEF"/>
<path d="M19.7938 12.8789L17.7905 10.8743C17.5151 10.5989 17.0642 10.5989 16.789 10.8756L10.4138 17.2493L9.66835 21L13.4189 20.2543L19.7938 13.8806C20.0692 13.6052 20.0692 13.1543 19.7938 12.8789Z" fill="#EFEFEF"/>
</svg>
