<svg width="24" height="24" viewBox="0 0 24 24" fill="none" xmlns="http://www.w3.org/2000/svg">
<path fill-rule="evenodd" clip-rule="evenodd" d="M13.698 4.57047C13.698 4.37031 13.5357 4.20805 13.3356 4.20805H5.57047C5.37031 4.20805 5.20805 4.37031 5.20805 4.57047V15.2013C5.20805 15.4015 5.37031 15.5638 5.57047 15.5638H7.53691C7.87051 15.5638 8.14094 15.8342 8.14094 16.1678C8.14094 16.5014 7.87051 16.7718 7.53691 16.7718H5.57047C4.70312 16.7718 4 16.0687 4 15.2013V4.57047C4 3.70312 4.70312 3 5.57047 3H13.3356C14.2029 3 14.906 3.70312 14.906 4.57047V6.50336C14.906 6.83695 14.6356 7.10738 14.302 7.10738C13.9684 7.10738 13.698 6.83695 13.698 6.50336V4.57047ZM20.1678 9.40268C20.1678 8.86893 19.7351 8.43624 19.2013 8.43624H10.4362C9.90249 8.43624 9.4698 8.86893 9.4698 9.40268V20.0336C9.4698 20.5673 9.90249 21 10.4362 21H19.2013C19.7351 21 20.1678 20.5673 20.1678 20.0336V9.40268ZM14.8188 11.8188C14.5519 11.8188 14.3356 12.0351 14.3356 12.302V14.2349H12.4027C12.1358 14.2349 11.9195 14.4512 11.9195 14.7181C11.9195 14.985 12.1358 15.2013 12.4027 15.2013H14.3356V17.1342C14.3356 17.4011 14.5519 17.6175 14.8188 17.6175C15.0857 17.6175 15.302 17.4011 15.302 17.1342V15.2013H17.2349C17.5018 15.2013 17.7181 14.985 17.7181 14.7181C17.7181 14.4512 17.5018 14.2349 17.2349 14.2349H15.302V12.302C15.302 12.0351 15.0857 11.8188 14.8188 11.8188Z" fill="#EFEFEF"/>
</svg>
