<svg width="24" height="25" viewBox="0 0 24 25" fill="none" xmlns="http://www.w3.org/2000/svg">
<path d="M12.001 4C7.58112 4 4 7.5824 4 11.999C4 16.4176 7.58112 20 12.001 20C16.4198 20 20 16.4176 20 11.999C20 7.5824 16.4198 4 12.001 4ZM7.73344 10.1334C7.73344 9.39712 8.33024 8.8 9.06688 8.8C9.8032 8.8 10.4 9.3968 10.4 10.1334C10.4 10.8701 9.8032 11.4669 9.06656 11.4669C8.33024 11.4666 7.73344 10.8698 7.73344 10.1334ZM8.26656 14.3062L8.97312 13.6C11.0038 14.552 13.1152 14.4989 15.0294 13.6019L15.7334 14.3062C13.672 17.151 10.3293 17.151 8.26656 14.3062ZM14.9334 11.4666C14.1971 11.4666 13.6 10.8698 13.6 10.1331C13.6 9.3968 14.1968 8.8 14.9334 8.8C15.6701 8.8 16.2669 9.3968 16.2669 10.1334C16.2666 10.8698 15.6698 11.4666 14.9334 11.4666Z" fill="#EFEFEF"/>
</svg>
