<svg width="24" height="24" viewBox="0 0 24 24" fill="none" xmlns="http://www.w3.org/2000/svg">
<path d="M20.5506 9.18381C19.3685 5.59255 15.987 3 12 3C7.02943 3 3 7.02943 3 12C3 13.7579 3.50397 15.3981 4.37534 16.784C4.50556 16.9911 4.73721 17.11 4.98175 17.1033C5.3286 17.0938 5.6776 17.0758 6.02841 17.049C6.40432 17.0203 6.68852 16.7025 6.68852 16.3255V11.5574C6.68852 11.15 7.0188 10.8197 7.42623 10.8197H8.7541C9.16153 10.8197 9.4918 11.15 9.4918 11.5574V16.5048C9.65898 16.4649 9.82514 16.4233 9.99026 16.3798C10.3079 16.2963 10.5246 16.0063 10.5246 15.6779V9.63934C10.5246 9.23192 10.8549 8.90164 11.2623 8.90164H12.5902C12.9976 8.90164 13.3279 9.23192 13.3279 9.63934V15.2085C13.5403 15.1137 13.7502 15.0159 13.9575 14.9152C14.2063 14.7942 14.3607 14.5398 14.3607 14.2632V7.72131C14.3607 7.31389 14.6909 6.98361 15.0984 6.98361H16.4262C16.8337 6.98361 17.1639 7.31389 17.1639 7.72131V12.9722C18.4227 12.0348 19.5225 10.9737 20.4333 9.82554C20.5771 9.64426 20.6229 9.4036 20.5506 9.18381Z" fill="#EFEFEF"/>
<path d="M9.29038 18.8294C8.4096 19.0247 7.53281 19.1638 6.6658 19.2496C8.15857 20.3498 10.0033 21 12 21C16.9706 21 21 16.9706 21 12C21 11.8452 20.9961 11.6913 20.9884 11.5384C18.4944 14.9723 14.3428 17.7093 9.29038 18.8294Z" fill="#EFEFEF"/>
</svg>
