<svg width="24" height="24" viewBox="0 0 24 24" fill="none" xmlns="http://www.w3.org/2000/svg">
<path fill-rule="evenodd" clip-rule="evenodd" d="M12 20C16.4183 20 20 16.4183 20 12C20 7.58172 16.4183 4 12 4C7.58172 4 4 7.58172 4 12C4 16.4183 7.58172 20 12 20ZM11.3295 8.3295C11.1185 8.54048 11 8.82663 11 9.125V12.5C11 12.7984 11.1185 13.0845 11.3295 13.2955C11.5405 13.5065 11.8266 13.625 12.125 13.625C12.4234 13.625 12.7095 13.5065 12.9205 13.2955C13.1315 13.0845 13.25 12.7984 13.25 12.5V9.125C13.25 8.82663 13.1315 8.54048 12.9205 8.3295C12.7095 8.11853 12.4234 8 12.125 8C11.8266 8 11.5405 8.11853 11.3295 8.3295ZM11.5 16.8104C11.685 16.934 11.9025 17 12.125 17C12.4234 17 12.7095 16.8815 12.9205 16.6705C13.1315 16.4595 13.25 16.1734 13.25 15.875C13.25 15.6525 13.184 15.435 13.0604 15.25C12.9368 15.065 12.7611 14.9208 12.5555 14.8356C12.35 14.7505 12.1238 14.7282 11.9055 14.7716C11.6873 14.815 11.4868 14.9222 11.3295 15.0795C11.1722 15.2368 11.065 15.4373 11.0216 15.6555C10.9782 15.8738 11.0005 16.1 11.0856 16.3055C11.1708 16.5111 11.315 16.6868 11.5 16.8104Z" fill="#EFEFEF"/>
</svg>
