<svg width="24" height="24" viewBox="0 0 24 24" fill="none" xmlns="http://www.w3.org/2000/svg">
<path fill-rule="evenodd" clip-rule="evenodd" d="M8.0104 6.79664L5.26849 4L4 5.24367L18.5122 20.0455L19.7807 18.8018L17.7353 16.7156C20.0679 14.969 20.8932 12.587 20.9051 12.549L21 12.2662L20.906 11.9833C20.8863 11.9233 18.8328 6 12 6C10.4284 6 9.1097 6.31335 8.0104 6.79664ZM9.37283 8.18626L10.9538 9.79881C11.2815 9.65852 11.6368 9.58306 12 9.58066C13.469 9.58066 14.6855 10.7972 14.6855 12.2662C14.6855 12.6553 14.6002 13.0266 14.4476 13.3623L16.4797 15.435C18.0619 14.3479 18.8269 12.8824 19.0951 12.2662C18.6457 11.2331 16.79 7.79033 12 7.79033C11.0014 7.79033 10.1303 7.93998 9.37283 8.18626Z" fill="#EFEFEF"/>
<path d="M5.08014 8.87487C3.64448 10.3936 3.10449 11.9527 3.09489 11.9833L3 12.2662L3.09399 12.549C3.11369 12.609 5.1672 18.5323 12 18.5323C12.8395 18.5323 13.6068 18.4429 14.3071 18.286L12.7636 16.7117C12.5178 16.7316 12.2633 16.742 12 16.742C7.20997 16.742 5.35429 13.2992 4.90491 12.2662C5.09332 11.8333 5.52683 10.9814 6.31652 10.1359L5.08014 8.87487Z" fill="#EFEFEF"/>
</svg>
