<svg width="24" height="24" viewBox="0 0 24 24" fill="none" xmlns="http://www.w3.org/2000/svg">
<path d="M10.1063 10.3724C10.6089 9.8698 11.2892 9.58536 12 9.58066C13.469 9.58066 14.6855 10.7972 14.6855 12.2662C14.6855 13.736 13.469 14.9517 12 14.9517C10.5302 14.9517 9.31452 13.736 9.31452 12.2662C9.31921 11.5554 9.60365 10.875 10.1063 10.3724Z" fill="#EFEFEF"/>
<path fill-rule="evenodd" clip-rule="evenodd" d="M3.09489 11.9833C3.11369 11.9233 5.1672 6 12 6C18.8328 6 20.8863 11.9233 20.906 11.9833L21 12.2662L20.9051 12.549C20.8863 12.609 18.8328 18.5323 12 18.5323C5.1672 18.5323 3.11369 12.609 3.09399 12.549L3 12.2662L3.09489 11.9833ZM4.90491 12.2662C5.35429 13.2992 7.20997 16.742 12 16.742C16.7873 16.742 18.6439 13.3028 19.0951 12.2662C18.6457 11.2331 16.79 7.79033 12 7.79033C7.21265 7.79033 5.35608 11.2296 4.90491 12.2662Z" fill="#EFEFEF"/>
</svg>
