<svg width="24" height="24" viewBox="0 0 24 24" fill="none" xmlns="http://www.w3.org/2000/svg">
<path d="M21 5.63636V7.27273C21 7.70672 20.8276 8.12293 20.5207 8.42981C20.2138 8.73669 19.7976 8.90909 19.3636 8.90909C18.9296 8.90909 18.5134 8.73669 18.2066 8.42981C17.8997 8.12293 17.7273 7.70672 17.7273 7.27273V5.63636C17.7273 5.20237 17.8997 4.78616 18.2066 4.47928C18.5134 4.1724 18.9296 4 19.3636 4C19.7976 4 20.2138 4.1724 20.5207 4.47928C20.8276 4.78616 21 5.20237 21 5.63636ZM3.81818 7.27273H15.2727C15.4897 7.27273 15.6978 7.18653 15.8513 7.03309C16.0047 6.87965 16.0909 6.67154 16.0909 6.45455C16.0909 6.23755 16.0047 6.02944 15.8513 5.876C15.6978 5.72256 15.4897 5.63636 15.2727 5.63636H3.81818C3.60119 5.63636 3.39308 5.72256 3.23964 5.876C3.0862 6.02944 3 6.23755 3 6.45455C3 6.67154 3.0862 6.87965 3.23964 7.03309C3.39308 7.18653 3.60119 7.27273 3.81818 7.27273ZM20.1818 11.3636H12C11.783 11.3636 11.5749 11.4498 11.4215 11.6033C11.268 11.7567 11.1818 11.9648 11.1818 12.1818C11.1818 12.3988 11.268 12.6069 11.4215 12.7604C11.5749 12.9138 11.783 13 12 13H20.1818C20.3988 13 20.6069 12.9138 20.7604 12.7604C20.9138 12.6069 21 12.3988 21 12.1818C21 11.9648 20.9138 11.7567 20.7604 11.6033C20.6069 11.4498 20.3988 11.3636 20.1818 11.3636ZM3.81818 13H6.27273C6.27273 13.434 6.44513 13.8502 6.75201 14.1571C7.05888 14.464 7.4751 14.6364 7.90909 14.6364C8.34308 14.6364 8.7593 14.464 9.06617 14.1571C9.37305 13.8502 9.54545 13.434 9.54545 13V11.3636C9.54545 10.9296 9.37305 10.5134 9.06617 10.2066C8.7593 9.89968 8.34308 9.72727 7.90909 9.72727C7.4751 9.72727 7.05888 9.89968 6.75201 10.2066C6.44513 10.5134 6.27273 10.9296 6.27273 11.3636H3.81818C3.60119 11.3636 3.39308 11.4498 3.23964 11.6033C3.0862 11.7567 3 11.9648 3 12.1818C3 12.3988 3.0862 12.6069 3.23964 12.7604C3.39308 12.9138 3.60119 13 3.81818 13ZM12 17.0909H3.81818C3.60119 17.0909 3.39308 17.1771 3.23964 17.3305C3.0862 17.484 3 17.6921 3 17.9091C3 18.1261 3.0862 18.3342 3.23964 18.4876C3.39308 18.6411 3.60119 18.7273 3.81818 18.7273H12C12.217 18.7273 12.4251 18.6411 12.5785 18.4876C12.732 18.3342 12.8182 18.1261 12.8182 17.9091C12.8182 17.6921 12.732 17.484 12.5785 17.3305C12.4251 17.1771 12.217 17.0909 12 17.0909ZM20.1818 17.0909H17.7273C17.7273 16.6569 17.5549 16.2407 17.248 15.9338C16.9411 15.6269 16.5249 15.4545 16.0909 15.4545C15.6569 15.4545 15.2407 15.6269 14.9338 15.9338C14.6269 16.2407 14.4545 16.6569 14.4545 17.0909V18.7273C14.4545 19.1613 14.6269 19.5775 14.9338 19.8844C15.2407 20.1912 15.6569 20.3636 16.0909 20.3636C16.5249 20.3636 16.9411 20.1912 17.248 19.8844C17.5549 19.5775 17.7273 19.1613 17.7273 18.7273H20.1818C20.3988 18.7273 20.6069 18.6411 20.7604 18.4876C20.9138 18.3342 21 18.1261 21 17.9091C21 17.6921 20.9138 17.484 20.7604 17.3305C20.6069 17.1771 20.3988 17.0909 20.1818 17.0909Z" fill="#EFEFEF"/>
</svg>
