<svg width="24" height="24" viewBox="0 0 24 24" fill="none" xmlns="http://www.w3.org/2000/svg">
<path d="M11.3794 12.4507L10.6943 10.4509C9.80277 11.3215 8.80414 12.0648 7.72996 12.6684L6.81541 9.99857C7.88117 9.36233 8.87099 8.61968 9.77948 7.77945L9.35901 6.55228C8.46858 7.42986 7.48852 8.20193 6.42487 8.85861L5.51109 6.1906C6.96675 5.37225 8.28571 4.30228 9.38348 3L12 10.6388L14.6165 3C15.7143 4.30228 17.0332 5.37225 18.4889 6.1906L17.5751 8.85861C16.5115 8.20193 15.5314 7.42986 14.641 6.55228L14.2205 7.77945C15.129 8.61968 16.1188 9.36233 17.1846 9.99857L16.27 12.6684C15.1959 12.0648 14.1972 11.3215 13.3057 10.4509L12.6206 12.4507L14.8825 19.4531L14 20.5L12 14.2625L10.266 20.5L9.38348 19.4531L11.3794 12.4507Z" fill="#EFEFEF"/>
<path d="M5.38852 9.45722C4.10797 10.1416 2.98028 11.0517 2.03862 12.1688L1.88751 12.348L1 9.75653C2.0175 8.54948 3.19749 7.56072 4.47482 6.78857L5.38852 9.45722Z" fill="#EFEFEF"/>
<path d="M2.93644 12.9256C3.73992 11.9724 4.69785 11.193 5.77689 10.5907L6.69342 13.2661C5.41586 14.0386 4.2363 15.0279 3.2188 16.235L2.3313 13.6435L2.93644 12.9256Z" fill="#EFEFEF"/>
<path d="M18.6115 9.45722C19.892 10.1416 21.0197 11.0517 21.9614 12.1688L22.1125 12.348L23 9.75653C21.9825 8.54948 20.8025 7.56072 19.5252 6.78857L18.6115 9.45722Z" fill="#EFEFEF"/>
<path d="M21.0636 12.9256C20.2601 11.9724 19.3021 11.193 18.2231 10.5907L17.3066 13.2661C18.5841 14.0386 19.7637 15.0279 20.7812 16.235L21.6687 13.6435L21.0636 12.9256Z" fill="#EFEFEF"/>
</svg>
