<svg width="24" height="25" viewBox="0 0 24 25" fill="none" xmlns="http://www.w3.org/2000/svg">
<path d="M18.9908 8.50177C18.9671 8.40675 18.9151 8.31917 18.8349 8.23896C18.7488 8.15286 18.6575 8.09873 18.561 8.07639C18.4644 8.05424 18.3835 8.07569 18.3182 8.14098L17.1245 9.3347L16.3673 8.57751L17.0354 7.90938C17.1037 7.84113 17.129 7.76236 17.1111 7.67331C17.0934 7.58418 17.0504 7.50557 16.982 7.4372C16.9078 7.36303 16.8253 7.31771 16.7348 7.3014C16.6441 7.2851 16.5662 7.30958 16.5009 7.37487L15.8328 8.043L15.08 7.29016L16.2737 6.09646C16.339 6.0311 16.3606 5.95026 16.3383 5.85371C16.3161 5.75728 16.2619 5.66592 16.1758 5.57978C16.0956 5.49953 16.008 5.44767 15.9129 5.42383C15.8179 5.4002 15.7363 5.42244 15.668 5.49069L14.0823 7.07641C13.9992 7.15953 13.9465 7.24941 13.9242 7.34589C13.9019 7.44251 13.925 7.52478 13.9932 7.5931L16.8217 10.4216C16.8901 10.49 16.9724 10.513 17.0688 10.4906C17.1654 10.4684 17.2551 10.4157 17.3383 10.3325L18.924 8.74677C18.9922 8.67852 19.0146 8.59688 18.9908 8.50177Z" fill="#EFEFEF"/>
<path d="M16.5899 10.9026C16.5662 10.8076 16.5142 10.72 16.434 10.6398C16.3479 10.5537 16.2566 10.4995 16.1601 10.4772C16.0635 10.455 15.9826 10.4766 15.9174 10.5418L14.7236 11.7356L13.9664 10.9784L14.6346 10.3102C14.7028 10.2419 14.7281 10.1632 14.7103 10.0741C14.6925 9.98497 14.6495 9.90636 14.5811 9.838C14.507 9.76385 14.4244 9.71852 14.3339 9.70216C14.2433 9.68588 14.1653 9.7104 14.1001 9.77562L13.4319 10.4438L12.6791 9.69098L13.8728 8.49722C13.9381 8.43192 13.9597 8.35102 13.9375 8.25447C13.9152 8.15803 13.861 8.06667 13.7749 7.98053C13.6947 7.90028 13.6072 7.84842 13.512 7.82458C13.4171 7.80095 13.3354 7.82319 13.2671 7.89145L11.6814 9.47716C11.5984 9.56035 11.5456 9.65016 11.5233 9.74664C11.5011 9.84326 11.5241 9.92553 11.5924 9.99385L14.4208 12.8223C14.4892 12.8907 14.5715 12.9138 14.668 12.8914C14.7645 12.8692 14.8542 12.8164 14.9374 12.7332L16.5231 11.1475C16.5914 11.0793 16.6137 10.9977 16.5899 10.9026Z" fill="#EFEFEF"/>
<path fill-rule="evenodd" clip-rule="evenodd" d="M13.9576 13.0451C13.925 13.0124 13.8909 12.9931 13.8552 12.9872L12.3274 12.5461C12.5471 12.0474 12.4254 11.5662 11.9621 11.103C11.3267 10.4676 10.6436 10.5151 9.91316 11.2456L8.99106 12.1677C8.9287 12.23 8.89828 12.3019 8.89977 12.3837C8.90125 12.4654 8.93023 12.5344 8.98661 12.5908L11.8195 15.4237C11.8879 15.4921 11.9747 15.5107 12.0801 15.4794C12.1855 15.4483 12.2857 15.3851 12.3807 15.2901C12.4757 15.1951 12.5388 15.095 12.5701 14.9895C12.6012 14.8841 12.5827 14.7973 12.5143 14.7289L11.4409 13.6555L11.7349 13.3615L13.53 13.9361C13.6606 13.9777 13.7779 13.9465 13.8818 13.8425C13.9858 13.7386 14.046 13.6013 14.0622 13.4304C14.0787 13.2596 14.0437 13.1312 13.9576 13.0451ZM11.3475 12.6798L10.9064 13.1208L10.078 12.2923L10.519 11.8513C10.6496 11.7207 10.7811 11.6532 10.9132 11.6487C11.0454 11.6443 11.1856 11.7162 11.3341 11.8646C11.4827 12.0132 11.5546 12.1535 11.5501 12.2856C11.5456 12.4178 11.4781 12.5491 11.3475 12.6798Z" fill="#EFEFEF"/>
<path d="M9.0712 15.8736L10.2204 17.0228C10.2888 17.0912 10.3073 17.178 10.2761 17.2835C10.2449 17.3889 10.1818 17.489 10.0868 17.5841C9.99172 17.6792 9.89155 17.7423 9.78618 17.7734C9.68077 17.8045 9.59398 17.786 9.52557 17.7176L6.69711 14.8892C6.62884 14.8208 6.6058 14.7386 6.6281 14.6419C6.65034 14.5455 6.70305 14.4556 6.78622 14.3724L8.33185 12.8268C8.40012 12.7585 8.48176 12.7363 8.57672 12.7599C8.67183 12.7838 8.75941 12.8357 8.83956 12.9159C8.92571 13.002 8.97991 13.0934 9.00215 13.1899C9.02444 13.2863 9.00284 13.3672 8.93755 13.4325L7.78386 14.5862L8.53669 15.339L9.20927 14.6665C9.27451 14.6012 9.35248 14.5767 9.44309 14.5931C9.53359 14.6094 9.61612 14.6547 9.69028 14.7289C9.75864 14.7972 9.80164 14.8759 9.81943 14.965C9.83726 15.0541 9.81204 15.1328 9.74378 15.201L9.0712 15.8736Z" fill="#EFEFEF"/>
<path fill-rule="evenodd" clip-rule="evenodd" d="M21.971 10.0011L21.0181 4.73034C20.8837 3.98659 20.2937 3.39659 19.55 3.26217L14.2792 2.30928C13.6921 2.20331 13.0894 2.39171 12.6675 2.81367L2.53247 12.9486C1.8225 13.6587 1.8225 14.814 2.53251 15.5242L8.75607 21.7478C9.11115 22.1028 9.57748 22.2803 10.0439 22.2803C10.5103 22.2803 10.9766 22.1028 11.3317 21.7478L21.4666 11.6129C21.8887 11.1909 22.0772 10.5883 21.971 10.0011ZM20.6372 10.7834L10.5023 20.9184C10.2495 21.1712 9.83826 21.1712 9.58553 20.9184L3.36196 14.6947C3.10919 14.442 3.10919 14.0307 3.36192 13.778L13.4969 3.64303C13.6195 3.52042 13.785 3.45319 13.9554 3.45319C13.9821 3.45319 14.009 3.45484 14.0358 3.45818C14.0474 3.45964 14.059 3.46141 14.0706 3.46351L19.3414 4.41644C19.606 4.46424 19.816 4.6743 19.8639 4.93901L20.8168 10.2097C20.8546 10.4187 20.7875 10.6332 20.6372 10.7834Z" fill="#EFEFEF"/>
</svg>
