<svg width="24" height="24" viewBox="0 0 24 24" fill="none" xmlns="http://www.w3.org/2000/svg">
<path d="M8.14737 4.00787L5.27286 4.58277C5.0988 4.60759 4.9375 4.68822 4.81318 4.81254C4.68886 4.93686 4.60824 5.09816 4.58342 5.27221L4.00852 8.14672C3.99308 8.25252 3.99867 8.36033 4.02496 8.46397C4.05126 8.5676 4.09775 8.66503 4.16176 8.75067C4.22578 8.83631 4.30606 8.90848 4.39802 8.96304C4.48997 9.01759 4.59178 9.05347 4.69763 9.06861C4.80347 9.08375 4.91126 9.07786 5.01482 9.05127C5.11839 9.02468 5.21568 8.97792 5.30114 8.91366C5.3866 8.84941 5.45854 8.76892 5.51284 8.67681C5.56714 8.5847 5.60273 8.48279 5.61757 8.3769L5.96278 7.11194L8.65672 9.80588C8.81373 9.93293 9.01222 9.99735 9.21392 9.98674C9.41561 9.97613 9.60624 9.89123 9.74906 9.74842C9.89188 9.6056 9.97678 9.41497 9.98739 9.21327C9.998 9.01157 9.93357 8.81309 9.80653 8.65607L7.11258 5.96213L8.37755 5.61692C8.59044 5.58585 8.78233 5.47164 8.91114 5.29931C9.03996 5.12698 9.09518 4.91061 9.06472 4.69763C9.03425 4.48465 8.92057 4.29244 8.74861 4.16314C8.57665 4.03384 8.36043 3.97801 8.14737 4.00787Z" fill="#EFEFEF"/>
<path d="M19.9902 8.14932L19.4153 5.27481C19.3905 5.10076 19.3099 4.93945 19.1855 4.81514C19.0612 4.69082 18.8999 4.61019 18.7259 4.58537L15.8513 4.01047C15.7455 3.99503 15.6377 4.00062 15.5341 4.02692C15.4305 4.05321 15.333 4.0997 15.2474 4.16372C15.1618 4.22773 15.0896 4.30802 15.035 4.39997C14.9805 4.49192 14.9446 4.59374 14.9295 4.69958C14.9143 4.80542 14.9202 4.91322 14.9468 5.01678C14.9734 5.12034 15.0202 5.21764 15.0844 5.30309C15.1487 5.38855 15.2292 5.46049 15.3213 5.51479C15.4134 5.56909 15.5153 5.60468 15.6212 5.61952L16.8861 5.96473L14.1922 8.65867C14.0651 8.81569 14.0007 9.01417 14.0113 9.21587C14.0219 9.41757 14.1068 9.6082 14.2497 9.75102C14.3925 9.89383 14.5831 9.97873 14.7848 9.98934C14.9865 9.99995 15.185 9.93552 15.342 9.80848L18.0359 7.11454L18.3811 8.3795C18.4122 8.5924 18.5264 8.78429 18.6988 8.9131C18.8711 9.04191 19.0875 9.09714 19.3004 9.06667C19.5134 9.0362 19.7056 8.92253 19.8349 8.75057C19.9642 8.5786 20.0201 8.36239 19.9902 8.14932Z" fill="#EFEFEF"/>
<path d="M19.4153 18.7252L19.9902 15.8507C20.0201 15.6376 19.9642 15.4214 19.8349 15.2495C19.7056 15.0775 19.5134 14.9638 19.3004 14.9333C19.0874 14.9029 18.8711 14.9581 18.6987 15.0869C18.5264 15.2157 18.4122 15.4076 18.3811 15.6205L18.0359 16.8855L15.342 14.1915C15.185 14.0645 14.9865 14.0001 14.7848 14.0107C14.5831 14.0213 14.3925 14.1062 14.2496 14.249C14.1068 14.3918 14.0219 14.5824 14.0113 14.7841C14.0007 14.9858 14.0651 15.1843 14.1922 15.3413L16.8861 18.0353L15.6212 18.3805C15.5153 18.3953 15.4134 18.4309 15.3212 18.4852C15.2291 18.5395 15.1487 18.6115 15.0844 18.6969C15.0201 18.7824 14.9734 18.8797 14.9468 18.9832C14.9202 19.0868 14.9143 19.1946 14.9294 19.3004C14.9446 19.4063 14.9805 19.5081 15.035 19.6C15.0896 19.692 15.1617 19.7723 15.2474 19.8363C15.333 19.9003 15.4305 19.9468 15.5341 19.9731C15.6377 19.9994 15.7455 20.005 15.8513 19.9895L18.7258 19.4146C18.8999 19.3898 19.0612 19.3092 19.1855 19.1849C19.3098 19.0606 19.3905 18.8993 19.4153 18.7252Z" fill="#EFEFEF"/>
<path d="M8.14737 19.9921L5.27286 19.4172C5.0988 19.3924 4.9375 19.3118 4.81318 19.1875C4.68886 19.0631 4.60824 18.9018 4.58342 18.7278L4.00852 15.8533C3.99308 15.7475 3.99867 15.6397 4.02496 15.536C4.05126 15.4324 4.09775 15.335 4.16176 15.2493C4.22578 15.1637 4.30606 15.0915 4.39802 15.037C4.48997 14.9824 4.59178 14.9465 4.69763 14.9314C4.80347 14.9162 4.91126 14.9221 5.01482 14.9487C5.11839 14.9753 5.21568 15.0221 5.30114 15.0863C5.3866 15.1506 5.45854 15.2311 5.51284 15.3232C5.56714 15.4153 5.60273 15.5172 5.61757 15.6231L5.96278 16.8881L8.65672 14.1941C8.81373 14.0671 9.01222 14.0026 9.21392 14.0133C9.41561 14.0239 9.60624 14.1088 9.74906 14.2516C9.89188 14.3944 9.97678 14.585 9.98739 14.7867C9.998 14.9884 9.93357 15.1869 9.80653 15.3439L7.11258 18.0379L8.37755 18.3831C8.59044 18.4141 8.78233 18.5284 8.91114 18.7007C9.03996 18.873 9.09518 19.0894 9.06472 19.3024C9.03425 19.5154 8.92057 19.7076 8.74861 19.8369C8.57665 19.9662 8.36043 20.022 8.14737 19.9921Z" fill="#EFEFEF"/>
</svg>
