<svg width="24" height="24" viewBox="0 0 24 24" fill="none" xmlns="http://www.w3.org/2000/svg">
<path fill-rule="evenodd" clip-rule="evenodd" d="M5.57884 5.21122C5.57903 5.87741 5.58793 6.47546 5.59866 6.54022C5.63041 6.73245 5.79383 6.97104 5.96674 7.07772L6.12059 7.17262L11.4524 7.18825L16.7842 7.20388V8.00094V8.798L13.8461 8.81363C10.9125 8.82923 10.9077 8.82935 10.7828 8.89655C10.638 8.97451 10.5481 9.06628 10.4661 9.21997C10.4122 9.32103 10.4071 9.43121 10.3987 10.665L10.3896 12.0006L7.4605 12.0091C4.67153 12.0171 4.52615 12.0203 4.42197 12.0758C4.26884 12.1573 4.14641 12.2776 4.06745 12.4238L4 12.5489V15.9872V19.4255L4.06758 19.5505C4.14725 19.6979 4.30051 19.8487 4.45323 19.9299C4.55891 19.9862 4.8135 19.9884 11.9237 19.9967C18.7724 20.0046 19.2945 20.0015 19.4246 19.9524C19.6131 19.8811 19.8416 19.6608 19.9228 19.472L19.9892 19.3176L19.9809 15.9489C19.9729 12.7323 19.9699 12.5752 19.9143 12.4707C19.8331 12.318 19.6823 12.1648 19.5349 12.0851L19.4099 12.0175L15.6981 12.0092L11.9862 12.0009V11.2043V10.4078H14.825C18.0584 10.4078 17.8838 10.4208 18.1454 10.1592C18.3971 9.90754 18.394 9.9342 18.394 8.00094C18.394 6.06767 18.3971 6.09433 18.1454 5.84268C17.8763 5.57356 18.35 5.59412 12.4182 5.59412H7.17262V4.79706V4H6.37556H5.57849L5.57884 5.21122ZM8.79072 14.4003L8.79906 15.1891L9.58778 15.1974L10.3765 15.2058V16.0028V16.7999L9.58778 16.8082L8.79906 16.8166L8.79072 17.6053L8.78237 18.394H7.98531H7.18825L7.1799 17.6053L7.17156 16.8166L6.38284 16.8082L5.59412 16.7999V16.0028V15.2058L6.38337 15.1974L7.17262 15.1891V14.4133C7.17262 13.9867 7.18225 13.6281 7.19397 13.6163C7.20572 13.6046 7.56793 13.5987 7.99884 13.6033L8.78237 13.6116L8.79072 14.4003ZM15.1745 16.0033V16.8166L14.3852 16.8082L13.596 16.7999L13.5876 16.0347C13.583 15.6138 13.5861 15.2516 13.5944 15.2298C13.6062 15.1992 13.7888 15.1901 14.3921 15.1901H15.1745V16.0033ZM18.3784 16.0028V16.7999L17.5891 16.8082L16.7999 16.8166V16.0028V15.1891L17.5891 15.1974L18.3784 15.2058V16.0028Z" fill="#EFEFEF"/>
</svg>
