<svg width="24" height="24" viewBox="0 0 24 24" fill="none" xmlns="http://www.w3.org/2000/svg">
<path d="M20.2501 10.5H18.577C18.4056 9.74715 18.109 9.04536 17.7099 8.41134L18.8943 7.22766C19.1857 6.93472 19.1857 6.45863 18.8943 6.1657L17.8337 5.10506C17.5421 4.81349 17.0647 4.81349 16.773 5.10506L15.5887 6.29011C14.9553 5.89162 14.2522 5.59442 13.5 5.423V3.74991C13.5 3.33683 13.1623 3 12.7499 3H11.2501C10.8377 3 10.5 3.33683 10.5 3.74991V5.42295C9.74781 5.59438 9.04537 5.89162 8.41134 6.29006L7.22766 5.10506C6.93538 4.81349 6.45863 4.81349 6.16636 5.10506L5.10572 6.16566C4.81437 6.45859 4.81437 6.93468 5.10572 7.22761L6.29011 8.41129C5.89162 9.04532 5.59442 9.74733 5.423 10.4999H3.74991C3.33771 10.5 3 10.837 3 11.2501V12.7499C3 13.1617 3.33771 13.5 3.74991 13.5H5.42295C5.59438 14.2515 5.89162 14.9546 6.29006 15.5887L5.10568 16.7723C4.81433 17.064 4.81433 17.5414 5.10568 17.833L6.16631 18.8934C6.45859 19.185 6.93534 19.185 7.22761 18.8934L8.41129 17.7099C9.04532 18.1084 9.74777 18.4056 10.4999 18.577V20.2501C10.4999 20.6616 10.8376 21 11.25 21H12.7499C13.1623 21 13.5 20.6616 13.5 20.2501V18.577C14.2521 18.4056 14.9553 18.1084 15.5886 17.7099L16.773 18.8934C17.0646 19.185 17.542 19.185 17.8336 18.8934L18.8943 17.833C19.1856 17.5414 19.1856 17.064 18.8943 16.7723L17.7099 15.5887C18.1088 14.9546 18.4056 14.2515 18.577 13.5H20.25C20.6622 13.5 21 13.1616 21 12.7499V11.2501C21 10.837 20.6623 10.5 20.2501 10.5ZM12.0002 14.9999C10.3436 14.9999 9.00037 13.6567 9.00037 12C9.00037 10.3433 10.3436 9.00015 12.0002 9.00015C13.6569 9.00015 15.0001 10.3433 15.0001 12C15.0001 13.6567 13.6569 14.9999 12.0002 14.9999Z" fill="#EFEFEF"/>
</svg>
