<svg width="24" height="24" viewBox="0 0 24 24" fill="none" xmlns="http://www.w3.org/2000/svg">
<path fill-rule="evenodd" clip-rule="evenodd" d="M5 3C3.89545 3 3 3.89542 3 5V19C3 20.1046 3.89545 21 5 21H19C20.1046 21 21 20.1046 21 19V5C21 3.89542 20.1046 3 19 3H5ZM9.90051 11.6261V10.5913C9.90051 9.6174 9.48254 9 7.70026 9C5.91797 9 5.5 9.6174 5.5 10.5913V14.4087C5.5 15.3826 5.91797 16 7.70026 16C9.48254 16 9.90051 15.3826 9.90051 14.4087V12.2522H7.70026V13.2696H8.51251V14.3739C8.51251 14.6348 8.37848 14.8435 7.72388 14.8435C7.06146 14.8435 6.9353 14.6348 6.9353 14.3739V10.6261C6.9353 10.3652 7.06146 10.1565 7.70026 10.1565C8.33112 10.1565 8.46521 10.3652 8.46521 10.6261V11.6261H9.90051ZM11.598 9.10434V15.887H13.0333V9.10434H11.598ZM18.5 9.10434V10.2435H16.347V12.1826H18.4054V13.3217H16.347V15.887H14.9118V9.10434H18.5Z" fill="#EFEFEF"/>
</svg>
