<svg width="24" height="24" viewBox="0 0 24 24" fill="none" xmlns="http://www.w3.org/2000/svg">
<path d="M19.6957 7.6087H16.487C16.7826 7.14348 16.9565 6.5913 16.9565 6C16.9565 4.34565 15.6109 3 13.9565 3C13.0565 3 12.2457 3.4 11.6957 4.03043C11.1457 3.4 10.3348 3 9.43478 3C7.78043 3 6.43478 4.34565 6.43478 6C6.43478 6.5913 6.60652 7.14348 6.90435 7.6087H3.69565C3.31087 7.6087 3 7.91957 3 8.30435V12.6522C3 12.7478 3.07826 12.8261 3.17391 12.8261H4.04348V20.3043C4.04348 20.6891 4.35435 21 4.73913 21H18.6522C19.037 21 19.3478 20.6891 19.3478 20.3043V12.8261H20.2174C20.313 12.8261 20.3913 12.7478 20.3913 12.6522V8.30435C20.3913 7.91957 20.0804 7.6087 19.6957 7.6087ZM12.4348 6C12.4348 5.16087 13.1174 4.47826 13.9565 4.47826C14.7957 4.47826 15.4783 5.16087 15.4783 6C15.4783 6.83913 14.7957 7.52174 13.9565 7.52174H12.4348V6ZM9.43478 4.47826C10.2739 4.47826 10.9565 5.16087 10.9565 6V7.52174H9.43478C8.59565 7.52174 7.91304 6.83913 7.91304 6C7.91304 5.16087 8.59565 4.47826 9.43478 4.47826ZM4.47826 11.3478V9.08696H10.9565V11.3478H4.47826ZM5.52174 12.8261H10.9565V19.5217H5.52174V12.8261ZM17.8696 19.5217H12.4348V12.8261H17.8696V19.5217ZM18.913 11.3478H12.4348V9.08696H18.913V11.3478Z" fill="#EFEFEF"/>
</svg>
