<svg width="26" height="25" viewBox="0 0 26 25" fill="none" xmlns="http://www.w3.org/2000/svg">
<path fill-rule="evenodd" clip-rule="evenodd" d="M12.4814 3.00703C10.5392 3.14187 8.84875 3.79255 7.33114 4.98945C7.00759 5.24459 6.23509 6.01709 5.97995 6.34063C4.91391 7.69232 4.28831 9.16065 4.06091 10.8448C3.9797 11.4465 3.9797 12.5401 4.06091 13.1418C4.28831 14.8258 4.91398 16.2944 5.97995 17.646C6.23509 17.9695 7.00759 18.742 7.33114 18.9972C9.65584 20.8306 12.5916 21.4352 15.3984 20.6588C16.5298 20.3457 17.5808 19.8151 18.5468 19.0692C18.9095 18.789 19.7094 17.9991 19.9877 17.646C21.1632 16.155 21.7967 14.5354 21.96 12.6034C22.0131 11.9751 22.0131 11.9877 21.9613 11.3832C21.8153 9.68081 21.3178 8.24492 20.4193 6.93282C18.9544 4.7936 16.7036 3.40551 14.1682 3.0778C13.7365 3.02199 12.8196 2.98352 12.4814 3.00703ZM13.3248 4.58314C13.5198 4.67426 13.9082 5.06701 14.1051 5.37211C14.8864 6.58336 15.4156 8.57934 15.5534 10.8359L15.5781 11.2396H12.9889H10.3997L10.3999 11.0871C10.4002 10.8111 10.5042 9.74788 10.5803 9.24187C10.9432 6.82996 11.8452 4.87331 12.7505 4.53443C12.8959 4.47999 13.1501 4.50156 13.3248 4.58314ZM10.2193 5.21196C9.57563 6.48714 9.05414 8.65008 8.9478 10.4859C8.93578 10.6932 8.91722 10.9476 8.90656 11.0512L8.88718 11.2396H7.20075H5.51428L5.53696 11.0691C5.65084 10.2126 5.90322 9.39275 6.29108 8.61965C6.96811 7.27022 8.07869 6.12554 9.40834 5.40678C9.71775 5.23953 10.2461 4.99609 10.3015 4.99519C10.3166 4.99494 10.2796 5.09252 10.2193 5.21196ZM16.2019 5.22636C17.7581 5.9747 18.9601 7.16635 19.7152 8.70937C20.0724 9.43919 20.3372 10.3089 20.4283 11.0512L20.4514 11.2396H18.7659H17.0804L17.0621 11.0512C17.052 10.9476 17.026 10.6205 17.0042 10.3244C16.8732 8.54055 16.4549 6.76553 15.8561 5.45236C15.7414 5.20066 15.6639 4.99476 15.6839 4.99476C15.7039 4.99476 15.937 5.09898 16.2019 5.22636ZM8.90628 12.9354C8.91679 13.039 8.93459 13.2773 8.94586 13.4648C9.0526 15.2438 9.49957 17.1936 10.1046 18.5195C10.3584 19.0757 10.3901 19.0598 9.69988 18.7236C8.92225 18.3449 8.31449 17.9129 7.70572 17.3061C7.4972 17.0982 7.23628 16.8139 7.12588 16.6741C6.2679 15.5882 5.71971 14.2921 5.53696 12.9175L5.51428 12.747H7.20075H8.88718L8.90628 12.9354ZM15.5534 13.1508C15.4083 15.5214 14.8128 17.6623 13.9899 18.772C13.6238 19.2657 13.3237 19.4756 12.9838 19.4756C12.7197 19.4756 12.5517 19.3884 12.2618 19.1008C11.5129 18.3579 10.8755 16.7068 10.5803 14.7447C10.5042 14.2387 10.4002 13.1755 10.3999 12.8995L10.3997 12.747H12.9889H15.5781L15.5534 13.1508ZM20.4283 12.9354C20.3808 13.3224 20.2265 13.98 20.0873 14.3886C19.5389 15.9987 18.4811 17.351 17.0206 18.3091C16.7424 18.4917 15.765 18.9919 15.6865 18.9919C15.665 18.9919 15.7414 18.7859 15.8561 18.5343C16.4549 17.2211 16.8732 15.4461 17.0042 13.6622C17.026 13.3661 17.052 13.039 17.0621 12.9354L17.0804 12.747H18.7659H20.4514L20.4283 12.9354Z" fill="white"/>
</svg>
