<svg width="24" height="25" viewBox="0 0 24 25" fill="none" xmlns="http://www.w3.org/2000/svg">
<path d="M10.4164 11.2521L10.5726 9.78139C9.81249 9.94103 9.70822 10.9981 10.4164 11.2521Z" fill="#EFEFEF"/>
<path d="M10.726 13.4341L10.5471 14.9996C11.7174 15.2401 11.2811 13.9737 10.726 13.4341Z" fill="#EFEFEF"/>
<path fill-rule="evenodd" clip-rule="evenodd" d="M9.28826 5.97634C9.57465 5.7425 10.0044 5.51663 10.3048 5.44206C10.5731 5.37549 11.0326 5.3735 11.3276 5.4377C12.818 5.76186 14.0971 7.80841 14.5006 10.5145C14.9787 13.7208 14.0703 17.1999 12.4012 18.5549C11.8941 18.9666 11.4939 19.1318 10.9382 19.1587C10.1886 19.195 9.59365 18.9225 8.93332 18.2402C8.01409 17.2905 7.36982 15.6932 7.11279 13.7262C7.03026 13.0944 7.03073 11.4569 7.11373 10.8178C7.39891 8.62044 8.18009 6.8811 9.28826 5.97634ZM10.4047 16.4491C11.4405 16.2315 11.865 15.718 12.1015 14.8524C12.4533 13.6628 12.3905 12.217 10.9407 11.4833L11.1193 9.81012C11.4954 9.98659 11.7832 10.2719 11.9407 10.5902L12.6706 9.44812C12.6471 9.41001 12.6257 9.37331 12.6058 9.33771C12.5807 9.29284 12.5578 9.24972 12.5355 9.2078L12.5345 9.20612C12.3571 8.87203 12.2196 8.61354 11.3381 8.14638L11.4712 6.60846L10.9382 6.50464L10.7821 7.97554C9.52523 8.04671 8.96328 9.15568 8.80277 10.009C8.58894 11.1465 9.05859 12.3684 10.2464 13.0491L10.0738 14.8469C9.6416 14.5396 9.35842 14.3022 8.99459 13.9591L8.28737 15.0603L8.3776 15.1681C8.77575 15.6451 9.18654 16.1373 9.89489 16.3584L9.73798 17.6676L10.2653 17.7547L10.4047 16.4491Z" fill="#EFEFEF"/>
<path fill-rule="evenodd" clip-rule="evenodd" d="M8.98188 3.73489C9.34478 3.54699 9.97167 3.35071 10.3731 3.29928C10.4296 3.29203 11.1386 3.28386 11.9485 3.28108C13.6133 3.27535 13.8517 3.29663 14.4604 3.50565C15.1407 3.73918 15.724 4.11522 16.308 4.69646C16.6446 5.03141 17.1994 5.66659 17.1555 5.66659C17.144 5.66659 17.1947 5.75757 17.2681 5.86878C18.1494 7.2041 18.7193 8.90567 18.9398 10.8595C19.0201 11.5718 19.0201 12.9822 18.9398 13.6945C18.7193 15.6483 18.1494 17.3499 17.2681 18.6852C17.1947 18.7964 17.144 18.8874 17.1555 18.8874C17.1994 18.8874 16.6446 19.5226 16.308 19.8575C15.5441 20.6179 14.6758 21.0839 13.7583 21.2258C13.3457 21.2897 10.7244 21.3009 10.3023 21.2407C9.3498 21.1047 8.43391 20.6064 7.62965 19.7866C6.20935 18.3387 5.30336 16.1524 5.04239 13.5428C4.98587 12.9773 4.98587 11.5767 5.04239 11.0112C5.30804 8.35457 6.26399 6.09142 7.72162 4.66855C8.06867 4.32976 8.6157 3.92454 8.98188 3.73489ZM15.6817 4.90775C15.1379 4.40629 14.4047 4.04357 13.6952 3.92509C13.5257 3.8968 13.2876 3.87355 13.1662 3.87349L12.9454 3.87335L13.1149 3.98321C13.3976 4.16665 13.8179 4.52017 14.0883 4.80197L14.3442 5.06883L15.8529 5.06567L15.6817 4.90775ZM14.2266 7.61804C13.5065 6.09465 12.5485 5.1503 11.4235 4.85487C10.8676 4.70893 10.1674 4.80015 9.60669 5.09166C8.2542 5.79482 7.11834 7.67599 6.67779 9.94258C6.50282 10.8428 6.47079 11.2038 6.47079 12.277C6.47079 13.3502 6.50282 13.7111 6.67779 14.6114C7.12249 16.8993 8.27447 18.7913 9.63953 19.4758C10.0841 19.6987 10.4571 19.7794 10.9381 19.7569C11.6755 19.7223 12.303 19.4253 12.9485 18.8053C13.564 18.2143 14.2121 17.1467 14.5653 16.1424C15.5365 13.3804 15.4067 10.1146 14.2266 7.61804ZM17.2529 6.99395C17.1115 6.70696 16.8149 6.21824 16.6067 5.9292L16.4176 5.66659H14.8004L14.8628 5.76327C15.0975 6.12716 15.3137 6.50296 15.4681 6.81532L15.6474 7.17821L17.3439 7.17852L17.2529 6.99395ZM18.1984 9.83323C18.0966 9.29057 17.8359 8.37074 17.6329 7.8378C17.6114 7.7815 17.5368 7.77628 16.7532 7.77628C15.9518 7.77628 15.8984 7.78023 15.92 7.8378C16.0902 8.29284 16.3198 9.13876 16.4329 9.72776C16.4627 9.88246 16.4949 10.0446 16.5046 10.0882L16.522 10.1673H17.3971C18.2141 10.1673 18.2709 10.1632 18.255 10.1058C18.2456 10.0719 18.2201 9.94927 18.1984 9.83323ZM18.3764 11.1455C18.3642 10.9838 18.3533 10.8683 18.3475 10.8441L18.3285 10.765H16.5832L16.6052 10.8981C16.6496 11.1682 16.6759 12.2953 16.6519 12.8998C16.6452 13.068 16.6367 13.2356 16.6284 13.3713C16.6197 13.5121 16.6113 13.6185 16.6052 13.6558L16.5832 13.7889H18.3285L18.3475 13.7098C18.3579 13.6663 18.3847 13.3261 18.4069 12.9539C18.4379 12.4338 18.4379 12.1201 18.4069 11.6001C18.397 11.4345 18.3862 11.2752 18.3764 11.1455ZM18.2517 14.4658L18.2687 14.3867H16.522L16.5046 14.4658C16.4949 14.5093 16.4627 14.6715 16.4329 14.8262C16.3198 15.4152 16.0902 16.2611 15.92 16.7162C15.8984 16.7737 15.9518 16.7777 16.7536 16.7777H17.6103L17.7187 16.47C17.8864 15.9944 18.0463 15.4302 18.1449 14.9669L18.2517 14.4658ZM16.4968 18.7744C16.6491 18.5907 17.0113 18.0184 17.1874 17.6831L17.349 17.3755L15.6474 17.3763L15.4474 17.7772C15.3612 17.95 15.2271 18.1938 15.1155 18.3828C15.0847 18.4349 15.0557 18.4829 15.0298 18.524L14.8123 18.8698L16.4009 18.89L16.4968 18.7744ZM13.1662 20.6805C14.0136 20.68 15.0011 20.2739 15.6817 19.6462L15.8529 19.4883L14.3442 19.4851L14.0883 19.752C13.8179 20.0338 13.3976 20.3873 13.1149 20.5708L12.9454 20.6807L13.1662 20.6805Z" fill="#EFEFEF"/>
</svg>
