<svg width="24" height="24" viewBox="0 0 24 24" fill="none" xmlns="http://www.w3.org/2000/svg">
<path d="M4.32029 5.70847C4.1326 5.52078 4.02716 5.26623 4.02716 5.0008C4.02716 4.73537 4.1326 4.48081 4.32029 4.29313C4.50797 4.10544 4.76253 4 5.02796 4C5.29339 4 5.54795 4.10544 5.73563 4.29313L6.73235 5.28985C6.82577 5.38251 6.89992 5.49274 6.95052 5.6142C7.00113 5.73566 7.02718 5.86594 7.02718 5.99752C7.02718 6.1291 7.00113 6.25937 6.95052 6.38083C6.89992 6.50229 6.82577 6.61253 6.73235 6.70519C6.63969 6.79861 6.52946 6.87276 6.408 6.92336C6.28654 6.97397 6.15626 7.00002 6.02468 7.00002C5.8931 7.00002 5.76282 6.97397 5.64136 6.92336C5.5199 6.87276 5.40967 6.79861 5.31701 6.70519L4.32029 5.70847ZM4.03124 9.9844H5.02796C5.29231 9.9844 5.54583 9.87939 5.73275 9.69247C5.91967 9.50555 6.02468 9.25203 6.02468 8.98768C6.02468 8.72333 5.91967 8.46981 5.73275 8.28289C5.54583 8.09597 5.29231 7.99096 5.02796 7.99096H4.03124C3.76689 7.99096 3.51337 8.09597 3.32645 8.28289C3.13953 8.46981 3.03452 8.72333 3.03452 8.98768C3.03452 9.25203 3.13953 9.50555 3.32645 9.69247C3.51337 9.87939 3.76689 9.9844 4.03124 9.9844ZM17.9853 6.99424C18.1165 6.995 18.2465 6.96986 18.368 6.92025C18.4894 6.87065 18.5999 6.79757 18.693 6.70519L19.6897 5.70847C19.8774 5.52078 19.9828 5.26623 19.9828 5.0008C19.9828 4.73537 19.8774 4.48081 19.6897 4.29313C19.502 4.10544 19.2475 4 18.982 4C18.7166 4 18.4621 4.10544 18.2744 4.29313L17.2777 5.28985C17.1842 5.38251 17.1101 5.49274 17.0595 5.6142C17.0089 5.73566 16.9828 5.86594 16.9828 5.99752C16.9828 6.1291 17.0089 6.25937 17.0595 6.38083C17.1101 6.50229 17.1842 6.61253 17.2777 6.70519C17.3708 6.79757 17.4812 6.87065 17.6027 6.92025C17.7241 6.96986 17.8541 6.995 17.9853 6.99424ZM18.982 7.99096C18.7177 7.99096 18.4642 8.09597 18.2773 8.28289C18.0903 8.46981 17.9853 8.72333 17.9853 8.98768C17.9853 9.25203 18.0903 9.50555 18.2773 9.69247C18.4642 9.87939 18.7177 9.9844 18.982 9.9844H19.9788C20.2431 9.9844 20.4966 9.87939 20.6836 9.69247C20.8705 9.50555 20.9755 9.25203 20.9755 8.98768C20.9755 8.72333 20.8705 8.46981 20.6836 8.28289C20.4966 8.09597 20.2431 7.99096 19.9788 7.99096H18.982ZM21.9722 18.6858L20.8559 14.6989C20.7956 14.4833 20.6645 14.2943 20.4837 14.1623C20.3029 14.0303 20.0829 13.963 19.8592 13.9713H16.9886C17.1489 13.9787 17.3087 13.9473 17.4543 13.8798C17.5999 13.8123 17.727 13.7106 17.8249 13.5833C17.9227 13.4561 17.9884 13.3072 18.0164 13.1491C18.0443 12.9911 18.0336 12.8286 17.9853 12.6755L16.7394 8.68866C16.676 8.48697 16.5501 8.31068 16.3799 8.18526C16.2097 8.05984 16.004 7.99179 15.7925 7.99096H8.2673C8.04744 7.98089 7.83044 8.04388 7.65014 8.17009C7.46983 8.2963 7.33638 8.47864 7.27058 8.68866L6.02468 12.6755C5.97636 12.8286 5.96571 12.9911 5.99364 13.1491C6.02158 13.3072 6.08727 13.4561 6.18513 13.5833C6.28299 13.7106 6.41012 13.8123 6.55572 13.8798C6.70132 13.9473 6.86107 13.9787 7.0214 13.9713H4.15085C3.92713 13.963 3.70715 14.0303 3.52634 14.1623C3.34553 14.2943 3.21442 14.4833 3.15413 14.6989L2.0378 18.6858C1.99609 18.8329 1.98879 18.9876 2.01644 19.1379C2.04409 19.2883 2.10597 19.4303 2.19727 19.5529C2.29407 19.6822 2.42086 19.7861 2.56671 19.8556C2.71256 19.925 2.8731 19.958 3.03452 19.9516H12.005C12.1597 19.9516 12.3123 19.9156 12.4507 19.8464C12.5891 19.7772 12.7095 19.6767 12.8024 19.5529C12.8937 19.4303 12.9556 19.2883 12.9832 19.1379C13.0109 18.9876 13.0036 18.8329 12.9619 18.6858L11.8455 14.6989C11.7852 14.4833 11.6541 14.2943 11.4733 14.1623C11.2925 14.0303 11.0725 13.963 10.8488 13.9713H13.0914C12.9261 13.9782 12.7651 14.0261 12.623 14.1108C12.6846 14.2112 12.7348 14.3182 12.7725 14.4298L13.8988 18.4167C13.9725 18.6716 13.9947 18.9386 13.9639 19.2022C13.9331 19.4658 13.8499 19.7206 13.7194 19.9516H20.9755C21.1302 19.9516 21.2828 19.9156 21.4212 19.8464C21.5596 19.7772 21.68 19.6767 21.7729 19.5529C21.871 19.4337 21.9401 19.2933 21.9747 19.1428C22.0093 18.9923 22.0084 18.8359 21.9722 18.6858Z" fill="#EFEFEF"/>
</svg>
