<svg width="24" height="24" viewBox="0 0 24 24" fill="none" xmlns="http://www.w3.org/2000/svg">
<path d="M15.2838 8.3042C14.4378 7.49529 13.3617 7.08341 12.1632 7.08341C10.0372 7.08341 8.23759 8.51925 7.59557 10.4486C7.4323 10.9384 7.33954 11.4619 7.33954 11.9999C7.33954 12.5379 7.4323 13.0611 7.59557 13.5509C8.2375 15.4804 10.037 16.9166 12.1632 16.9166C13.2615 16.9166 14.1966 16.6271 14.9276 16.1373C15.7922 15.5585 16.3673 14.6939 16.5566 13.6735H12.1632V10.5157H19.8516C19.9481 11.0501 20 11.6067 20 12.1855C20 14.6716 19.1095 16.7644 17.5659 18.1855C16.2152 19.4323 14.3673 20.1633 12.1632 20.1633C8.97209 20.1633 6.21141 18.334 4.86817 15.6661C4.31536 14.5641 4 13.3171 4 11.9999C4 10.6827 4.31538 9.43595 4.86823 8.33392C6.21146 5.66601 8.97209 3.83664 12.1632 3.83664C14.3636 3.83664 16.2115 4.64555 17.6252 5.96281L15.2838 8.3042Z" fill="#EFEFEF"/>
</svg>
