<svg width="24" height="25" viewBox="0 0 24 25" fill="none" xmlns="http://www.w3.org/2000/svg">
<path fill-rule="evenodd" clip-rule="evenodd" d="M17.7078 17.9385L19.5564 17.1729L18.5339 14.706L21 13.6844L20.2344 11.8362L17.7693 12.8577L15.4724 7.31461L17.9385 6.29309L17.1729 4.4454L14.707 5.46692L13.6853 3L11.8379 3.76566L12.8591 6.23254L7.31543 8.52844L6.29395 6.06247L4.44653 6.82718L5.46777 9.29315L3 10.3164L3.76562 12.1641L6.23389 11.1408L8.5293 16.6845L6.06152 17.7069L6.82715 19.5546L9.29517 18.5322L10.3164 21L12.165 20.2343L11.1426 17.7675L16.6865 15.4716L17.7078 17.9385ZM8.08179 10.377L13.6252 8.08078L15.9214 13.624L10.3779 15.9203L8.08179 10.377Z" fill="#EFEFEF"/>
</svg>
