<svg width="24" height="24" viewBox="0 0 24 24" fill="none" xmlns="http://www.w3.org/2000/svg">
<path fill-rule="evenodd" clip-rule="evenodd" d="M12 21C16.9706 21 21 16.9706 21 12C21 7.02944 16.9706 3 12 3C7.02944 3 3 7.02944 3 12C3 16.9706 7.02944 21 12 21ZM14.8575 13.2952L14.8575 15.1491C14.8575 15.2991 14.913 15.4354 15.0242 15.5445L16.2472 16.7441C16.3167 16.8122 16.275 16.9213 16.1916 16.9349H16.1499C13.2156 16.6784 11.6092 16.9174 8.81203 17.9846L8.71478 17.9982C8.65922 18.0118 8.61752 17.9437 8.65922 17.8892L8.7426 17.7938L10.4936 15.7625C10.5631 15.6807 10.6048 15.5717 10.6048 15.4627V14.7947C10.6048 14.7129 10.5909 14.6993 10.5076 14.6993C10.3691 14.6993 10.2291 14.7008 10.0886 14.7023C9.80602 14.7054 9.52137 14.7084 9.24291 14.6993C8.95107 14.6993 8.7426 14.5494 8.5897 14.3176C8.44406 14.1228 8.44982 13.2839 8.45068 13.1584C8.45072 13.1523 8.45075 13.1478 8.45075 13.1452V12.6409C8.45075 12.5863 8.43679 12.5454 8.38123 12.5318C8.35975 12.5228 8.31794 12.5084 8.2645 12.4901C8.07584 12.4254 7.7421 12.3108 7.64463 12.2046C7.53342 12.0819 7.464 11.932 7.51956 11.7684C7.57521 11.5911 8.11721 10.187 8.17277 10.0643C8.24229 9.90072 8.28398 9.49176 8.28398 9.45086C8.57583 7.54223 10.2296 6.06996 12.2448 6.00176C14.6214 5.93376 16.5809 7.84211 16.4974 10.187C16.4557 11.4412 15.8303 12.559 14.8714 13.2816L14.8575 13.2952Z" fill="#EFEFEF"/>
</svg>
