<svg width="24" height="24" viewBox="0 0 24 24" fill="none" xmlns="http://www.w3.org/2000/svg">
<path d="M19.4999 11.2501V12C19.4999 16.1425 16.1425 19.4999 12 19.4999C7.8582 19.4999 4.50007 16.1425 4.50007 12C4.50007 7.8582 7.8582 4.50007 12 4.50007C14.0934 4.50007 15.9755 5.36722 17.3356 6.75007L14.6251 6.75143V8.24993H19.1251C19.5388 8.24993 19.875 7.91467 19.875 7.5V3H18.3749V5.67548C16.7461 4.0305 14.4988 3 12 3C7.02975 3 3 7.02975 3 12C3 16.9709 7.02975 21 12 21C16.9709 21 21 16.9709 21 12V11.2501H19.4999Z" fill="#EFEFEF"/>
<path d="M6.75011 12.7499C7.16428 12.7499 7.50003 12.4142 7.50003 12C7.50003 11.5858 7.16428 11.2501 6.75011 11.2501C6.33594 11.2501 6.00018 11.5858 6.00018 12C6.00018 12.4142 6.33594 12.7499 6.75011 12.7499Z" fill="#EFEFEF"/>
<path d="M12.7499 17.2499C12.7499 17.6641 12.4141 17.9998 12 17.9998C11.5858 17.9998 11.25 17.6641 11.25 17.2499C11.25 16.8357 11.5858 16.5 12 16.5C12.4141 16.5 12.7499 16.8357 12.7499 17.2499Z" fill="#EFEFEF"/>
<path d="M16.2428 15.1817C16.5351 15.4747 16.5358 15.9492 16.2428 16.2431C15.9499 16.5353 15.4745 16.5353 15.1815 16.2431C14.8886 15.9492 14.8892 15.4747 15.1815 15.1817C15.4754 14.8888 15.9492 14.8888 16.2428 15.1817Z" fill="#EFEFEF"/>
<path d="M8.8182 8.81851C9.11115 8.52556 9.11047 8.05013 8.8182 7.75786C8.52547 7.46423 8.05072 7.46423 7.75755 7.75786C7.4646 8.05013 7.46392 8.52556 7.75755 8.81851C8.04982 9.11078 8.52525 9.11078 8.8182 8.81851Z" fill="#EFEFEF"/>
<path d="M7.7578 15.1824C8.05008 14.8895 8.5255 14.8888 8.81845 15.1824C9.11073 15.4747 9.11073 15.9501 8.81845 16.2431C8.5255 16.536 8.05008 16.5353 7.7578 16.2431C7.46418 15.9501 7.46418 15.4754 7.7578 15.1824Z" fill="#EFEFEF"/>
<path d="M14.1123 11.2501H18V12.7499H14.1123C13.8018 13.6216 12.9778 14.25 12 14.25C10.7571 14.25 9.74995 13.2422 9.74995 12C9.74995 11.0215 10.3784 10.1975 11.25 9.8877V5.99993H12.7499V9.8877C13.3864 10.1141 13.8859 10.6136 14.1123 11.2501Z" fill="#EFEFEF"/>
</svg>
