<svg width="24" height="24" viewBox="0 0 24 24" fill="none" xmlns="http://www.w3.org/2000/svg">
<path fill-rule="evenodd" clip-rule="evenodd" d="M12 20C16.4183 20 20 16.4183 20 12C20 7.58172 16.4183 4 12 4C7.58172 4 4 7.58172 4 12C4 16.4183 7.58172 20 12 20ZM13.3334 7.85192C13.3334 7.19786 12.7364 6.66667 12 6.66667C11.2636 6.66667 10.6666 7.19786 10.6666 7.85192C10.6666 8.50578 11.2636 9.03697 12 9.03697C12.7364 9.03697 13.3334 8.50578 13.3334 7.85192ZM9.33333 16.1481V17.3333H14.6667V16.1481H12.6666V10.8148C12.6666 10.4873 12.3686 10.2222 12 10.2222H9.33333V11.4075H11.3334V16.1481H9.33333Z" fill="#EFEFEF"/>
</svg>
