<svg width="24" height="24" viewBox="0 0 24 24" fill="none" xmlns="http://www.w3.org/2000/svg">
<path d="M16.5 3H7.5C5.02522 3 3 5.02434 3 7.5V16.5C3 18.9748 5.02522 21 7.5 21H16.5C18.9748 21 21 18.9748 21 16.5V7.5C21 5.02434 18.9748 3 16.5 3ZM12 15.7499C9.92864 15.7499 8.24993 14.0704 8.24993 12C8.24993 9.92864 9.92864 8.24993 12 8.24993C14.0704 8.24993 15.7501 9.92864 15.7501 12C15.7501 14.0704 14.0704 15.7499 12 15.7499ZM16.8751 8.24993C16.2532 8.24993 15.7501 7.74614 15.7501 7.12493C15.7501 6.50372 16.2532 5.99993 16.8751 5.99993C17.497 5.99993 18.0001 6.50372 18.0001 7.12493C18.0001 7.74614 17.497 8.24993 16.8751 8.24993Z" fill="#EFEFEF"/>
</svg>
