<svg width="24" height="24" viewBox="0 0 24 24" fill="none" xmlns="http://www.w3.org/2000/svg">
<path fill-rule="evenodd" clip-rule="evenodd" d="M13.973 18.2932V17.4795C14.3129 17.6984 14.7887 17.7204 15.1755 17.4795V20.6983C15.1755 21.1392 14.8188 21.5 14.3738 21.5H4.80169C4.36076 21.5 4 21.1392 4 20.6983V3.30169C4 2.85675 4.36076 2.5 4.80169 2.5H14.3738C14.8188 2.5 15.1755 2.85675 15.1755 3.30169V5.29388C15.1571 5.28731 15.1391 5.28082 15.1214 5.27444C14.7688 5.14758 14.5421 5.06601 14.1333 5.22975C14.0812 5.2538 14.0291 5.27384 13.973 5.29388V4.50422H5.20253V18.2932H13.973ZM10.7021 3.04114H8.47342C8.25295 3.04114 8.07257 3.21751 8.07257 3.44198C8.07257 3.66245 8.25295 3.84283 8.47342 3.84283H10.7021C10.9266 3.84283 11.103 3.66245 11.103 3.44198C11.103 3.21751 10.9266 3.04114 10.7021 3.04114ZM8.55759 19.9568C8.55759 20.5259 9.01857 20.9869 9.58776 20.9869C10.161 20.9869 10.6219 20.5259 10.6219 19.9568C10.6219 19.3876 10.161 18.9226 9.58776 18.9226C9.01857 18.9226 8.55759 19.3876 8.55759 19.9568Z" fill="#EFEFEF"/>
<path fill-rule="evenodd" clip-rule="evenodd" d="M19.8316 7.36124C19.8275 7.18487 19.6953 7.04458 19.5229 7.02854C18.7413 6.95238 16.5687 6.69584 14.9453 6.01441C14.8611 5.97833 14.7689 5.97833 14.6847 6.01441C13.0613 6.69584 10.8887 6.95238 10.1071 7.02854C9.93071 7.04458 9.79844 7.18487 9.79443 7.36124C9.77038 8.61589 10.0029 13.426 14.6046 16.8292C14.7288 16.9174 14.9012 16.9174 15.0214 16.8292C19.6231 13.426 19.8556 8.61589 19.8316 7.36124ZM16.8078 11.8569C16.8078 11.1455 16.1345 10.5685 15.3046 10.5685H14.3025C14.0256 10.5685 13.8015 10.3764 13.8015 10.1389C13.8015 9.90157 14.0256 9.70946 14.3025 9.70946H15.3046C15.5817 9.70946 15.8056 9.90157 15.8056 10.1389H16.8078C16.8078 9.42753 16.1345 8.85045 15.3046 8.85045V7.99157H14.3025V8.85045C13.4726 8.85045 12.7993 9.42728 12.7993 10.1389C12.7993 10.8503 13.4726 11.4273 14.3025 11.4273H15.3046C15.5817 11.4273 15.8056 11.6194 15.8056 11.8569C15.8056 12.0942 15.5806 12.2863 15.3036 12.2863H14.3025C14.0256 12.2863 13.8015 12.0942 13.8015 11.8569H12.7993C12.7993 12.5683 13.4726 13.1454 14.3025 13.1454V14.0042H15.3046V13.1454C16.1344 13.1444 16.8078 12.5683 16.8078 11.8569Z" fill="#EFEFEF"/>
</svg>
