<svg width="24" height="24" viewBox="0 0 24 24" fill="none" xmlns="http://www.w3.org/2000/svg">
<path fill-rule="evenodd" clip-rule="evenodd" d="M4 4.87826C4 3.84093 4.84093 3 5.87826 3H18.087C19.1243 3 19.9652 3.84093 19.9652 4.87826V21L14.8104 18.9652H5.87826C4.84093 18.9652 4 18.1243 4 17.087V4.87826ZM6.85119 14.2617C6.58749 14.1133 6.25347 14.2069 6.10514 14.4706C5.95681 14.7343 6.05033 15.0683 6.31403 15.2166C8.24475 16.3026 10.0363 16.8892 11.8558 16.9206C13.6768 16.952 15.4722 16.4263 17.4087 15.3774C17.6748 15.2332 17.7736 14.9008 17.6295 14.6347C17.4854 14.3687 17.1529 14.2699 16.8869 14.414C15.0669 15.3998 13.458 15.8524 11.8747 15.8251C10.2898 15.7978 8.67699 15.2887 6.85119 14.2617Z" fill="#EFEFEF"/>
</svg>
