<svg width="24" height="24" viewBox="0 0 24 24" fill="none" xmlns="http://www.w3.org/2000/svg">
<path d="M14.3636 17.8182C14.3636 16.6132 13.3868 15.6364 12.1818 15.6364C10.9768 15.6364 10 16.6132 10 17.8182C10 19.0232 10.9768 20 12.1818 20C13.3868 20 14.3636 19.0232 14.3636 17.8182Z" fill="#EFEFEF"/>
<path d="M14.3636 12.0001C14.3636 10.7951 13.3868 9.81826 12.1818 9.81826C10.9768 9.81826 10 10.7951 10 12.0001C10 13.205 10.9768 14.1819 12.1818 14.1819C13.3868 14.1819 14.3636 13.205 14.3636 12.0001Z" fill="#EFEFEF"/>
<path d="M12.1818 4C13.3868 4 14.3636 4.97682 14.3636 6.1818C14.3636 7.38677 13.3868 8.36359 12.1818 8.36359C10.9768 8.36359 10 7.38677 10 6.1818C10 4.97682 10.9768 4 12.1818 4Z" fill="#EFEFEF"/>
</svg>
