<svg width="24" height="24" viewBox="0 0 24 24" fill="none" xmlns="http://www.w3.org/2000/svg">
<path d="M11.2501 20.9982V21H18.75C19.9918 20.9982 20.9991 19.992 20.9991 18.75L21 12C21 10.7578 19.992 9.75 18.75 9.75H15.0002C14.5853 9.75 14.25 9.41453 14.25 8.99985V5.99993C14.25 4.34325 12.9065 3 11.2501 3C10.8356 3 10.5002 3.33525 10.5002 3.74993V7.5C10.5002 8.74222 9.49238 9.75 8.25015 9.75V19.4997C8.77035 20.3918 10.1426 20.9982 11.2501 20.9982Z" fill="#EFEFEF"/>
<path d="M6.74985 9.75H3V19.4999H6.74985V9.75Z" fill="#EFEFEF"/>
</svg>
