<svg width="24" height="24" viewBox="0 0 24 24" fill="none" xmlns="http://www.w3.org/2000/svg">
<path fill-rule="evenodd" clip-rule="evenodd" d="M3 4.18532C3 3.46379 3.59552 2.87851 4.33016 2.87851H19.6698C20.4045 2.87851 21 3.46379 21 4.18532V19.8147C21 20.5365 20.4045 21.1215 19.6698 21.1215H4.33016C3.59552 21.1215 3 20.5365 3 19.8147V4.18532ZM8.45632 18.1498V9.91205H5.73758V18.1498H8.45632ZM7.09694 8.78733C8.04502 8.78733 8.63512 8.15476 8.63512 7.36423C8.61745 6.55592 8.04502 5.9409 7.11492 5.9409C6.18493 5.9409 5.57686 6.55592 5.57686 7.36423C5.57686 8.15476 6.16684 8.78733 7.07922 8.78733H7.09694ZM12.6794 18.1498H9.96078C9.96078 18.1498 9.99646 10.685 9.96078 9.91205H12.6795V11.0784C12.6734 11.0879 12.6673 11.0973 12.6613 11.1067H12.6795V11.0784C13.0408 10.517 13.6874 9.71875 15.1296 9.71875C16.9184 9.71875 18.2596 10.8961 18.2596 13.4264V18.1498H15.5411V13.7428C15.5411 12.6354 15.1476 11.8799 14.1638 11.8799C13.4128 11.8799 12.9654 12.3894 12.7689 12.8813C12.6971 13.0573 12.6794 13.3033 12.6794 13.5495V18.1498Z" fill="#EFEFEF"/>
</svg>
