<svg width="24" height="24" viewBox="0 0 24 24" fill="none" xmlns="http://www.w3.org/2000/svg">
<path d="M10.0618 4.21164L13.6493 7.79907C13.6562 7.80597 13.6605 7.81434 13.6674 7.82131C12.7836 7.69258 11.8757 7.78084 11.0341 8.10901L8.59929 5.67421C7.79266 4.86759 6.4808 4.86759 5.67417 5.67421C4.86754 6.48077 4.86754 7.79269 5.67417 8.59925C5.81172 8.73686 9.46904 12.3942 9.26161 12.1867C10.0746 12.9997 11.4084 12.965 12.1867 12.1867C12.5898 11.7836 13.2461 11.7836 13.6493 12.1867L14.2772 12.8146C14.103 13.1105 13.9033 13.3952 13.6493 13.6493C12.1173 15.1812 9.48034 15.3036 7.82127 13.6674C7.81434 13.6605 7.806 13.6562 7.79904 13.6493L4.2116 10.0619C2.59613 8.44633 2.59613 5.82717 4.2116 4.21164C5.82713 2.59612 8.44626 2.59612 10.0618 4.21164Z" fill="#EFEFEF"/>
<path d="M12.6081 15.5331L15.0507 17.9758C15.8573 18.7824 17.1692 18.7824 17.9758 17.9758C18.7824 17.1692 18.7824 15.8573 17.9758 15.0507C17.8382 14.9132 14.1731 11.248 14.3805 11.4554C13.5675 10.6424 12.2337 10.6772 11.4554 11.4554C11.0523 11.8586 10.396 11.8586 9.99285 11.4554L9.36496 10.8276C9.53912 10.5316 9.73878 10.2469 9.99285 9.99291C11.5219 8.46381 14.1569 8.33371 15.8208 9.97474C15.8278 9.98164 15.8361 9.98598 15.8431 9.99291L19.4384 13.5882C21.0538 15.2037 21.0539 17.8229 19.4384 19.4384C17.8228 21.0539 15.2036 21.0539 13.5881 19.4384L9.99288 15.8431C9.98595 15.8362 9.98164 15.8279 9.97475 15.8208C10.8585 15.9496 11.7664 15.8613 12.6081 15.5331Z" fill="#EFEFEF"/>
</svg>
