<svg width="24" height="24" viewBox="0 0 24 24" fill="none" xmlns="http://www.w3.org/2000/svg">
<path d="M8.54556 3C7.94144 3 7.41972 3.3309 7.1362 3.81835H6.09106C4.28376 3.81835 2.81822 5.28371 2.81822 7.09101V11.1818H4.45455V7.09101C4.45455 6.18708 5.18732 5.45449 6.09106 5.45449H7.1362C7.41972 5.94195 7.94144 6.27285 8.54556 6.27285C9.4493 6.27285 10.1817 5.54007 10.1817 4.63633C10.1817 3.73258 9.4493 3 8.54556 3Z" fill="#EFEFEF"/>
<path d="M20.8181 8.13614V7.09101C20.8181 5.28371 19.3526 3.81835 17.5453 3.81835H11.8181V5.45449H17.5453C18.449 5.45449 19.1816 6.18708 19.1816 7.09101V8.13614C18.6945 8.41948 18.3636 8.94139 18.3636 9.54551C18.3636 10.4493 19.096 11.1818 19.9998 11.1818C20.9035 11.1818 21.6363 10.4493 21.6363 9.54551C21.6363 8.94139 21.3054 8.41948 20.8181 8.13614Z" fill="#EFEFEF"/>
<path d="M4.45449 16.909C4.45449 17.8127 5.18727 18.5455 6.09101 18.5455H11.8182V20.1816H6.09101C4.28371 20.1816 2.81816 18.7163 2.81816 16.909V15.8639C2.3309 15.5803 2 15.0586 2 14.4545C2 13.5507 2.73258 12.8182 3.63652 12.8182C4.54026 12.8182 5.27266 13.5507 5.27266 14.4545C5.27266 15.0586 4.94176 15.5803 4.45449 15.8639V16.909Z" fill="#EFEFEF"/>
<path d="M19.1816 12.8182V16.909C19.1816 17.8127 18.449 18.5455 17.5453 18.5455H16.5001C16.2166 18.0581 15.6947 17.7272 15.0908 17.7272C14.187 17.7272 13.4544 18.4597 13.4544 19.3637C13.4544 20.2674 14.187 21 15.0908 21C15.6947 21 16.2166 20.6691 16.5001 20.1816H17.5453C19.3526 20.1816 20.8181 18.7163 20.8181 16.909V12.8182H19.1816Z" fill="#EFEFEF"/>
<path d="M15.9092 12C15.9092 12.3028 15.7373 12.5562 15.4936 12.6976L9.76628 15.9702C9.64569 16.0397 9.51291 16.091 9.36366 16.091C8.91123 16.091 8.5455 15.7249 8.5455 15.2727V8.72734C8.5455 8.27491 8.91123 7.90899 9.36366 7.90899C9.5131 7.90899 9.64587 7.9603 9.76628 8.02978L15.4936 11.3024C15.7373 11.4446 15.9092 11.6981 15.9092 12Z" fill="#EFEFEF"/>
</svg>
