<svg width="24" height="24" viewBox="0 0 24 24" fill="none" xmlns="http://www.w3.org/2000/svg">
<path d="M17.5 9.75H15.9999V6.75007C15.9999 4.67871 14.3212 3 12.2499 3H10.75C8.67864 3 6.99993 4.67871 6.99993 6.75007V9.75H5.49985C4.67522 9.75 4 10.4254 4 11.2501V19.5001C4 20.3248 4.67522 21 5.49985 21H17.5C18.3246 21 18.9999 20.3248 18.9999 19.5001V11.2501C18.9999 10.4254 18.3246 9.75 17.5 9.75ZM12.2499 15.5419V18.0001H10.75V15.5419C10.3032 15.2828 9.99985 14.8037 9.99985 14.25C9.99985 13.4225 10.6715 12.7501 11.4999 12.7501C12.3284 12.7501 13 13.4225 13 14.25C13 14.8037 12.6967 15.2828 12.2499 15.5419ZM14.4999 9.75H8.5V6.75007C8.5 5.50783 9.50775 4.50007 10.75 4.50007H12.2499C13.4921 4.50007 14.4999 5.50783 14.4999 6.75007V9.75Z" fill="#EFEFEF"/>
</svg>
