<svg width="24" height="24" viewBox="0 0 24 24" fill="none" xmlns="http://www.w3.org/2000/svg">
<path d="M15.2 4H8.8C7.52739 4.00139 6.3073 4.50755 5.40742 5.40742C4.50755 6.3073 4.00139 7.52739 4 8.8V15.2C4.00139 16.4726 4.50755 17.6927 5.40742 18.5926C6.3073 19.4924 7.52739 19.9986 8.8 20H15.2C16.4726 19.9986 17.6927 19.4924 18.5926 18.5926C19.4924 17.6927 19.9986 16.4726 20 15.2V8.8C19.9986 7.52739 19.4924 6.3073 18.5926 5.40742C17.6927 4.50755 16.4726 4.00139 15.2 4ZM15.8398 12.4797L13.4398 15.6797C13.3124 15.8487 13.1231 15.9603 12.9135 15.99C12.7039 16.0197 12.491 15.965 12.3217 15.838C12.1523 15.7111 12.0402 15.5221 12.0099 15.3126C11.9796 15.103 12.0337 14.8901 12.1602 14.7203L13.6001 12.8H8.72C8.52236 12.7791 8.33943 12.6859 8.20648 12.5382C8.07353 12.3904 7.99996 12.1987 7.99996 12C7.99996 11.8013 8.07353 11.6096 8.20648 11.4618C8.33943 11.3141 8.52236 11.2209 8.72 11.2H13.6001L12.1602 9.27969C12.0968 9.19569 12.0507 9.10002 12.0244 8.99815C11.9981 8.89629 11.9921 8.79023 12.0069 8.68607C12.0216 8.5819 12.0568 8.48167 12.1103 8.39111C12.1639 8.30056 12.2348 8.22146 12.319 8.15835C12.4031 8.09524 12.4989 8.04937 12.6009 8.02335C12.7028 7.99733 12.8089 7.99168 12.913 8.00673C13.0171 8.02177 13.1173 8.05721 13.2077 8.11103C13.2981 8.16484 13.377 8.23596 13.4398 8.32031L15.8398 11.5203C15.9437 11.6587 15.9998 11.827 15.9998 12C15.9998 12.173 15.9437 12.3413 15.8398 12.4797Z" fill="#EFEFEF"/>
</svg>
