<svg width="24" height="24" viewBox="0 0 24 24" fill="none" xmlns="http://www.w3.org/2000/svg">
<path fill-rule="evenodd" clip-rule="evenodd" d="M21 12H16.5C14.8453 12 13.5001 13.3455 13.5001 15.0001C13.5001 16.6546 14.8453 18.0001 16.5 18.0001H21V20.2501C21 20.6623 20.6632 21 20.2501 21H3.74992C3.33773 21 3 20.6623 3 20.2501V9.75C3 9.33757 3.31365 8.87475 3.6966 8.72175L18.0001 3V8.99985H19.4999C20.3248 8.99985 21 9.67508 21 10.4999V12ZM7.03909 8.99985H16.5V5.21557L7.03909 8.99985Z" fill="#EFEFEF"/>
<path d="M16.5001 16.5C15.6732 16.5 15 15.8261 15 15.0002C15 14.1722 15.6732 13.4999 16.5001 13.4999H21.0001V16.5H16.5001Z" fill="#EFEFEF"/>
</svg>
