<svg width="24" height="25" viewBox="0 0 24 25" fill="none" xmlns="http://www.w3.org/2000/svg">
<path d="M3.12769 10.3751C3.12769 6.8539 6.14966 4 9.87769 4C13.6064 4 16.6277 6.85368 16.6277 10.3752C16.6277 13.8951 13.6064 16.7501 9.87769 16.7501C8.90723 16.7501 7.98749 16.5527 7.15381 16.2051L4.16489 17.4426C3.98764 17.5169 3.78265 17.5218 3.5914 17.4426C3.20816 17.284 3.02661 16.8459 3.18481 16.4628L4.24976 13.8914C3.54233 12.883 3.12769 11.6745 3.12769 10.3751Z" fill="#EFEFEF"/>
<path d="M21.1277 13.3751C21.1277 14.6749 20.713 15.8827 20.0056 16.8912L21.0706 19.4627C21.2288 19.8459 21.0469 20.2835 20.6647 20.4426C20.4727 20.5217 20.2678 20.5163 20.0905 20.4426L17.1022 19.2046C16.268 19.5527 15.3481 19.7496 14.3777 19.7496C12.7224 19.7496 11.2174 19.1761 10.0453 18.2419C14.5161 18.1555 18.1278 14.663 18.1278 10.375C18.1278 9.47856 17.9622 8.62019 17.6721 7.81738C19.7325 8.90727 21.1277 10.9845 21.1277 13.3751Z" fill="#EFEFEF"/>
</svg>
