<svg width="24" height="24" viewBox="0 0 24 24" fill="none" xmlns="http://www.w3.org/2000/svg">
<path d="M2 5.89189L5.33262 4L15.3347 9.67779L13.5109 10.7142L12 11.5697L2 5.89189Z" fill="#EFEFEF" fill-opacity="0.7"/>
<path d="M15.3347 5.89189L18.6673 4L22 5.89189L18.6673 7.78591L15.3347 5.89189Z" fill="#EFEFEF" fill-opacity="0.7"/>
<path d="M18.6673 7.78591L18.6672 19.5521L21.9999 17.6581L22 5.89189L18.6673 7.78591Z" fill="#EFEFEF"/>
<path d="M12 11.5664V15.3555L15.3284 13.4636H15.3347L15.3347 9.67779L12 11.5664Z" fill="#EFEFEF"/>
<path d="M5.33276 19.5523V11.6719L8.66751 13.5664V17.6583L5.33276 19.5523Z" fill="#EFEFEF"/>
<g opacity="0.5">
<path d="M15.3347 5.88879L18.6673 7.78889V19.6901L15.3347 17.7961V5.88879Z" fill="#EFEFEF"/>
<path d="M2 5.89453L12 11.5742V15.4637L5.33262 11.6778V19.6603L2 17.7663V5.89453Z" fill="#EFEFEF"/>
</g>
</svg>
