<svg width="24" height="24" viewBox="0 0 24 24" fill="none" xmlns="http://www.w3.org/2000/svg">
<path d="M19 19V12H21V19C21 20.1 20.1 21 19 21H5C3.9 21 3 20.1 3 19V5C3 3.9 3.9 3 5 3H12V5H5V19H19Z" fill="#EFEFEF"/>
<path d="M18.9992 6.13289L19 9.42261H21L20.9992 3.91818C20.9992 3.41139 20.5882 3.00038 20.082 3.00095L14.5774 3V5L17.7892 5.00019L14 8.70271L15.2973 10L18.9992 6.13289Z" fill="#EFEFEF"/>
<path fill-rule="evenodd" clip-rule="evenodd" d="M6.99991 10.0243H13.9999V17.0243H6.99991V10.0243ZM8.49991 11.5243H12.4999V15.5243H8.49991V11.5243Z" fill="#EFEFEF"/>
</svg>
