<svg width="24" height="24" viewBox="0 0 24 24" fill="none" xmlns="http://www.w3.org/2000/svg">
<path d="M13.1811 3.96546L12.1584 6.27273C13.2902 6.30036 14.404 6.56259 15.4293 7.04284C16.4545 7.52308 17.369 8.21088 18.1147 9.06273L19.7511 5.2991C19.8615 5.04989 19.9079 4.77706 19.8861 4.50538C19.8642 4.2337 19.7749 3.97176 19.6262 3.74337C19.4774 3.51498 19.274 3.32735 19.0343 3.19754C18.7947 3.06772 18.5264 2.99982 18.2538 3.00001H14.6784C14.3622 2.99909 14.0526 3.08978 13.7868 3.26111C13.5211 3.43245 13.3107 3.67709 13.1811 3.96546Z" fill="#EFEFEF"/>
<path d="M8.47985 7.04932C7.46053 7.52942 6.55135 8.21487 5.8093 9.06273L4.14021 5.2991C4.02982 5.04989 3.98343 4.77706 4.00525 4.50538C4.02707 4.2337 4.11641 3.97176 4.26515 3.74337C4.41389 3.51498 4.61732 3.32735 4.85698 3.19754C5.09664 3.06772 5.36492 2.99982 5.63748 3.00001H9.21293C9.53 2.99979 9.8403 3.09169 10.1061 3.26454C10.3719 3.43739 10.5818 3.68374 10.7102 3.97364L11.7329 6.27273C10.6067 6.30484 9.49917 6.56923 8.47985 7.04932Z" fill="#EFEFEF"/>
<path fill-rule="evenodd" clip-rule="evenodd" d="M17.388 18.091C18.1072 17.0146 18.4911 15.7491 18.4911 14.4545C18.4911 12.7186 17.8015 11.0537 16.574 9.82621C15.3465 8.5987 13.6816 7.9091 11.9457 7.9091C10.6511 7.9091 9.3856 8.29298 8.3092 9.0122C7.23281 9.73143 6.39386 10.7537 5.89845 11.9497C5.40304 13.1457 5.27342 14.4618 5.52598 15.7315C5.77854 17.0012 6.40193 18.1675 7.31733 19.0829C8.23273 19.9983 9.39901 20.6217 10.6687 20.8742C11.9384 21.1268 13.2545 20.9972 14.4505 20.5018C15.6465 20.0063 16.6688 19.1674 17.388 18.091ZM13.03 13.3013L11.9411 11.1818L10.8523 13.3013L8.5 13.682L10.1793 15.3725L9.8144 17.7273L11.9411 16.6526L14.0679 17.7273L13.703 15.3725L15.3823 13.682L13.03 13.3013Z" fill="#EFEFEF"/>
</svg>
