<svg width="24" height="25" viewBox="0 0 24 25" fill="none" xmlns="http://www.w3.org/2000/svg">
<path d="M12.5 5C8.36455 5 5 8.36455 5 12.5C5 16.6354 8.36455 20 12.5 20C13.8188 20 15.1157 19.653 16.2509 18.9961L15.3125 17.3729C14.462 17.865 13.4892 18.125 12.5 18.125C9.39821 18.125 6.87499 15.6018 6.87499 12.5C6.87499 9.39821 9.39821 6.87499 12.5 6.87499C15.6018 6.87499 18.125 9.39821 18.125 12.5V13.3166C18.125 13.9301 17.7309 14.375 17.1875 14.375C16.6707 14.375 16.25 13.9543 16.25 13.4375V9.6875H14.954C14.2945 9.11133 13.4424 8.74998 12.5 8.74998C10.4323 8.74998 8.74998 10.4323 8.74998 12.5C8.74998 14.5677 10.4323 16.25 12.5 16.25C13.4846 16.25 14.3749 15.8606 15.0447 15.2377C15.561 15.8513 16.3247 16.25 17.1875 16.25C18.7645 16.25 20 14.9614 20 13.3166V12.5C20 8.36455 16.6354 5 12.5 5V5ZM12.5 14.375C11.4659 14.375 10.625 13.5341 10.625 12.5C10.625 11.4659 11.4659 10.625 12.5 10.625C13.5341 10.625 14.375 11.4659 14.375 12.5C14.375 13.5341 13.5341 14.375 12.5 14.375Z" fill="#EFEFEF"/>
</svg>
