<svg width="24" height="24" viewBox="0 0 24 24" fill="none" xmlns="http://www.w3.org/2000/svg">
<path fill-rule="evenodd" clip-rule="evenodd" d="M22 9C22 11.7614 19.7614 14 17 14C14.2386 14 12 11.7614 12 9C12 6.23858 14.2386 4 17 4C19.7614 4 22 6.23858 22 9ZM16.2415 12V9.75847H14V8.24153H16.2415V6H17.7585V8.24153H20V9.75847H17.7585V12H16.2415Z" fill="#EFEFEF"/>
<path fill-rule="evenodd" clip-rule="evenodd" d="M17 15C17.7435 15 18.4555 14.8648 19.1126 14.6175L19.8185 16.7625L18.7295 20.4195L15.0391 19.4907L12.8007 21H10.1993L7.96085 19.4907L4.27046 20.4195L3.18149 16.7625L4.27046 13.4537L3 8.28747C3.16133 7.68763 3.49609 6.48797 3.54448 6.48797C3.73808 5.88427 4.27046 5.96554 4.51246 6.08164L9.41281 7.82308H11.1154C11.0397 8.20365 11 8.59719 11 9C11 12.3137 13.6863 15 17 15ZM4.81495 12.9313L8.02135 12.1186L10.3203 10.4352L4.45196 6.54602L3.60498 8.51966L4.81495 12.9313ZM9.59431 14.7889L10.1993 16.0079L8.20285 15.4854L9.59431 14.7889ZM12.8007 16.0079L13.4057 14.7889L14.7972 15.4854L12.8007 16.0079ZM10.2598 18.3878L10.6228 18.2137H12.3772L12.7402 18.3878L12.9217 19.4327H10.0783L10.2598 18.3878Z" fill="#EFEFEF"/>
</svg>
