<svg width="24" height="24" viewBox="0 0 24 24" fill="none" xmlns="http://www.w3.org/2000/svg">
<path fill-rule="evenodd" clip-rule="evenodd" d="M3.74144 3.09796L9.38372 5.18769H14.1901L19.8324 3.09796C20.111 2.95865 20.724 2.86113 20.9469 3.58557C21.0026 3.58557 21.3881 5.02516 21.5738 5.74496L20.111 11.9445L21.3648 15.915L20.111 20.3034L15.8619 19.1889L13.2846 21H10.2893L7.71193 19.1889L3.46281 20.3034L2.20897 15.915L3.46281 11.9445L2 5.74496C2.18575 5.02516 2.57119 3.58557 2.62692 3.58557C2.84982 2.86113 3.46281 2.95865 3.74144 3.09796ZM4.08973 11.3176L7.78159 10.3424L10.4286 8.32229L3.67179 3.65523L2.69658 6.02359L4.08973 11.3176ZM9.59269 13.5466L10.2893 15.0094L7.99056 14.3825L9.59269 13.5466ZM15.7922 10.3424L19.4841 11.3176L20.8772 6.02359L19.902 3.65523L13.1452 8.32229L15.7922 10.3424ZM13.2846 15.0094L13.9811 13.5466L15.5833 14.3825L13.2846 15.0094ZM10.3589 17.8654L10.7769 17.6564H12.7969L13.2149 17.8654L13.4239 19.1192H10.15L10.3589 17.8654Z" fill="#EFEFEF"/>
</svg>
