<svg width="24" height="24" viewBox="0 0 24 24" fill="none" xmlns="http://www.w3.org/2000/svg">
<path d="M3 7V17.5001H21V7H3ZM4.50007 15.9998V13.7498C5.74232 13.7498 6.75007 14.7578 6.75007 15.9998H4.50007ZM4.50007 10.7499V8.49985H6.75007C6.75007 9.7421 5.74232 10.7499 4.50007 10.7499ZM12 15.2501C10.7578 15.2501 9.75 13.9053 9.75 12.2502C9.75 10.5935 10.7578 9.25004 12 9.25004C13.2422 9.25004 14.25 10.5933 14.25 12.25C14.25 13.9053 13.2422 15.2501 12 15.2501ZM19.4999 15.9998H17.2499C17.2499 14.7578 18.2577 13.7498 19.4999 13.7498V15.9998ZM19.4999 10.7499C18.2577 10.7499 17.2499 9.7421 17.2499 8.49985H19.4999V10.7499Z" fill="#EFEFEF"/>
</svg>
