<svg width="24" height="25" viewBox="0 0 24 25" fill="none" xmlns="http://www.w3.org/2000/svg">
<path fill-rule="evenodd" clip-rule="evenodd" d="M11.6355 6.68975C11.1996 10.7082 11.1102 11.1035 10.6587 11.0165C10.2566 10.9392 10.017 9.14203 9.7749 6.44905C9.58152 4.3003 9.65701 5.13845 9.0397 9.12717C8.71384 11.2315 8.40785 11.9219 7.98755 11.5016C7.88712 11.4011 7.64716 10.3714 7.45421 9.21328L7.10356 7.1077L6.95484 8.81712C6.87301 9.7573 6.7527 11.0142 6.68753 11.6101C6.57044 12.6819 6.57706 12.6973 7.32536 13.0541C8.5226 13.6251 10.0683 15.2144 10.7192 16.5439C11.0483 17.2155 11.4773 18.5561 11.6731 19.5228L12.029 21.2803L12.2857 19.6668C12.4269 18.7794 12.7778 17.539 13.0656 16.9106C13.956 14.9655 14.5853 14.3007 16.8272 12.9368L17.3682 12.6078L17.1398 10.1349C16.9135 7.68313 16.6097 6.58419 16.6032 8.19382C16.6003 8.97717 16.1208 11.4041 15.9319 11.5932C15.8849 11.64 15.7158 11.5979 15.5562 11.4992C15.2353 11.3007 14.7985 9.24961 14.553 6.78718L14.3932 5.1846L14.1327 7.46005C13.7722 10.6099 13.6479 11.0983 13.228 11.0176C12.7904 10.9332 12.6209 10.0883 12.275 6.26239L12.0055 3.2803L11.6355 6.68975Z" fill="#EFEFEF"/>
</svg>
