<svg width="25" height="25" viewBox="0 0 25 25" fill="none" xmlns="http://www.w3.org/2000/svg">
<path fill-rule="evenodd" clip-rule="evenodd" d="M16.1255 6.56155C16.014 5.14504 14.8292 4.0303 13.384 4.0303H13.0403V5.5303H13.384C14.0744 5.5303 14.634 6.08995 14.634 6.7803V17.7803C14.634 18.4707 14.0744 19.0303 13.384 19.0303H13.0403V20.5303H13.384C14.8398 20.5303 16.0314 19.3991 16.1277 17.9678H17.0521C17.1611 18.9695 18.0096 19.7491 19.0403 19.7491H20.0403C21.1449 19.7491 22.0403 18.8536 22.0403 17.7491V16.7491C22.0403 15.6445 21.1449 14.7491 20.0403 14.7491H19.0403C18.0312 14.7491 17.1966 15.4964 17.0599 16.4678H16.134V8.06155H17.0558C17.1788 9.04813 18.0204 9.81155 19.0403 9.81155H20.0403C21.1449 9.81155 22.0403 8.91612 22.0403 7.81155V6.81155C22.0403 5.70698 21.1449 4.81155 20.0403 4.81155H19.0403C18.0204 4.81155 17.1788 5.57498 17.0558 6.56155H16.1255ZM20.0403 6.31155H19.0403C18.7641 6.31155 18.5403 6.53541 18.5403 6.81155V7.81155C18.5403 8.0877 18.7641 8.31155 19.0403 8.31155H20.0403C20.3164 8.31155 20.5403 8.0877 20.5403 7.81155V6.81155C20.5403 6.53541 20.3164 6.31155 20.0403 6.31155ZM19.0403 16.2491H20.0403C20.3164 16.2491 20.5403 16.4729 20.5403 16.7491V17.7491C20.5403 18.0252 20.3164 18.2491 20.0403 18.2491H19.0403C18.7641 18.2491 18.5403 18.0252 18.5403 17.7491V16.7491C18.5403 16.4729 18.7641 16.2491 19.0403 16.2491Z" fill="#EFEFEF"/>
<path fill-rule="evenodd" clip-rule="evenodd" d="M2.04028 6.81155C2.04028 5.70698 2.93571 4.81155 4.04028 4.81155H5.04028C6.06019 4.81155 6.90178 5.57498 7.02481 6.56155H7.95511C8.06658 5.14504 9.25138 4.0303 10.6965 4.0303H11.0403V5.5303H10.6965C10.0062 5.5303 9.44653 6.08995 9.44653 6.7803V17.7803C9.44653 18.4707 10.0062 19.0303 10.6965 19.0303H11.0403V20.5303H10.6965C9.24077 20.5303 8.0492 19.3991 7.95283 17.9678H7.02846C6.91949 18.9695 6.07093 19.7491 5.04028 19.7491H4.04028C2.93571 19.7491 2.04028 18.8536 2.04028 17.7491V16.7491C2.04028 15.6445 2.93571 14.7491 4.04028 14.7491H5.04028C6.04939 14.7491 6.88395 15.4964 7.02066 16.4678H7.94653V8.06155H7.02481C6.90178 9.04813 6.06019 9.81155 5.04028 9.81155H4.04028C2.93571 9.81155 2.04028 8.91612 2.04028 7.81155V6.81155ZM4.04028 6.31155H5.04028C5.31643 6.31155 5.54028 6.53541 5.54028 6.81155V7.81155C5.54028 8.0877 5.31643 8.31155 5.04028 8.31155H4.04028C3.76414 8.31155 3.54028 8.0877 3.54028 7.81155V6.81155C3.54028 6.53541 3.76414 6.31155 4.04028 6.31155ZM4.04028 16.2491H5.04028C5.31643 16.2491 5.54028 16.4729 5.54028 16.7491V17.7491C5.54028 18.0252 5.31643 18.2491 5.04028 18.2491H4.04028C3.76414 18.2491 3.54028 18.0252 3.54028 17.7491V16.7491C3.54028 16.4729 3.76414 16.2491 4.04028 16.2491Z" fill="#EFEFEF"/>
</svg>
