<svg width="24" height="24" viewBox="0 0 24 24" fill="none" xmlns="http://www.w3.org/2000/svg">
<path d="M18.8598 9.00007C19.2641 9.9201 19.4999 10.9308 19.4999 12C19.4999 16.1425 16.1425 19.4999 12 19.4999C7.85775 19.4999 4.50007 16.1425 4.50007 12C4.50007 7.8573 7.85798 4.50007 12 4.50007V3C7.02952 3 3 7.02975 3 12C3 16.9709 7.02952 21 12 21C16.9709 21 21 16.9709 21 12C21 10.9452 20.8094 9.939 20.4755 9.00007H18.8598Z" fill="#EFEFEF"/>
<path d="M13.5001 3V9.4161C13.0576 9.15825 12.5493 9.00007 12.0001 9.00007C10.3429 9.00007 9.00014 10.3433 9.00014 12C9.00014 13.6573 10.3432 14.9999 12.0001 14.9999C13.6574 14.9999 15 13.6573 15 12V7.5H19.5L21.0001 3H13.5001Z" fill="#EFEFEF"/>
<path d="M7.50003 12C7.50003 14.4858 9.51468 16.5 12 16.5C14.4858 16.5 16.5 14.4858 16.5 12H18.0001C18.0001 15.314 15.3141 18.0001 12 18.0001C8.686 18.0001 5.99995 15.314 5.99995 12C5.99995 8.68643 8.68623 5.99993 12 5.99993V7.5C9.51468 7.5 7.50003 9.5142 7.50003 12Z" fill="#EFEFEF"/>
</svg>
