<svg width="24" height="24" viewBox="0 0 24 24" fill="none" xmlns="http://www.w3.org/2000/svg">
<path fill-rule="evenodd" clip-rule="evenodd" d="M20.15 9.45764L21.514 10.8214C22.1615 11.4694 22.1615 12.5304 21.514 13.1795L20.15 14.5432C19.8265 14.8667 19.561 15.5065 19.561 15.9655V17.8943C19.561 18.8108 18.8114 19.5613 17.8942 19.5613H15.9646C15.5064 19.5613 14.8661 19.8263 14.5421 20.1501L13.1783 21.5144C12.5303 22.1619 11.4693 22.1619 10.8213 21.5144L9.45752 20.1501C9.13376 19.8266 8.49325 19.5613 8.03499 19.5613H6.1062C5.18993 19.5613 4.43942 18.8108 4.43942 17.8943V15.9655C4.43942 15.5085 4.17442 14.867 3.85041 14.5432L2.48638 13.1795C1.83787 12.5304 1.83787 11.4694 2.48638 10.8214L3.85041 9.45764C4.17417 9.13414 4.43942 8.49237 4.43942 8.03536V6.10658C4.43942 5.18906 5.18993 4.43955 6.1062 4.43955H8.03499C8.49225 4.43955 9.13351 4.17454 9.45752 3.85078L10.8213 2.48601C11.4693 1.838 12.5303 1.838 13.1783 2.48601L14.5421 3.84978C14.8659 4.17329 15.5064 4.43905 15.9646 4.43905H17.8942C18.8114 4.43955 19.561 5.18906 19.561 6.10658V8.03536C19.561 8.49412 19.8262 9.13388 20.15 9.45764ZM8.09465 11.8537V10.4H9.24194V13.6H8.27428L6.94735 12.1463V13.6H5.80005V10.4H6.76779L8.09465 11.8537ZM10.8681 12.7863V12.3657H12.3446V11.5885H10.8681V11.2137H12.5492V10.4H9.71084V13.6H12.614V12.7863H10.8681ZM17.4826 10.4L16.8392 12.2423L16.2305 10.4H15.1481L14.5046 12.2194L13.8959 10.4H12.6838L13.8012 13.6H15.0633L15.6569 11.8902L16.2206 13.6H17.4826L18.6 10.4H17.4826Z" fill="#EFEFEF"/>
</svg>
