<svg width="24" height="24" viewBox="0 0 24 24" fill="none" xmlns="http://www.w3.org/2000/svg">
<path fill-rule="evenodd" clip-rule="evenodd" d="M13.5312 3.026C13.5163 3.03731 13.5052 7.07721 13.5052 12.0041C13.5052 20.1324 13.5088 20.956 13.5647 20.9785C13.6655 21.0157 16.5573 21.0007 16.9153 20.9636C18.4284 20.7921 19.7626 19.8715 20.4892 18.5038C20.5826 18.3286 20.7054 18.0342 20.7688 17.8516L20.8191 17.7023C20.833 17.6601 20.8458 17.6198 20.8575 17.5791C20.9964 17.1043 20.9964 16.5891 20.9961 12.4829V11.9817C20.9961 7.70703 20.9886 7.06973 20.9366 6.79761C20.5676 4.85597 19.088 3.39127 17.1426 3.05592C16.8818 3.01113 16.4793 3 15.1825 3C14.2878 3 13.5426 3.01113 13.5312 3.026ZM17.5116 11.1432C18.0928 11.296 18.5701 11.7395 18.7639 12.3061C18.8868 12.6563 18.8832 13.1707 18.76 13.4911C18.5327 14.08 18.0857 14.4936 17.5116 14.6465C16.5798 14.8887 15.5885 14.326 15.3164 13.4017C15.2345 13.1184 15.238 12.6414 15.3314 12.3508C15.611 11.4376 16.5798 10.9009 17.5116 11.1432Z" fill="#EFEFEF"/>
<path d="M7.17338 6.73056C6.93866 6.77526 6.58069 6.95424 6.39085 7.12191C5.9994 7.461 5.80564 7.94185 5.8352 8.50835C5.85016 8.80274 5.86904 8.88101 5.98801 9.11947C6.16325 9.481 6.42789 9.74564 6.78942 9.92453C7.0391 10.0475 7.1025 10.0624 7.42662 10.0736C7.5577 10.0786 7.65102 10.0791 7.73152 10.0723C7.83232 10.0637 7.91317 10.0438 8.02287 10.0065C8.83176 9.73442 9.32009 8.94806 9.18225 8.14309C9.02196 7.18523 8.11263 6.54428 7.17338 6.73056Z" fill="#EFEFEF"/>
<path fill-rule="evenodd" clip-rule="evenodd" d="M3.16313 6.45114C3.61797 4.70691 5.06015 3.38014 6.85282 3.05966C6.97142 3.03891 7.16661 3.02582 7.56055 3.01745C7.94487 3.00926 8.51832 3.00561 9.39453 3.00374C11.5786 3 11.6417 3.00374 11.6791 3.07079C11.7051 3.12297 11.7165 5.97029 11.7165 12.0153C11.7165 20.1697 11.7126 20.889 11.6566 20.9449C11.6007 21.0008 11.3845 21.0045 9.29765 20.9896C7.2813 20.9785 6.96822 20.9672 6.72245 20.9113C4.83647 20.4715 3.50969 19.1411 3.09617 17.2739C3.02172 16.9273 3.01781 16.823 3.00676 12.3358C2.98789 7.44987 2.99928 7.08095 3.16313 6.45114ZM10.2255 19.5548V4.45349L8.78332 4.45723C7.18834 4.46088 6.96074 4.48332 6.46885 4.68073C5.48864 5.07209 4.76203 5.94046 4.53835 6.98772C4.46034 7.35673 4.46034 16.6292 4.54226 17.0056C4.79195 18.2093 5.6824 19.1336 6.88274 19.443C7.16198 19.5138 7.31122 19.5212 8.70888 19.5361L10.2255 19.5548Z" fill="#EFEFEF"/>
</svg>
