<svg width="24" height="24" viewBox="0 0 24 24" fill="none" xmlns="http://www.w3.org/2000/svg">
<path fill-rule="evenodd" clip-rule="evenodd" d="M5.45953 3H13.3407C14.143 3 14.8 3.67522 14.8 4.50007V12H4V4.50007C4 3.67522 4.65698 3 5.45953 3ZM11.8899 6.02636C11.7895 6.12682 11.6614 6.19524 11.5221 6.22296C11.3827 6.25068 11.2383 6.23645 11.1071 6.18208C10.9758 6.1277 10.8635 6.03563 10.7846 5.91749C10.7056 5.79936 10.6635 5.66046 10.6635 5.51838C10.6635 5.3763 10.7056 5.23741 10.7846 5.11927C10.8635 5.00113 10.9758 4.90905 11.1071 4.85468C11.2383 4.80031 11.3827 4.78608 11.5221 4.8138C11.6614 4.84152 11.7895 4.90994 11.8899 5.01041C12.0244 5.14525 12.1 5.32793 12.1 5.51838C12.1 5.70883 12.0244 5.89151 11.8899 6.02636ZM7.9264 9.98958C7.82599 10.0901 7.698 10.1585 7.55858 10.1862C7.41928 10.2139 7.2748 10.1997 7.14352 10.1453C7.01223 10.0909 6.90006 9.99887 6.82107 9.88072C6.74219 9.76259 6.7 9.6237 6.7 9.48162C6.7 9.33954 6.74219 9.20064 6.82107 9.08251C6.90006 8.96437 7.01223 8.87229 7.14352 8.81792C7.2748 8.76355 7.41928 8.74932 7.55858 8.77704C7.698 8.80476 7.82599 8.87318 7.9264 8.97365C8.06099 9.10849 8.13646 9.29117 8.13646 9.48162C8.13646 9.67207 8.06099 9.85474 7.9264 9.98958ZM9.95844 7.9577C9.85802 8.05817 9.73003 8.12659 9.59061 8.1543C9.45131 8.18203 9.30684 8.1678 9.17555 8.11342C9.04426 8.05905 8.93209 7.96697 8.8531 7.84884C8.77422 7.7307 8.73203 7.59182 8.73203 7.44973C8.73203 7.30765 8.77422 7.16876 8.8531 7.05062C8.93209 6.93248 9.04426 6.84041 9.17555 6.78603C9.30684 6.73166 9.45131 6.71743 9.59061 6.74515C9.73003 6.77287 9.85802 6.84129 9.95844 6.94176C10.093 7.0766 10.1685 7.25928 10.1685 7.44973C10.1685 7.64019 10.093 7.82286 9.95844 7.9577Z" fill="#EFEFEF"/>
<path fill-rule="evenodd" clip-rule="evenodd" d="M4 12.9H14.8V19.4999C14.8 20.3248 14.143 21 13.3407 21H5.45953C4.65698 21 4 20.3248 4 19.4999V12.9ZM9.59061 17.923C9.73003 17.8952 9.85802 17.8268 9.95844 17.7263C10.093 17.5915 10.1685 17.4088 10.1685 17.2184C10.1685 17.0279 10.093 16.8453 9.95844 16.7104C9.85802 16.6099 9.73003 16.5415 9.59061 16.5138C9.45131 16.4861 9.30684 16.5003 9.17555 16.5547C9.04426 16.6091 8.93209 16.7011 8.8531 16.8193C8.77422 16.9374 8.73203 17.0763 8.73203 17.2184C8.73203 17.3605 8.77422 17.4994 8.8531 17.6175C8.93209 17.7356 9.04426 17.8277 9.17555 17.8821C9.30684 17.9364 9.45131 17.9507 9.59061 17.923Z" fill="#EFEFEF"/>
<path d="M17.6501 18.0001C17.6501 18.8247 16.9746 19.4999 16.15 19.4999V4.50007C16.9746 4.50007 17.6501 5.17529 17.6501 5.99993V18.0001Z" fill="#EFEFEF"/>
<path d="M20.2 16.5C20.2 17.3246 19.5248 18.0001 18.6999 18.0001V5.99992C19.5248 5.99992 20.2 6.67537 20.2 7.5V16.5Z" fill="#EFEFEF"/>
</svg>
