<svg width="24" height="24" viewBox="0 0 24 24" fill="none" xmlns="http://www.w3.org/2000/svg">
<path fill-rule="evenodd" clip-rule="evenodd" d="M13 5.74955V12C13 12.5523 13.4477 13 14 13H15.5454V13.7271C15.5454 14.8748 16.4758 15.8051 17.6234 15.8051V17.3636H3V15.8042C4.14665 15.8042 5.07485 14.877 5.07799 13.7315V11.3117C5.07799 8.22323 6.32524 5.66649 9.27283 5.17151V3H11.3506V5.17151C11.9753 5.27642 12.5237 5.47396 13 5.74955ZM7.38563 18.922C7.81578 20.1295 8.95626 21 10.3117 21C11.6663 21 12.8078 20.1295 13.2379 18.922H7.38563Z" fill="#EFEFEF"/>
<path fill-rule="evenodd" clip-rule="evenodd" d="M13 5.74955V12C13 12.5523 13.4477 13 14 13H15.5454V13.7271C15.5454 14.8748 16.4758 15.8051 17.6234 15.8051V17.3636H3V15.8042C4.14665 15.8042 5.07485 14.877 5.07799 13.7315V11.3117C5.07799 8.22323 6.32524 5.66649 9.27283 5.17151V3H11.3506V5.17151C11.9753 5.27642 12.5237 5.47396 13 5.74955ZM7.38563 18.922C7.81578 20.1295 8.95626 21 10.3117 21C11.6663 21 12.8078 20.1295 13.2379 18.922H7.38563Z" fill="#EFEFEF"/>
</svg>
