<svg width="24" height="24" viewBox="0 0 24 24" fill="none" xmlns="http://www.w3.org/2000/svg">
<path d="M14.1406 6H2.85938C2.38477 6 2 6.44775 2 7C2 7.55225 2.38477 8 2.85938 8H14.1406C14.6152 8 15 7.55225 15 7C15 6.44775 14.6152 6 14.1406 6Z" fill="#EFEFEF"/>
<path d="M14.1406 11H2.85938C2.38477 11 2 11.4478 2 12C2 12.5522 2.38477 13 2.85938 13H14.1406C14.6152 13 15 12.5522 15 12C15 11.4478 14.6152 11 14.1406 11Z" fill="#EFEFEF"/>
<path d="M14.1406 16H2.85938C2.38477 16 2 16.4478 2 17C2 17.5522 2.38477 18 2.85938 18H14.1406C14.6152 18 15 17.5522 15 17C15 16.4478 14.6152 16 14.1406 16Z" fill="#EFEFEF"/>
<path d="M19.1001 13.8364C19.3001 14.0545 19.6999 14.0545 19.8999 13.8364L21.8991 11.6545C22.1463 11.3849 21.9111 11 21.4993 11H17.5007C17.0889 11 16.8537 11.3849 17.1009 11.6545L19.1001 13.8364Z" fill="#EFEFEF"/>
</svg>
