<svg width="24" height="25" viewBox="0 0 24 25" fill="none" xmlns="http://www.w3.org/2000/svg">
<path fill-rule="evenodd" clip-rule="evenodd" d="M18.6211 8.2905C17.8186 12.0203 15.2611 13.9935 11.2036 13.9935H9.73214L8.6349 21H11.0214C11.3664 21 11.6589 20.7495 11.7136 20.409L11.7414 20.2605L12.2904 16.7835L12.3256 16.5915C12.3516 16.4267 12.4355 16.2767 12.5623 16.1683C12.689 16.06 12.8504 16.0004 13.0171 16.0005H13.4529C16.2729 16.0005 18.4816 14.8545 19.1266 11.541C19.3854 10.2112 19.2609 9.096 18.6211 8.2905ZM16.9876 4.3575C16.1544 3.40725 14.6476 3 12.7201 3H7.12665C6.73215 3 6.3969 3.28725 6.3354 3.675L4.0059 18.4485C3.99505 18.5171 3.99921 18.5872 4.01808 18.654C4.03696 18.7208 4.07011 18.7828 4.11524 18.8355C4.16038 18.8883 4.21642 18.9306 4.2795 18.9596C4.34259 18.9886 4.41121 19.0036 4.48065 19.0035H7.93365L8.8014 13.5023L8.7744 13.6747C8.8359 13.2863 9.1689 12.9998 9.56264 12.9998H11.2036C14.4279 12.9998 16.9516 11.6895 17.6896 7.902C17.7114 7.7895 17.7466 7.5735 17.7466 7.5735C17.9559 6.17175 17.7451 5.22075 16.9876 4.35825" fill="#EFEFEF"/>
</svg>
