<svg width="24" height="24" viewBox="0 0 24 24" fill="none" xmlns="http://www.w3.org/2000/svg">
<path fill-rule="evenodd" clip-rule="evenodd" d="M7.37717 4.00832C5.79059 4.20483 4.53665 5.28373 4.12445 6.80702C3.80525 7.98666 4.10995 9.28758 4.92513 10.2254C5.54709 10.9409 6.36962 11.3761 7.32568 11.4956C7.80237 11.5552 8.27124 11.5221 8.73942 11.396C9.5284 11.1834 10.2763 10.6835 10.7623 10.044C11.3389 9.28526 11.6092 8.33102 11.5128 7.39519C11.3419 5.73757 10.1574 4.42062 8.51944 4.06705C8.30023 4.01972 7.58285 3.98284 7.37717 4.00832ZM11.1573 11.1505C7.42529 14.8826 4.3718 17.9503 4.3718 17.9676C4.3718 18.0085 6.006 19.6422 6.04692 19.6422C6.08784 19.6422 19.6491 6.08043 19.6491 6.03949C19.6491 5.99857 18.0149 4.36487 17.974 4.36487C17.9569 4.36487 14.8894 7.41839 11.1573 11.1505ZM8.25374 6.4902C9.16985 6.83951 9.41955 8.02172 8.72408 8.71715C7.89951 9.54175 6.50486 9.02117 6.4157 7.85549C6.36687 7.21687 6.78627 6.62266 7.40923 6.44794C7.63761 6.38388 8.0259 6.40329 8.25374 6.4902ZM15.7202 12.5185C15.0257 12.6141 14.3364 12.9282 13.7949 13.3961C13.0555 14.0349 12.6047 14.9104 12.5068 15.8978C12.4403 16.5679 12.5624 17.2548 12.8578 17.8723C13.3747 18.9528 14.3775 19.7212 15.5807 19.9588C15.8881 20.0195 16.668 20.0117 16.9835 19.9449C18.4155 19.6414 19.5166 18.6037 19.8965 17.2C20.2146 16.0244 19.9118 14.7236 19.1021 13.788C18.2587 12.8133 17.0032 12.342 15.7202 12.5185ZM16.7377 14.9741C17.0788 15.1042 17.3885 15.4128 17.5266 15.7603C17.6252 16.0085 17.624 16.4849 17.5241 16.7386C17.3895 17.0803 17.0863 17.3828 16.7425 17.5183C16.492 17.617 16.0139 17.6177 15.7672 17.5197C14.8483 17.1545 14.6 15.9825 15.2951 15.2909C15.4705 15.1164 15.6777 14.9926 15.8982 14.9306C16.1214 14.8678 16.5121 14.8881 16.7377 14.9741Z" fill="#EFEFEF"/>
</svg>
