<svg width="24" height="24" viewBox="0 0 24 24" fill="none" xmlns="http://www.w3.org/2000/svg">
<path d="M19.7583 12.3966H17.7647C17.7647 8.31147 14.4596 5 10.3822 5C6.35533 5 3.08143 8.2304 3.0013 12.2455C2.91841 16.3959 6.80482 20 10.9478 20H11.469C15.1215 20 20.0171 17.1353 20.782 13.6448C20.9232 13.0014 20.416 12.3966 19.7583 12.3966ZM7.41954 12.5786C7.41954 13.1249 6.97358 13.5717 6.42833 13.5717C5.88307 13.5717 5.43714 13.1247 5.43714 12.5786V10.972C5.43714 10.4257 5.88307 9.97892 6.42833 9.97892C6.97358 9.97892 7.41954 10.4257 7.41954 10.972V12.5786ZM10.8614 12.5786C10.8614 13.1249 10.4154 13.5717 9.87022 13.5717C9.32492 13.5717 8.87901 13.1247 8.87901 12.5786V10.972C8.87901 10.4257 9.32512 9.97892 9.87022 9.97892C10.4154 9.97892 10.8614 10.4257 10.8614 10.972V12.5786Z" fill="#EFEFEF"/>
</svg>
