<svg width="24" height="24" viewBox="0 0 24 24" fill="none" xmlns="http://www.w3.org/2000/svg">
<path d="M13.5001 3C13.9123 3 14.401 3.30173 14.5855 3.67074L15.7501 5.99993H8.24993L9.41448 3.67074C9.59905 3.30173 10.0877 3 10.4999 3H13.5001Z" fill="#EFEFEF"/>
<path fill-rule="evenodd" clip-rule="evenodd" d="M19.4999 7.5C20.3248 7.5 21 8.17522 21 9.00007V19.4999C21 20.3248 20.3248 21 19.4999 21H4.50007C3.67522 21 3 20.3248 3 19.4999V9.00007C3 8.17522 3.67522 7.5 4.50007 7.5H19.4999ZM8.24993 14.25C8.24993 16.3214 9.92864 18.0001 12 18.0001C14.0714 18.0001 15.7501 16.3214 15.7501 14.25C15.7501 12.1786 14.0714 10.4999 12 10.4999C9.92864 10.4999 8.24993 12.1786 8.24993 14.25Z" fill="#EFEFEF"/>
</svg>
