<svg width="24" height="24" viewBox="0 0 24 24" fill="none" xmlns="http://www.w3.org/2000/svg">
<path d="M5.99991 4.87515V3H21V18.0001H19.125V4.87515H5.99991Z" fill="#EFEFEF"/>
<path fill-rule="evenodd" clip-rule="evenodd" d="M4.50009 6.00015H16.5C17.3247 6.00015 18 6.67537 18 7.5V19.5001C18 20.3248 17.3247 21 16.5 21H4.50009C3.6752 21 3 20.3248 3 19.5001V7.5C3 6.67537 3.6752 6.00015 4.50009 6.00015ZM15 10.5001C15 9.67169 14.3285 9.00007 13.5 9.00007C12.6716 9.00007 12 9.67169 12 10.5001C12 11.3286 12.6716 12 13.5 12C14.3285 12 15 11.3286 15 10.5001ZM4.50009 19.5001H16.5V17.3788L12.7499 13.629L10.5645 15.8144L4.50009 8.99287V19.5001Z" fill="#EFEFEF"/>
</svg>
