<svg width="24" height="24" viewBox="0 0 24 24" fill="none" xmlns="http://www.w3.org/2000/svg">
<path d="M21.001 4.06034L16.2295 8.83187L15.1691 7.77153L19.9406 3L21.001 4.06034Z" fill="#EFEFEF"/>
<path d="M7.7724 8.83452L3.00071 4.06283L4.06121 3.00233L8.8329 7.77402L7.7724 8.83452Z" fill="#EFEFEF"/>
<path d="M12.7494 12.3755V18.0002H15.75V19.5H8.25005V18.0002H11.2496V12.3755H12.7494Z" fill="#EFEFEF"/>
<path d="M11.9995 3.0009C10.7573 3.0009 9.74961 4.00862 9.74961 5.25079C9.74961 6.4943 10.7573 7.50067 11.9995 7.50067C13.243 7.50067 14.2494 6.4943 14.2494 5.25079C14.2494 4.00862 13.243 3.0009 11.9995 3.0009Z" fill="#EFEFEF"/>
<path d="M10.4995 8.25055H13.4995C14.327 8.25055 14.9993 8.92305 14.9993 9.75055V11.2506H8.99949V9.75055C8.99949 8.92282 9.67176 8.25055 10.4995 8.25055Z" fill="#EFEFEF"/>
<path d="M5.99978 12.7503C4.75762 12.7503 3.74989 13.7581 3.74989 15.0002C3.74989 16.2437 4.75762 17.2501 5.99978 17.2501C7.24329 17.2501 8.24967 16.2437 8.24967 15.0002C8.24967 13.7583 7.24352 12.7503 5.99978 12.7503Z" fill="#EFEFEF"/>
<path d="M4.5 18.0002H6.74989V21H3V19.5C3 18.6725 3.67249 18.0002 4.5 18.0002Z" fill="#EFEFEF"/>
<path d="M17.2492 18.0002H19.4991C20.3269 18.0002 20.9991 18.6725 20.9991 19.5V21H17.2492V18.0002Z" fill="#EFEFEF"/>
<path d="M15.7494 15.0002C15.7494 13.7581 16.7572 12.7503 17.9993 12.7503C19.2428 12.7503 20.2492 13.7583 20.2492 15.0002C20.2492 16.2437 19.2428 17.2501 17.9993 17.2501C16.7572 17.2501 15.7494 16.2437 15.7494 15.0002Z" fill="#EFEFEF"/>
</svg>
