<svg width="24" height="24" viewBox="0 0 24 24" fill="none" xmlns="http://www.w3.org/2000/svg">
<path d="M7.99115 3.13575C7.67766 2.95475 7.29137 2.95475 6.97787 3.13575L2.50664 5.71721C2.19314 5.89822 2 6.23272 2 6.59474V11.7577C2 12.1197 2.19314 12.4542 2.50664 12.6352L6.97787 15.2167C7.29137 15.3977 7.67766 15.3977 7.99115 15.2167L11.4508 13.2192C12.4351 12.6728 13.4071 12.1017 14.3785 11.5309C14.9214 11.2119 15.4642 10.893 16.0089 10.5786C16.3223 10.3975 16.7086 10.3975 17.0221 10.5786L19.5189 12.0201C19.8324 12.2011 20.0256 12.5356 20.0256 12.8976V15.7807C20.0256 16.1427 19.8324 16.4772 19.5189 16.6582L17.0221 18.0997C16.7086 18.2807 16.3223 18.2807 16.0089 18.0997L13.512 16.6582C13.1985 16.4772 13.0054 16.1427 13.0054 15.7807V14.0215L11.031 15.1074V16.9206C11.031 17.2826 11.2241 17.6171 11.5376 17.7981L16.0089 20.3796C16.3223 20.5606 16.7086 20.5606 17.0221 20.3796L21.4934 17.7981C21.8069 17.6171 22 17.2826 22 16.9206V11.7577C22 11.3957 21.8069 11.0611 21.4934 10.8801L17.0221 8.29869C16.7086 8.11768 16.3223 8.11768 16.0089 8.29869L12.5492 10.2961C11.5649 10.8426 10.5929 11.4136 9.62146 11.9844C9.07858 12.3034 8.53582 12.6223 7.99115 12.9368C7.67766 13.1178 7.29137 13.1178 6.97787 12.9368L4.48105 11.4953C4.16756 11.3143 3.97441 10.9798 3.97441 10.6177V7.73467C3.97441 7.37266 4.16756 7.03815 4.48105 6.85715L6.97787 5.41562C7.29137 5.23462 7.67766 5.23462 7.99115 5.41562L10.488 6.85715C10.8015 7.03815 10.9946 7.37266 10.9946 7.73467V9.49386L12.969 8.40794V6.59474C12.969 6.23272 12.7759 5.89822 12.4624 5.71721L7.99115 3.13575Z" fill="#EFEFEF"/>
</svg>
