<svg width="24" height="24" viewBox="0 0 24 24" fill="none" xmlns="http://www.w3.org/2000/svg">
<path d="M11.375 11.4286H12.625C13.6602 11.4286 14.5 12.1964 14.5 13.1429C14.5 14.0894 13.66 14.856 12.625 14.8572V16H11.375V14.8572C10.3398 14.8572 9.5 14.0894 9.5 13.1429H10.75C10.75 13.4587 11.0296 13.7143 11.375 13.7143H12.6237C12.9693 13.7143 13.2488 13.4587 13.2488 13.1429H13.25C13.25 12.827 12.9706 12.5714 12.625 12.5714H11.375C10.3398 12.5714 9.5 11.8036 9.5 10.8571C9.5 9.91025 10.3398 9.14276 11.375 9.14276V8H12.625V9.14276C13.6602 9.14276 14.5 9.91058 14.5 10.8571H13.25C13.25 10.5413 12.9706 10.2857 12.625 10.2857H11.375C11.0296 10.2857 10.75 10.5413 10.75 10.8571C10.75 11.173 11.0296 11.4286 11.375 11.4286Z" fill="#EFEFEF"/>
<path fill-rule="evenodd" clip-rule="evenodd" d="M11.2857 20.5421C7.12157 20.1986 3.80144 16.8784 3.45791 12.7143H2V11.2857H3.45791C3.80144 7.12157 7.12157 3.80144 11.2857 3.45791V2H12.7143V3.45791C16.8784 3.80144 20.1986 7.12157 20.5421 11.2857H22V12.7143H20.5421C20.1986 16.8784 16.8784 20.1986 12.7143 20.5421V22H11.2857V20.5421ZM11.2857 4.89241V6.66667H12.7143V4.89241C16.0889 5.22746 18.7725 7.91113 19.1076 11.2857H17.3333V12.7143H19.1076C18.7725 16.0889 16.0889 18.7725 12.7143 19.1076V17.3333H11.2857V19.1076C7.91113 18.7725 5.22746 16.0889 4.89241 12.7143H6.66667V11.2857H4.89241C5.22746 7.91113 7.91113 5.22746 11.2857 4.89241Z" fill="#EFEFEF"/>
</svg>
