<svg width="24" height="24" viewBox="0 0 24 24" fill="none" xmlns="http://www.w3.org/2000/svg">
<path fill-rule="evenodd" clip-rule="evenodd" d="M13.4521 6.12679L16.8746 6.54158L14.3495 8.88884L15.0127 12.272L12 10.5959L8.98735 12.272L9.65046 8.88884L7.12543 6.54158L10.5479 6.12679L12 3L13.4521 6.12679ZM14.56 7.29364L13.2339 8.52635L13.5821 10.3031L12 9.42283L10.4179 10.3031L10.7661 8.52635L9.44003 7.29364L11.2374 7.07581L12 5.43372L12.7626 7.07581L14.56 7.29364Z" fill="#EFEFEF"/>
<path fill-rule="evenodd" clip-rule="evenodd" d="M8.32667 14.3275L6.87457 11.2007L5.42247 14.3275L2 14.7423L4.52503 17.0895L3.86192 20.4727L6.87457 18.7966L9.88722 20.4727L9.22411 17.0895L11.7491 14.7423L8.32667 14.3275ZM9.43454 15.4943L7.63717 15.2765L6.87457 13.6344L6.11198 15.2765L4.31461 15.4943L5.64067 16.727L5.29243 18.5037L6.87457 17.6235L8.45672 18.5037L8.10847 16.727L9.43454 15.4943Z" fill="#EFEFEF"/>
<path fill-rule="evenodd" clip-rule="evenodd" d="M18.5775 14.3275L17.1254 11.2007L15.6733 14.3275L12.2509 14.7423L14.7759 17.0895L14.1128 20.4727L17.1254 18.7966L20.1381 20.4727L19.475 17.0895L22 14.7423L18.5775 14.3275ZM19.6854 15.4943L17.888 15.2765L17.1254 13.6344L16.3628 15.2765L14.5655 15.4943L15.8915 16.727L15.5433 18.5037L17.1254 17.6235L18.7076 18.5037L18.3593 16.727L19.6854 15.4943Z" fill="#EFEFEF"/>
</svg>
