<svg width="24" height="24" viewBox="0 0 24 24" fill="none" xmlns="http://www.w3.org/2000/svg">
<path d="M12.6918 19L9.94438 17.8222V5C9.94438 5 15.9152 6.0032 16.737 8.48899C17.559 10.975 16.278 12.5852 15.8284 12.6324C14.5738 12.7632 14.098 11.9782 14.098 11.9782V7.96559L12.7352 7.39859L12.6918 19ZM13.4058 17.2336V18.7378C13.4058 18.7378 19.8739 16.6444 20.8257 15.8378C21.7777 15.0308 18.5976 13.025 16.8886 13.417C16.8886 13.417 15.073 13.5052 13.427 14.2238C13.4116 14.2302 13.427 15.5756 13.427 15.5756L17.602 14.5948L19.0732 15.249L13.4058 17.2336ZM9.25219 17.1246C9.25219 17.1246 8.40859 17.5606 6.52659 17.5386C4.6446 17.5166 2.97861 16.9932 3.00021 15.8596C3.02181 14.7256 6.1154 13.4826 9.23059 12.9592V14.551L5.9208 15.4232C5.9208 15.4232 5.3542 16.1436 6.1156 16.1646C7.84619 16.213 9.27398 15.7502 9.27398 15.7502L9.25219 17.1246Z" fill="#EFEFEF"/>
</svg>
