<svg width="24" height="25" viewBox="0 0 24 25" fill="none" xmlns="http://www.w3.org/2000/svg">
<path fill-rule="evenodd" clip-rule="evenodd" d="M16.772 4.06155V8.08499C16.772 8.51651 17.1217 8.86624 17.5532 8.86624H21.0688C21.5003 8.86624 21.8501 8.51651 21.8501 8.08499V4.06155C21.8501 3.63004 21.5003 3.2803 21.0688 3.2803H17.5532C17.1217 3.2803 16.772 3.6301 16.772 4.06155ZM20.2876 4.8428V7.30374H18.3345V4.8428H20.2876Z" fill="#EFEFEF"/>
<path d="M15.1644 18.5069C15.1644 18.0753 14.8146 17.7256 14.3831 17.7256H13.6079C12.7463 17.7256 12.0454 17.1927 12.0454 16.3311V16.226C12.0454 15.7965 11.6972 15.4483 11.2677 15.4483C10.8382 15.4483 10.49 15.7965 10.49 16.226V16.5426C10.5991 18.1675 11.9559 19.2881 13.6079 19.2881H14.3831C14.8146 19.2881 15.1644 18.9384 15.1644 18.5069Z" fill="#EFEFEF"/>
<path d="M11.2677 9.2803C11.6972 9.2803 12.0454 8.9321 12.0454 8.50259V8.39749C12.0454 7.53592 12.7463 6.83499 13.6079 6.83499H14.3831C14.8146 6.83499 15.1644 6.48526 15.1644 6.05374C15.1644 5.62228 14.8146 5.27249 14.3831 5.27249H13.6079C11.9559 5.27249 10.5991 6.56107 10.49 8.18594V8.50259C10.49 8.9321 10.8382 9.2803 11.2677 9.2803Z" fill="#EFEFEF"/>
<path fill-rule="evenodd" clip-rule="evenodd" d="M16.772 20.4991V16.4756C16.772 16.0441 17.1217 15.6944 17.5532 15.6944H21.0688C21.5003 15.6944 21.8501 16.0441 21.8501 16.4756V20.4991C21.8501 20.9306 21.5003 21.2803 21.0688 21.2803H17.5532C17.1217 21.2803 16.772 20.9306 16.772 20.4991ZM20.2876 19.7178V17.2569H18.3345V19.7178H20.2876Z" fill="#EFEFEF"/>
<path d="M10.451 12.1793L7.84998 9.57822C7.51803 9.24625 6.97984 9.24625 6.64789 9.57822C6.31594 9.91019 6.31594 10.4483 6.64789 10.7803L7.79792 11.9303H2.85C2.38055 11.9303 2 12.3109 2 12.7803C2 13.2497 2.38055 13.6303 2.85 13.6303H7.79792L6.59584 14.8324C6.26389 15.1643 6.26389 15.7025 6.59584 16.0345C6.92778 16.3664 7.46597 16.3664 7.79792 16.0345L10.451 13.3813C10.783 13.0494 10.783 12.5112 10.451 12.1793Z" fill="#EFEFEF"/>
</svg>
