<svg width="24" height="24" viewBox="0 0 24 24" fill="none" xmlns="http://www.w3.org/2000/svg">
<path fill-rule="evenodd" clip-rule="evenodd" d="M12 21C16.9706 21 21 16.9706 21 12C21 7.02944 16.9706 3 12 3C7.02944 3 3 7.02944 3 12C3 16.9706 7.02944 21 12 21ZM10.2001 17.4C10.2001 18.1735 10.8265 18.8002 11.6 18.8002C12.3735 18.8002 12.9999 18.1735 12.9999 17.4C12.9999 16.6274 12.3735 16.0001 11.6 16.0001C10.8265 16.0001 10.2001 16.6274 10.2001 17.4ZM12.9858 13.3042L14.1452 12.144C14.7968 11.4931 15.2 10.5931 15.2 9.6C15.2 7.61256 13.5882 6 11.6 6C9.61256 6 8 7.61112 8 9.6H9.60008C9.60008 8.49528 10.4953 7.60008 11.6 7.60008C12.7047 7.60008 13.5999 8.49528 13.5999 9.6C13.5999 10.1518 13.376 10.6517 13.0141 11.0126L11.8549 12.1735C11.1517 12.8758 10.8001 13.7976 10.8001 14.7187V14.8001H12.3999V14.719C12.3999 14.2073 12.5953 13.6946 12.9858 13.3042Z" fill="#EFEFEF"/>
</svg>
