<svg width="24" height="24" viewBox="0 0 24 24" fill="none" xmlns="http://www.w3.org/2000/svg">
<path d="M10.1112 4C8.14773 4 6.55573 5.592 6.55573 7.55551C6.55573 9.51881 8.14773 11.1108 10.1112 11.1108C12.0747 11.1108 13.6667 9.51922 13.6667 7.55551C13.6667 5.5916 12.0747 4 10.1112 4Z" fill="#EFEFEF"/>
<path d="M6.55551 12.8888C4.592 12.8888 3 14.481 3 16.4445V20H17.2222L17.2222 18.8024C17.0554 18.8208 16.8859 18.8303 16.7142 18.8303C14.1894 18.8303 12.1429 16.7839 12.1429 14.2589C12.1429 13.7815 12.216 13.3213 12.3517 12.8888H6.55551Z" fill="#EFEFEF"/>
<path fill-rule="evenodd" clip-rule="evenodd" d="M13.2857 13.6874C13.2857 11.4781 15.0765 9.68745 17.2856 9.68745C19.495 9.68745 21.2857 11.4779 21.2857 13.6873C21.2857 15.8968 19.495 17.6874 17.2856 17.6874C15.0765 17.6874 13.2857 15.8968 13.2857 13.6874ZM17.8857 14.2873H19.6856V13.0876H17.8857V11.2874H16.6856V13.0876H14.8857V14.2873H16.6856V16.0873H17.8857V14.2873Z" fill="#EFEFEF"/>
</svg>
