<svg width="24" height="25" viewBox="0 0 24 25" fill="none" xmlns="http://www.w3.org/2000/svg">
<path d="M20.3777 10.0001C20.7899 10.0001 21.1277 9.66235 21.1277 9.24992V4.74992C21.1277 4.33772 20.7899 4 20.3777 4H12.8776C12.4654 4 12.1277 4.33772 12.1277 4.74992V9.24992C12.1277 9.66235 12.4654 10.0001 12.8776 10.0001H20.3777Z" fill="#EFEFEF"/>
<path d="M11.3778 22C11.79 22 12.1277 21.6623 12.1277 21.2501V16.7501C12.1277 16.3377 11.79 15.9999 11.3778 15.9999H3.87761C3.46541 15.9999 3.12769 16.3377 3.12769 16.7501V21.2501C3.12769 21.6623 3.46541 22 3.87761 22H11.3778Z" fill="#EFEFEF"/>
<path d="M6.87776 11.9393L6.87843 9.24924C6.87843 8.42079 7.55006 7.75007 8.37851 7.75007H10.6276V6.24999H8.37851C6.72183 6.24999 5.37768 7.59257 5.37768 9.24924V11.9393L4.18834 10.7507L3.12769 11.8113L5.59751 14.2802C5.88978 14.5732 6.36498 14.5732 6.65816 14.2802L9.12798 11.8104L8.06711 10.75L6.87776 11.9393Z" fill="#EFEFEF"/>
<path d="M17.3769 16.7507L17.3776 14.0606L16.1882 15.25L15.1276 14.1893L17.5972 11.7197C17.8904 11.4268 18.3656 11.4268 18.6578 11.7197L21.1277 14.1887L20.067 15.2493L18.8777 14.0606V16.7507C18.8777 18.4074 17.5335 19.75 15.8768 19.75H13.6278V18.2499H15.8768C16.7053 18.2499 17.3769 17.5792 17.3769 16.7507Z" fill="#EFEFEF"/>
</svg>
