<svg width="24" height="24" viewBox="0 0 24 24" fill="none" xmlns="http://www.w3.org/2000/svg">
<path fill-rule="evenodd" clip-rule="evenodd" d="M18.6666 4H5.3334C4.6002 4 4 4.6002 4 5.3334V16C4 16.7328 4.6002 17.3332 5.3334 17.3332H11.3334V18.6664H8V20H16V18.6664H12.6668V17.3332H18.6666C19.3996 17.3332 20 16.7328 20 16V5.3334C20 4.6002 19.3996 4 18.6666 4ZM6 9.66666H7.92V15H6V9.66666ZM11.28 10.5555H9.35999V15H11.28V10.5555ZM12.72 7H14.64V15H12.72V7ZM18 9.66666H16.08V15H18V9.66666Z" fill="#EFEFEF"/>
</svg>
