<svg width="24" height="24" viewBox="0 0 24 24" fill="none" xmlns="http://www.w3.org/2000/svg">
<path d="M9.33487 14.6671C9.33487 16.0468 9.33487 18.0009 9.33487 18.0001C9.33487 18.3685 9.03544 18.6673 8.66824 18.6673H8.66683C8.29841 18.6673 8.0002 18.3685 8.0002 18.0009V13.3339H17.334V6.0001C17.334 4.89583 16.4386 4 15.334 4H6.0001C4.89586 4 4 4.89524 4 6.0001V10.6669H5.33346V6.0001C5.33346 5.63149 5.63149 5.33346 6.0001 5.33346C6.36871 5.33346 6.66673 5.63149 6.66673 6.0001V10.6669V11.792V18.0007C6.66673 19.1047 7.56217 20.0008 8.66683 20H18.0007C19.105 20 20.0008 19.1046 20.0008 18.0007V14.6671H9.33487ZM8.66683 6.0001H15.334V7.33356H8.66683V6.0001ZM8.66683 8.66683H15.334V10.0003H8.66683V8.66683ZM18.0007 18.0009H11.3338V16.6672H18.0007V18.0009Z" fill="#EFEFEF"/>
</svg>
