<svg width="24" height="24" viewBox="0 0 24 24" fill="none" xmlns="http://www.w3.org/2000/svg">
<path d="M11.0674 6.54169H13.6501V8.7103C13.6501 9.28787 13.1815 9.75647 12.6039 9.75647H11.0674V6.54169Z" fill="#EFEFEF"/>
<path fill-rule="evenodd" clip-rule="evenodd" d="M17.3334 3H7.39489C6.62115 3 6 3.62116 6 4.39488V15.3033C6 15.8264 6.23974 16.3277 6.64296 16.6546L11.7103 20.763C12.0917 21.079 12.6475 21.079 13.0289 20.763L18.0854 16.6546C18.4886 16.3277 18.7283 15.8264 18.7283 15.3033V4.39488C18.7283 3.62116 18.1072 3 17.3334 3ZM16.636 6.13849C16.636 5.56092 16.1674 5.09232 15.5898 5.09232V5.08143H9.13848C8.56092 5.08143 8.09232 5.55002 8.09232 6.12759V14.1809C8.09232 14.486 8.21219 14.7693 8.44104 14.9655L11.0674 17.2867V11.511H12.6039C13.1815 11.511 13.6501 11.9796 13.6501 12.5571V17.2867L16.2873 14.9873C16.5052 14.7911 16.636 14.5078 16.636 14.2027V12.0558C16.6251 11.3693 16.0693 10.8135 15.3828 10.8026C16.0693 10.7917 16.6251 10.236 16.636 9.54941V6.13849Z" fill="#EFEFEF"/>
</svg>
