<svg width="25" height="25" viewBox="0 0 25 25" fill="none" xmlns="http://www.w3.org/2000/svg">
<path fill-rule="evenodd" clip-rule="evenodd" d="M12.52 3.87869H11.52C11.2439 3.87869 11.02 4.10255 11.02 4.37869V5.37869C11.02 5.65483 11.2439 5.87869 11.52 5.87869H12.52C12.7962 5.87869 13.02 5.65483 13.02 5.37869V4.37869C13.02 4.10255 12.7962 3.87869 12.52 3.87869ZM11.52 2.37869C10.4155 2.37869 9.52002 3.27412 9.52002 4.37869V5.37869C9.52002 6.48326 10.4154 7.37869 11.52 7.37869H12.52C13.6246 7.37869 14.52 6.48326 14.52 5.37869V4.37869C14.52 3.27412 13.6246 2.37869 12.52 2.37869H11.52Z" fill="#EFEFEF"/>
<path d="M5.338 7.38271C4.75222 6.79693 4.75222 5.84718 5.338 5.26139C5.92379 4.67561 6.87354 4.67561 7.45932 5.26139C8.04511 5.84718 8.04511 6.79693 7.45932 7.38271C6.87354 7.9685 5.92379 7.9685 5.338 7.38271Z" fill="#EFEFEF"/>
<path d="M16.5807 7.38271C15.9949 6.79693 15.9949 5.84718 16.5807 5.26139C17.1665 4.67561 18.1162 4.67561 18.702 5.26139C19.2878 5.84718 19.2878 6.79693 18.702 7.38271C18.1162 7.9685 17.1665 7.9685 16.5807 7.38271Z" fill="#EFEFEF"/>
<path d="M5.338 19.3394C4.75222 18.7536 4.75222 17.8038 5.338 17.2181C5.92379 16.6323 6.87354 16.6323 7.45932 17.2181C8.04511 17.8038 8.04511 18.7536 7.45932 19.3394C6.87354 19.9252 5.92379 19.9252 5.338 19.3394Z" fill="#EFEFEF"/>
<path d="M16.5807 19.3394C15.9949 18.7536 15.9949 17.8038 16.5807 17.2181C17.1665 16.6323 18.1162 16.6323 18.702 17.2181C19.2878 17.8038 19.2878 18.7536 18.702 19.3394C18.1162 19.9252 17.1665 19.9252 16.5807 19.3394Z" fill="#EFEFEF"/>
<path fill-rule="evenodd" clip-rule="evenodd" d="M20.5984 12.8003V11.8003C20.5984 11.5242 20.3745 11.3003 20.0984 11.3003H19.0984C18.8222 11.3003 18.5984 11.5242 18.5984 11.8003V12.8003C18.5984 13.0765 18.8222 13.3003 19.0984 13.3003H20.0984C20.3745 13.3003 20.5984 13.0765 20.5984 12.8003ZM22.0984 11.8003C22.0984 10.6958 21.203 9.80032 20.0984 9.80032H19.0984C17.9938 9.80032 17.0984 10.6958 17.0984 11.8003V12.8003C17.0984 13.9049 17.9938 14.8003 19.0984 14.8003H20.0984C21.203 14.8003 22.0984 13.9049 22.0984 12.8003V11.8003Z" fill="#EFEFEF"/>
<path fill-rule="evenodd" clip-rule="evenodd" d="M12.52 18.8787H11.52C11.2439 18.8787 11.02 19.1026 11.02 19.3787V20.3787C11.02 20.6548 11.2439 20.8787 11.52 20.8787H12.52C12.7962 20.8787 13.02 20.6548 13.02 20.3787V19.3787C13.02 19.1026 12.7962 18.8787 12.52 18.8787ZM11.52 17.3787C10.4155 17.3787 9.52002 18.2741 9.52002 19.3787V20.3787C9.52002 21.4833 10.4154 22.3787 11.52 22.3787H12.52C13.6246 22.3787 14.52 21.4833 14.52 20.3787V19.3787C14.52 18.2741 13.6246 17.3787 12.52 17.3787H11.52Z" fill="#EFEFEF"/>
<path fill-rule="evenodd" clip-rule="evenodd" d="M5.59839 12.8003V11.8003C5.59839 11.5242 5.37453 11.3003 5.09839 11.3003H4.09839C3.82225 11.3003 3.59839 11.5242 3.59839 11.8003V12.8003C3.59839 13.0765 3.82225 13.3003 4.09839 13.3003H5.09839C5.37453 13.3003 5.59839 13.0765 5.59839 12.8003ZM7.09839 11.8003C7.09839 10.6958 6.20296 9.80032 5.09839 9.80032H4.09839C2.99382 9.80032 2.09839 10.6958 2.09839 11.8003V12.8003C2.09839 13.9049 2.99382 14.8003 4.09839 14.8003H5.09839C6.20296 14.8003 7.09839 13.9049 7.09839 12.8003V11.8003Z" fill="#EFEFEF"/>
</svg>
