<svg width="24" height="24" viewBox="0 0 24 24" fill="none" xmlns="http://www.w3.org/2000/svg">
<path fill-rule="evenodd" clip-rule="evenodd" d="M10.5 3C6.35786 3 3 6.35786 3 10.5C3 14.6421 6.35786 18 10.5 18C11.9527 18 13.309 17.587 14.4577 16.8719L18.7929 21.2071C19.1834 21.5976 19.8166 21.5976 20.2071 21.2071C20.5976 20.8166 20.5976 20.1834 20.2071 19.7929L16.0064 15.5922C17.2438 14.2548 18 12.4657 18 10.5C18 6.35786 14.6421 3 10.5 3ZM5 10.5C5 7.46243 7.46243 5 10.5 5C13.5376 5 16 7.46243 16 10.5C16 13.5376 13.5376 16 10.5 16C7.46243 16 5 13.5376 5 10.5Z" fill="#EFEFEF"/>
</svg>
