<svg width="24" height="24" viewBox="0 0 24 24" fill="none" xmlns="http://www.w3.org/2000/svg">
<path d="M16.5 12C15.1502 12 13.9424 12.5969 13.1178 13.5381L10.2614 11.7802C10.4077 11.3788 10.5001 10.9517 10.5001 10.4999C10.5001 10.2047 10.4578 9.92077 10.3933 9.64447L14.1902 7.8924C14.7401 8.56335 15.5647 8.99985 16.5002 8.99985C18.1562 8.99985 19.5001 7.6566 19.5001 5.99992C19.5001 4.34325 18.156 3 16.5 3C14.8426 3 13.5001 4.34325 13.5001 5.99992C13.5001 6.18285 13.5228 6.35947 13.5534 6.53385L9.76102 8.28435C9.0777 7.3578 7.98847 6.74985 6.75007 6.74985C4.67872 6.75008 3 8.42858 3 10.4999C3 12.5713 4.67872 14.25 6.75007 14.25C7.82805 14.25 8.79353 13.7885 9.47753 13.0591L12.3296 14.8141C12.1186 15.3354 12 15.9031 12 16.5C12 18.9858 14.0142 21 16.5 21C18.9844 21 21 18.9858 21 16.5C21 14.0142 18.9844 12 16.5 12Z" fill="#EFEFEF"/>
</svg>
