<svg width="24" height="24" viewBox="0 0 24 24" fill="none" xmlns="http://www.w3.org/2000/svg">
<path d="M3 6.25013C3 6.25013 4.66795 6.25013 5.25083 6.25013C5.83371 6.25013 6.64821 6.58791 7.06128 7.00011C7.32618 7.26378 8.86517 8.80488 9.93941 9.87888L8.87894 10.9393L6.00082 8.06058C5.87004 7.92951 5.43534 7.7501 5.25083 7.7501H3V6.25013ZM20.7087 17.7066L17.4159 20.9996L16.3554 19.9392L18.5448 17.7498H16.7499C16.167 17.7498 15.3517 17.412 14.9395 16.9998C14.6758 16.7361 13.1359 15.1971 12.0607 14.1229L13.1221 13.0603L16.0012 15.9393C16.1311 16.0704 16.5655 16.2498 16.7499 16.2498H18.5448L16.3554 14.0605L17.4159 13L20.7086 16.293C21.0971 16.6812 21.0971 17.3184 20.7087 17.7066ZM20.7087 7.70691L17.4159 10.9999L16.3555 9.93947L18.5448 7.7501H16.7499C16.5654 7.7501 16.131 7.9298 16.0012 8.06058C16.0012 8.06058 7.47471 16.5876 7.06163 16.9998C6.64856 17.412 5.83406 17.7498 5.25118 17.7498C4.66831 17.7498 3.00035 17.7498 3.00035 17.7498V16.2498H5.25113C5.43563 16.2498 5.87033 16.0701 6.00111 15.9393C6.00111 15.9393 14.5276 7.41202 14.9394 7.00011C15.3516 6.58791 16.167 6.25013 16.7499 6.25013H18.5447L16.3553 4.06047L17.4159 3L20.7086 6.29302C21.0971 6.68154 21.0971 7.31839 20.7087 7.70691Z" fill="#EFEFEF"/>
</svg>
