<svg width="24" height="24" viewBox="0 0 24 24" fill="none" xmlns="http://www.w3.org/2000/svg">
<path fill-rule="evenodd" clip-rule="evenodd" d="M5 3H19C20.1 3 21 3.9 21 5V19C21 20.1 20.1 21 19 21H5C3.9 21 3 20.1 3 19V5C3 3.9 3.9 3 5 3ZM9.56017 15.6818L7.15998 12.4815C7.05614 12.3432 7 12.1748 7 12.0018C7 11.8288 7.05614 11.6605 7.15998 11.5221L9.56017 8.32183C9.62304 8.23747 9.70194 8.16634 9.79235 8.11253C9.88276 8.05871 9.9829 8.02327 10.087 8.00822C10.1912 7.99317 10.2972 7.99882 10.3992 8.02484C10.5011 8.05086 10.597 8.09675 10.6811 8.15986C10.7653 8.22297 10.8362 8.30207 10.8898 8.39264C10.9433 8.4832 10.9785 8.58344 10.9933 8.68761C11.008 8.79179 11.0021 8.89785 10.9758 8.99972C10.9494 9.1016 10.9033 9.19728 10.8399 9.28128L9.39991 11.2017H16.2804C16.478 11.2226 16.661 11.3159 16.7939 11.4636C16.9269 11.6113 17.0005 11.8031 17.0005 12.0018C17.0005 12.2006 16.9269 12.3923 16.7939 12.54C16.661 12.6877 16.478 12.781 16.2804 12.8019H9.3999L10.8399 14.7223C10.9665 14.8921 11.0205 15.1051 10.9902 15.3146C10.96 15.5242 10.8478 15.7131 10.6784 15.8401C10.509 15.9671 10.2962 16.0218 10.0866 15.9921C9.87694 15.9624 9.68764 15.8508 9.56017 15.6818Z" fill="#EFEFEF"/>
</svg>
