<svg width="24" height="25" viewBox="0 0 24 25" fill="none" xmlns="http://www.w3.org/2000/svg">
<path fill-rule="evenodd" clip-rule="evenodd" d="M6 11.4522H5C4.72386 11.4522 4.5 11.676 4.5 11.9522V12.9522C4.5 13.2283 4.72386 13.4522 5 13.4522H6C6.27614 13.4522 6.5 13.2283 6.5 12.9522V11.9522C6.5 11.676 6.27614 11.4522 6 11.4522ZM5 9.95218C3.89543 9.95218 3 10.8476 3 11.9522V12.9522C3 14.0567 3.89543 14.9522 5 14.9522H6C7.10457 14.9522 8 14.0567 8 12.9522V11.9522C8 10.8476 7.10457 9.95218 6 9.95218H5Z" fill="#EFEFEF"/>
<path fill-rule="evenodd" clip-rule="evenodd" d="M19 17.7803H18C17.7239 17.7803 17.5 18.0042 17.5 18.2803V19.2803C17.5 19.5564 17.7239 19.7803 18 19.7803H19C19.2761 19.7803 19.5 19.5564 19.5 19.2803V18.2803C19.5 18.0042 19.2761 17.7803 19 17.7803ZM18 16.2803C16.8954 16.2803 16 17.1757 16 18.2803V19.2803C16 20.3849 16.8954 21.2803 18 21.2803H19C20.1046 21.2803 21 20.3849 21 19.2803V18.2803C21 17.1757 20.1046 16.2803 19 16.2803H18Z" fill="#EFEFEF"/>
<path fill-rule="evenodd" clip-rule="evenodd" d="M19 4.7803H18C17.7239 4.7803 17.5 5.00416 17.5 5.2803V6.2803C17.5 6.55645 17.7239 6.7803 18 6.7803H19C19.2761 6.7803 19.5 6.55645 19.5 6.2803V5.2803C19.5 5.00416 19.2761 4.7803 19 4.7803ZM18 3.2803C16.8954 3.2803 16 4.17573 16 5.2803V6.2803C16 7.38487 16.8954 8.2803 18 8.2803H19C20.1046 8.2803 21 7.38487 21 6.2803V5.2803C21 4.17573 20.1046 3.2803 19 3.2803H18Z" fill="#EFEFEF"/>
<path fill-rule="evenodd" clip-rule="evenodd" d="M10.9062 7.7803C10.9062 6.26152 12.1375 5.0303 13.6562 5.0303H15V6.5303H13.6562C12.9659 6.5303 12.4062 7.08995 12.4062 7.7803V16.7803C12.4062 17.4707 12.9659 18.0303 13.6562 18.0303H15V19.5303H13.6562C12.1375 19.5303 10.9062 18.2991 10.9062 16.7803V13.0303H7.65625V11.5303H10.9062V7.7803Z" fill="#EFEFEF"/>
</svg>
