<svg width="24" height="24" viewBox="0 0 24 24" fill="none" xmlns="http://www.w3.org/2000/svg">
<path d="M12.0011 3C7.02876 3 3 7.0302 3 11.9989C3 16.9698 7.02876 21 12.0011 21C16.9723 21 21 16.9698 21 11.9989C21 7.0302 16.9723 3 12.0011 3ZM7.20012 9.90012C7.20012 9.07176 7.87152 8.4 8.70024 8.4C9.5286 8.4 10.2 9.0714 10.2 9.90012C10.2 10.7288 9.5286 11.4002 8.69988 11.4002C7.87152 11.3999 7.20012 10.7285 7.20012 9.90012ZM7.79988 14.5945L8.59476 13.8C10.8793 14.871 13.2546 14.8112 15.4081 13.8022L16.2001 14.5945C13.881 17.7949 10.1204 17.7949 7.79988 14.5945ZM15.3001 11.3999C14.4718 11.3999 13.8 10.7285 13.8 9.89976C13.8 9.0714 14.4714 8.4 15.3001 8.4C16.1288 8.4 16.8002 9.0714 16.8002 9.90012C16.7999 10.7285 16.1285 11.3999 15.3001 11.3999Z" fill="#EFEFEF"/>
</svg>
