<svg width="24" height="24" viewBox="0 0 24 24" fill="none" xmlns="http://www.w3.org/2000/svg">
<path d="M5.24939 4.18962C5.37514 4.06986 5.54108 4 5.71202 4H21.6721C21.9638 4 22.1096 4.3493 21.9035 4.5539L18.7506 7.68264C18.6299 7.8024 18.464 7.87226 18.288 7.87226H2.32793C2.03629 7.87226 1.89042 7.52296 2.09662 7.31836L5.24939 4.18962Z" fill="#EFEFEF"/>
<path d="M5.24934 15.8713C5.37004 15.7515 5.53598 15.6817 5.71196 15.6817H21.6721C21.9637 15.6817 22.1095 16.031 21.9034 16.2356L18.7506 19.3643C18.6299 19.4841 18.464 19.5539 18.288 19.5539H2.32788C2.03624 19.5539 1.89037 19.2046 2.09656 19L5.24934 15.8713Z" fill="#EFEFEF"/>
<path d="M18.288 9.8034C18.464 9.8034 18.6299 9.87326 18.7506 9.99302L21.9034 13.1218C22.1095 13.3264 21.9637 13.6757 21.6721 13.6757H5.71196C5.53598 13.6757 5.37004 13.6058 5.24934 13.486L2.09656 10.3573C1.89037 10.1527 2.03624 9.8034 2.32788 9.8034H18.288Z" fill="#EFEFEF"/>
</svg>
