<svg width="24" height="24" viewBox="0 0 24 24" fill="none" xmlns="http://www.w3.org/2000/svg">
<path d="M4 4.66099L5.73872 10.0389L7.92223 3.32662L10.227 7.32972L12.4106 3.32662L14.6749 7.32972L16.8989 3.32662L19.2037 10.0389L20.902 4.66099C20.5785 4.13533 19.5676 3.00314 18.1119 3.00314H7.03265C6.29134 2.9627 4.64697 3.30236 4 4.66099Z" fill="#EFEFEF"/>
<path d="M4 19.339L5.73872 13.9611L7.92223 20.6734L10.227 16.6703L12.4106 20.6734L14.6749 16.6703L16.8989 20.6734L19.2037 13.9611L20.902 19.339C20.5785 19.8647 19.5676 20.9969 18.1119 20.9969H7.03265C6.29134 21.0373 4.64697 20.6976 4 19.339Z" fill="#EFEFEF"/>
</svg>
