<svg width="24" height="24" viewBox="0 0 24 24" fill="none" xmlns="http://www.w3.org/2000/svg">
<path d="M16.6691 4.7704L19.5676 4L18.8177 6.91893L9.58861 16.1482L10.1162 16.6757H11.2704V17.9731H9.57907L8.04527 16.4395L5.75177 18.7324L6.66929 19.6497L5.75197 20.5676L3 17.8153L3.91713 16.8979L4.83445 17.8153L7.12775 15.5222L5.59454 13.9886V12.2973H6.89191V13.4515L7.44027 14L16.6691 4.7704Z" fill="#EFEFEF"/>
<path d="M9.35172 11.0884L11.5 8.93987L7.33087 4.7704L4.43238 4L5.18235 6.91893L9.35172 11.0884Z" fill="#EFEFEF"/>
<path d="M14.6483 12.0884L12.5 14.2367L14.4114 16.1482L13.8838 16.6757H12.7296V17.9731H14.4209L15.9547 16.4395L18.2482 18.7324L17.3307 19.6497L18.248 20.5676L21 17.8153L20.0829 16.8979L19.1656 17.8153L16.8722 15.5222L18.4055 13.9886V12.2973H17.1081V13.4515L16.5597 14L14.6483 12.0884Z" fill="#EFEFEF"/>
</svg>
