<svg width="24" height="24" viewBox="0 0 24 24" fill="none" xmlns="http://www.w3.org/2000/svg">
<path d="M19.48 8.72867C19.48 10.132 18.342 11.27 16.9387 11.27C16.2367 11.27 15.6013 10.9853 15.1413 10.5253C14.648 10.0607 14.3407 9.40267 14.3407 8.67333C14.3407 7.27 15.4787 6.132 16.882 6.132C17.6113 6.132 18.2687 6.43933 18.7327 6.93133L18.734 6.93267C19.1947 7.37867 19.4807 8.00267 19.4807 8.69333V8.73V8.728L19.48 8.72867ZM11.458 16.4573C11.458 16.4547 11.458 16.452 11.458 16.4493C11.458 15.0153 10.2953 13.8533 8.862 13.8533C8.85933 13.8533 8.85667 13.8533 8.85333 13.8533H8.854C8.65467 13.8533 8.46067 13.876 8.274 13.9193L8.29133 13.916L9.37467 14.3533C9.89333 14.5553 10.2993 14.9513 10.5107 15.4493L10.5153 15.4627C10.6247 15.7 10.6887 15.9773 10.6887 16.2693C10.6887 16.548 10.6307 16.8133 10.526 17.0533L10.5307 17.0407C10.328 17.5593 9.93 17.9647 9.42933 18.1713L9.416 18.176C9.17933 18.2833 8.90267 18.3453 8.612 18.3453C8.33067 18.3453 8.06267 18.2867 7.82 18.1813L7.83267 18.186C7.68689 18.1304 7.47156 18.0453 7.18667 17.9307L6.55133 17.6753C6.776 18.0933 7.098 18.434 7.488 18.674L7.49933 18.6807C7.878 18.9193 8.338 19.0613 8.832 19.0613H8.85467H8.85333H8.86133C10.2953 19.0613 11.4573 17.8987 11.4573 16.4653C11.4573 16.4627 11.4573 16.46 11.4573 16.4567V16.4573H11.458ZM20.104 8.73933C20.1007 6.986 18.68 5.56533 16.9273 5.562C15.1733 5.56333 13.752 6.98533 13.752 8.73933C13.752 10.4933 15.1747 11.9167 16.9293 11.9167C17.8047 11.9167 18.598 11.5627 19.172 10.9893C19.7473 10.4333 20.1047 9.654 20.1047 8.792C20.1047 8.77333 20.1047 8.75467 20.104 8.73667V8.73933ZM21.6667 8.73933V8.74C21.6667 11.3573 19.5447 13.4793 16.9273 13.4793H16.9267L12.3747 16.8C12.2973 17.7073 11.8753 18.504 11.2427 19.068L11.2393 19.0707C10.63 19.646 9.80533 20 8.898 20C8.88267 20 8.86733 20 8.852 20H8.85467C7.16533 19.9987 5.75333 18.8153 5.40067 17.232L5.396 17.2087L3 16.25V11.7813L7.05333 13.4167C7.55867 13.1027 8.17267 12.9167 8.82933 12.9167H8.85667H8.85533C8.94556 12.9167 9.06711 12.9236 9.22 12.9373L12.1787 8.698C12.212 6.09933 14.324 4.00467 16.9267 4H16.9273C19.5433 4.004 21.6633 6.12333 21.6673 8.73933V8.74L21.6667 8.73933Z" fill="#EFEFEF"/>
</svg>
