<svg width="24" height="25" viewBox="0 0 24 25" fill="none" xmlns="http://www.w3.org/2000/svg">
<path fill-rule="evenodd" clip-rule="evenodd" d="M5.48486 4.93704H4.48486C4.20872 4.93704 3.98486 5.1609 3.98486 5.43704V6.43704C3.98486 6.71318 4.20872 6.93704 4.48486 6.93704H5.48486C5.76101 6.93704 5.98486 6.71318 5.98486 6.43704V5.43704C5.98486 5.1609 5.76101 4.93704 5.48486 4.93704ZM4.48486 3.43704C3.38029 3.43704 2.48486 4.33247 2.48486 5.43704V6.43704C2.48486 7.54161 3.38029 8.43704 4.48486 8.43704H5.48486C6.58943 8.43704 7.48486 7.54161 7.48486 6.43704V5.43704C7.48486 4.33247 6.58943 3.43704 5.48486 3.43704H4.48486Z" fill="#EFEFEF"/>
<path fill-rule="evenodd" clip-rule="evenodd" d="M5.48486 17.7803H4.48486C4.20872 17.7803 3.98486 18.0042 3.98486 18.2803V19.2803C3.98486 19.5564 4.20872 19.7803 4.48486 19.7803H5.48486C5.76101 19.7803 5.98486 19.5564 5.98486 19.2803V18.2803C5.98486 18.0042 5.76101 17.7803 5.48486 17.7803ZM4.48486 16.2803C3.38029 16.2803 2.48486 17.1757 2.48486 18.2803V19.2803C2.48486 20.3849 3.38029 21.2803 4.48486 21.2803H5.48486C6.58943 21.2803 7.48486 20.3849 7.48486 19.2803V18.2803C7.48486 17.1757 6.58943 16.2803 5.48486 16.2803H4.48486Z" fill="#EFEFEF"/>
<path fill-rule="evenodd" clip-rule="evenodd" d="M11.1089 7.7803C11.1089 6.26152 9.87767 5.0303 8.35889 5.0303H7.01514V6.5303H8.35889C9.04924 6.5303 9.60889 7.08995 9.60889 7.7803V16.7803C9.60889 17.4707 9.04924 18.0303 8.35889 18.0303H7.01514V19.5303H8.35889C9.87767 19.5303 11.1089 18.2991 11.1089 16.7803V13.0303H13.5151V11.5303H11.1089V7.7803Z" fill="#EFEFEF"/>
<path fill-rule="evenodd" clip-rule="evenodd" d="M15.5151 13.0303H21.5151V11.5303H15.5151V13.0303Z" fill="#EFEFEF"/>
<path fill-rule="evenodd" clip-rule="evenodd" d="M19.2651 9.2803L19.2651 15.2803H17.7651L17.7651 9.2803H19.2651Z" fill="#EFEFEF"/>
</svg>
