<svg width="24" height="24" viewBox="0 0 24 24" fill="none" xmlns="http://www.w3.org/2000/svg">
<path fill-rule="evenodd" clip-rule="evenodd" d="M21 12C21 16.9706 16.9706 21 12 21C7.02944 21 3 16.9706 3 12C3 7.02944 7.02944 3 12 3C16.9706 3 21 7.02944 21 12ZM11.5035 7.23572C12.8082 8.13315 14.575 9.44695 15.6769 10.4895C15.9042 10.7045 16.095 10.9004 16.2442 11.0725C15.4959 10.9864 14.6145 10.8285 13.7168 10.663L13.4528 10.6142C12.5571 10.4485 11.6577 10.2821 10.9274 10.1958C10.5277 10.1486 10.1465 10.1211 9.82739 10.1378C9.66781 10.1461 9.49955 10.1664 9.3414 10.2123C9.18981 10.2562 8.98905 10.3403 8.82915 10.5166C8.64721 10.7173 8.57685 10.9726 8.6044 11.2245C8.6287 11.4467 8.7248 11.6384 8.82011 11.7861C9.01041 12.0809 9.33053 12.4001 9.74323 12.7478C11.2458 14.0137 12.0137 14.8568 12.3151 15.3776C12.3687 15.4703 12.3994 15.5388 12.4169 15.5866C12.3059 15.6187 12.1213 15.6444 11.8454 15.6433C11.5353 15.642 11.1584 15.6076 10.7282 15.5446C9.86816 15.4187 8.85305 15.1872 7.84019 14.9272C7.47613 14.8337 7.10875 15.0521 7.01962 15.4148C6.9305 15.7776 7.15338 16.1475 7.51744 16.241C8.54505 16.5048 9.61533 16.7504 10.5474 16.8869C11.0133 16.9552 11.4591 16.9983 11.8562 17C12.242 17.0015 12.6361 16.9648 12.9681 16.8366C13.317 16.7019 13.6777 16.4274 13.7751 15.9385C13.8612 15.5062 13.7009 15.0768 13.4879 14.7089C13.0555 13.9617 12.1196 12.9861 10.6106 11.7149C10.5192 11.6378 10.4387 11.5671 10.3682 11.5027C10.4928 11.5116 10.6315 11.5251 10.7841 11.5431C11.4673 11.6238 12.3214 11.7817 13.231 11.9499L13.4861 11.997C14.4737 12.1792 15.5099 12.3653 16.3755 12.4489C16.7258 12.4828 17.1427 12.4814 17.4681 12.2825C17.66 12.1651 17.8144 11.9816 17.8805 11.7403C17.9416 11.5175 17.9102 11.3092 17.8638 11.1536C17.7753 10.8567 17.5775 10.57 17.379 10.3262C17.1682 10.0673 16.9008 9.79068 16.6037 9.50956C15.4221 8.39156 13.584 7.02919 12.2638 6.12108C11.9533 5.90751 11.5314 5.9839 11.3214 6.2917C11.1115 6.5995 11.193 7.02215 11.5035 7.23572Z" fill="#EFEFEF"/>
</svg>
