<svg width="24" height="24" viewBox="0 0 24 24" fill="none" xmlns="http://www.w3.org/2000/svg">
<path fill-rule="evenodd" clip-rule="evenodd" d="M11.2857 20.5421C7.12157 20.1986 3.80144 16.8784 3.45791 12.7143H2V11.2857H3.45791C3.80144 7.12157 7.12157 3.80144 11.2857 3.45791V2H12.7143V3.45791C16.8784 3.80144 20.1986 7.12157 20.5421 11.2857H22V12.7143H20.5421C20.1986 16.8784 16.8784 20.1986 12.7143 20.5421V22H11.2857V20.5421ZM11.2857 4.89241V8.66667H12.7143V4.89241C16.0889 5.22746 18.7725 7.91113 19.1076 11.2857H15.3333V12.7143H19.1076C18.7725 16.0889 16.0889 18.7725 12.7143 19.1076V15.3333H11.2857V19.1076C7.91113 18.7725 5.22746 16.0889 4.89241 12.7143H8.66667V11.2857H4.89241C5.22746 7.91113 7.91113 5.22746 11.2857 4.89241Z" fill="#EFEFEF"/>
</svg>
