<svg width="24" height="24" viewBox="0 0 24 24" fill="none" xmlns="http://www.w3.org/2000/svg">
<path d="M11.5387 5.47219C11.738 5.81062 12.2361 5.81062 12.4354 5.47219L13.2423 4.10153C13.2619 4.06834 13.2771 4.03434 13.2883 4H19.7039C20.7016 4 21.3241 5.06046 20.823 5.90654L17.8354 10.9508H16.0375C15.7586 10.9508 15.5842 11.247 15.7237 11.4839L16.619 13.0046L13.1191 18.9137C12.6202 19.756 11.3798 19.756 10.8809 18.9137L7.39881 13.0346L8.3118 11.4839C8.45128 11.247 8.27693 10.9508 7.99798 10.9508H6.16463L3.17701 5.90654C2.67589 5.06046 3.29837 4 4.29611 4H10.6858C10.697 4.03434 10.7122 4.06834 10.7318 4.10153L11.5387 5.47219Z" fill="#EFEFEF"/>
</svg>
