<svg width="24" height="25" viewBox="0 0 24 25" fill="none" xmlns="http://www.w3.org/2000/svg">
<path d="M5.88479 13.9835L3.69536 15.1481C3.37834 15.3167 3 15.0805 3 14.7139V8.19968C3 7.47265 3.38828 6.80415 4.01131 6.45853L10.1335 3.0623C10.4659 2.87789 10.8696 3.12502 10.8696 3.51295V5.71077C10.8696 5.97254 10.7316 6.21378 10.5089 6.34123L7.11885 8.28123C6.50821 8.63069 6.12971 9.29217 6.12971 10.0099V13.57C6.12971 13.744 6.03525 13.9034 5.88479 13.9835Z" fill="#EFEFEF"/>
<path d="M17.2152 13.9835L19.4046 15.1481C19.7217 15.3167 20.1 15.0805 20.1 14.7139V8.19968C20.1 7.47265 19.7117 6.80415 19.0887 6.45853L12.9665 3.0623C12.6341 2.87789 12.2304 3.12502 12.2304 3.51295V5.71077C12.2304 5.97254 12.3684 6.21378 12.5911 6.34123L15.9811 8.28123C16.5918 8.63069 16.9703 9.29217 16.9703 10.0099V13.57C16.9703 13.744 17.0647 13.9034 17.2152 13.9835Z" fill="#EFEFEF"/>
<path d="M6.55664 15.2022L4.19686 16.4974C4.04043 16.5833 4.03623 16.8119 4.1894 16.9038L10.5701 20.7299C11.1627 21.0852 11.8947 21.0903 12.492 20.7432L19.0575 16.9275C19.2137 16.8367 19.2101 16.6043 19.051 16.5187L16.5963 15.1977C16.4538 15.1211 16.284 15.1196 16.1403 15.1939L11.785 17.4453C11.6231 17.529 11.432 17.5281 11.2707 17.443L7.02009 15.1984C6.87438 15.1215 6.70115 15.1229 6.55664 15.2022Z" fill="#EFEFEF"/>
<path fill-rule="evenodd" clip-rule="evenodd" d="M11.4001 7.67905C11.5008 7.62345 11.6219 7.62345 11.7226 7.67905L15.1435 9.56913C15.2538 9.63004 15.3225 9.74817 15.3225 9.87668V13.6154C15.3225 13.7439 15.2538 13.8621 15.1435 13.923L11.7226 15.8131C11.6219 15.8687 11.5008 15.8687 11.4001 15.8131L7.97913 13.923C7.86891 13.8621 7.80016 13.7439 7.80016 13.6154V9.87668C7.80016 9.74817 7.86891 9.63004 7.97913 9.56913L11.4001 7.67905ZM11.4002 9.30875C11.5008 9.25322 11.6219 9.25322 11.7224 9.30875L13.6704 10.3841C13.7807 10.445 13.8495 10.5631 13.8495 10.6917V12.8004C13.8495 12.929 13.7807 13.0471 13.6704 13.108L11.7224 14.1833C11.6219 14.2389 11.5008 14.2389 11.4002 14.1833L9.45229 13.108C9.342 13.0471 9.27321 12.929 9.27321 12.8004V10.6917C9.27321 10.5631 9.342 10.445 9.45229 10.3841L11.4002 9.30875Z" fill="#EFEFEF"/>
</svg>
