<svg width="24" height="24" viewBox="0 0 24 24" fill="none" xmlns="http://www.w3.org/2000/svg">
<path d="M16.6666 4.6666H18.6666C19.3998 4.6666 20 5.267 20 6V7.3334H4V6C4 5.267 4.6002 4.6666 5.3334 4.6666H7.3334V4H8.6666V4.6666H15.3334V4H16.6666V4.6666Z" fill="#EFEFEF"/>
<path fill-rule="evenodd" clip-rule="evenodd" d="M4 18.6666V8.6666H20V18.6666C20 19.3998 19.3998 20 18.6666 20H5.3334C4.6002 20 4 19.3998 4 18.6666ZM9 10.6H6V13.6H9V10.6ZM9 15.1H6V18.1H9V15.1ZM10.5 10.6H13.5V13.6H10.5V10.6ZM13.5 15.1H10.5V18.1H13.5V15.1ZM15 10.6H18V13.6H15V10.6Z" fill="#EFEFEF"/>
</svg>
