<svg width="24" height="24" viewBox="0 0 24 24" fill="none" xmlns="http://www.w3.org/2000/svg">
<path d="M11.25 20.9982V21H18.7499C19.9917 20.9982 20.999 19.992 20.999 18.75L20.9999 12C20.9999 10.7578 19.9919 9.75 18.7499 9.75H15.0001C14.5852 9.75 14.2499 9.41453 14.2499 8.99985V5.99992C14.2499 4.34325 12.9065 3 11.25 3C10.8356 3 10.5001 3.33525 10.5001 3.74993V7.5C10.5001 8.74223 9.49232 9.75 8.25009 9.75V19.4997C8.77029 20.3918 10.1426 20.9982 11.25 20.9982Z" fill="#EFEFEF"/>
<path d="M6.74985 9.75001H3V19.4999H6.74985V9.75001Z" fill="#EFEFEF"/>
</svg>
