<svg width="24" height="24" viewBox="0 0 24 24" fill="none" xmlns="http://www.w3.org/2000/svg">
<path d="M4.17596 8.48153L6.81605 11.6818C6.95627 11.8508 7.16449 11.9624 7.39507 11.9921C7.62564 12.0218 7.85976 11.9671 8.04608 11.8401C8.23241 11.7131 8.35574 11.5242 8.38905 11.3146C8.42236 11.1051 8.36291 10.8921 8.22374 10.7223L6.63976 8.80187H14.2079C14.4253 8.78101 14.6266 8.68773 14.7728 8.54C14.9191 8.39227 15 8.20056 15 8.0018C15 7.80306 14.9191 7.61134 14.7728 7.46361C14.6266 7.31587 14.4253 7.2226 14.2079 7.20175H6.63978L8.22374 5.28128C8.29343 5.19727 8.34419 5.10159 8.37312 4.99973C8.40206 4.89785 8.40861 4.79179 8.39238 4.68762C8.37615 4.58344 8.33748 4.4832 8.27856 4.39264C8.21965 4.30207 8.14166 4.22297 8.04906 4.15986C7.95647 4.09675 7.85107 4.05087 7.73895 4.02484C7.62681 3.99883 7.51012 3.99317 7.39558 4.00822C7.28104 4.02327 7.17089 4.05872 7.07145 4.11253C6.972 4.16634 6.88521 4.23747 6.81605 4.32183L4.17596 7.52208C4.06174 7.66046 4 7.8288 4 8.0018C4 8.17481 4.06174 8.34315 4.17596 8.48153Z" fill="#EFEFEF"/>
<path d="M19.824 16.4815L17.184 19.6818C17.0437 19.8508 16.8355 19.9624 16.6049 19.9921C16.3744 20.0218 16.1402 19.9671 15.9539 19.8401C15.7676 19.7131 15.6443 19.5242 15.6109 19.3146C15.5776 19.1051 15.6371 18.8921 15.7763 18.7223L17.3602 16.8019H9.79207C9.57465 16.781 9.37343 16.6877 9.22717 16.54C9.08092 16.3923 9 16.2006 9 16.0018C9 15.8031 9.08092 15.6113 9.22717 15.4636C9.37343 15.3159 9.57465 15.2226 9.79207 15.2017H17.3602L15.7763 13.2813C15.7066 13.1973 15.6558 13.1016 15.6269 12.9997C15.5979 12.8979 15.5914 12.7918 15.6076 12.6876C15.6238 12.5834 15.6625 12.4832 15.7214 12.3926C15.7803 12.3021 15.8583 12.223 15.9509 12.1599C16.0435 12.0968 16.1489 12.0509 16.2611 12.0248C16.3732 11.9988 16.4899 11.9932 16.6044 12.0082C16.719 12.0233 16.8291 12.0587 16.9286 12.1125C17.028 12.1663 17.1148 12.2375 17.184 12.3218L19.824 15.5221C19.9383 15.6605 20 15.8288 20 16.0018C20 16.1748 19.9383 16.3431 19.824 16.4815Z" fill="#EFEFEF"/>
</svg>
