<svg width="24" height="24" viewBox="0 0 24 24" fill="none" xmlns="http://www.w3.org/2000/svg">
<path d="M19.1825 7.98316C19.1941 8.15675 19.1941 8.33034 19.1941 8.50553C19.1941 13.8436 15.2436 20 8.01989 20V19.9968C5.88599 20 3.7964 19.3712 2 18.1857C2.31029 18.2241 2.62213 18.2433 2.93475 18.2441C4.70316 18.2457 6.42102 17.6353 7.81226 16.5114C6.13173 16.4786 4.65805 15.3515 4.14324 13.706C4.73193 13.8228 5.33851 13.7988 5.91631 13.6364C4.08414 13.2556 2.766 11.5997 2.766 9.67665C2.766 9.65905 2.766 9.64225 2.766 9.62545C3.31192 9.93824 3.92316 10.1118 4.5484 10.131C2.82277 8.9447 2.29085 6.58325 3.33292 4.73696C5.32684 7.2608 8.26875 8.79511 11.4268 8.9575C11.1103 7.55439 11.5427 6.08408 12.563 5.09774C14.1448 3.56824 16.6325 3.64663 18.1194 5.27293C18.9989 5.09454 19.8419 4.76256 20.6134 4.29219C20.3202 5.22733 19.7066 6.02168 18.887 6.52645C19.6654 6.43206 20.426 6.21767 21.1422 5.89049C20.6149 6.70324 19.9508 7.41119 19.1825 7.98316Z" fill="#EFEFEF"/>
</svg>
