<svg width="24" height="25" viewBox="0 0 24 25" fill="none" xmlns="http://www.w3.org/2000/svg">
<path d="M20.9889 18.3435C19.4865 12.0507 15.9021 8.47963 10.3289 7.7301V5.33493C10.3293 5.27219 10.3119 5.21064 10.2788 5.15735C10.2457 5.10406 10.1982 5.0612 10.1418 5.03371C10.0854 5.00621 10.0224 4.99519 9.96005 5.00192C9.89768 5.00866 9.83847 5.03286 9.78925 5.07176L3.12676 10.3118C3.08724 10.343 3.05531 10.3827 3.03336 10.428C3.01141 10.4733 3 10.523 3 10.5733C3 10.6237 3.01141 10.6733 3.03336 10.7186C3.05531 10.7639 3.08724 10.8036 3.12676 10.8348L9.78925 16.0715C9.83847 16.1104 9.89768 16.1346 9.96005 16.1414C10.0224 16.1481 10.0854 16.1371 10.1418 16.1096C10.1982 16.0821 10.2457 16.0392 10.2788 15.986C10.3119 15.9327 10.3293 15.8711 10.3289 15.8084V13.1434C13.0844 13.4489 15.7086 14.4838 17.9308 16.1415C18.8697 16.833 19.6947 17.667 20.376 18.6133C20.4061 18.6602 20.4475 18.6988 20.4963 18.7256C20.5452 18.7524 20.6001 18.7664 20.6558 18.7665C20.7004 18.7657 20.7444 18.7567 20.7857 18.7399C20.8625 18.7105 20.9258 18.6538 20.9633 18.5806C21.0008 18.5074 21.01 18.423 20.9889 18.3435Z" fill="#EFEFEF"/>
</svg>
