<svg width="24" height="24" viewBox="0 0 24 24" fill="none" xmlns="http://www.w3.org/2000/svg">
<path d="M15.018 7.05648C14.9535 7.12139 14.8705 7.15378 14.7693 7.15378C14.6688 7.15378 14.5858 7.12139 14.5207 7.05648C14.4559 6.99166 14.4235 6.90868 14.4235 6.80767V3.34611C14.4235 3.24525 14.4559 3.16228 14.5207 3.09737C14.5855 3.03255 14.6685 3 14.7693 3C14.8704 3 14.9535 3.03255 15.018 3.09737C15.0831 3.16235 15.1155 3.24537 15.1155 3.34611V6.80767C15.1155 6.90868 15.0831 6.99166 15.018 7.05648Z" fill="#EFEFEF"/>
<path d="M7.15393 14.7694C7.15393 14.8703 7.12154 14.9533 7.05664 15.018C6.99169 15.083 6.90883 15.1154 6.80782 15.1152H3.34611C3.24525 15.1152 3.16224 15.0828 3.0973 15.018C3.03239 14.9533 3 14.8703 3 14.7694C3 14.6682 3.03255 14.5852 3.0973 14.5204C3.16224 14.4557 3.2451 14.4233 3.34611 14.4233H6.80782C6.90868 14.4233 6.99169 14.4557 7.05664 14.5204C7.12154 14.5855 7.15393 14.6685 7.15393 14.7694Z" fill="#EFEFEF"/>
<path d="M7.50009 16.1543C7.4062 16.1543 7.32337 16.1867 7.25127 16.2514L4.48202 19.0205C4.41712 19.0926 4.38472 19.1756 4.38472 19.2694C4.38472 19.3631 4.41712 19.4461 4.48202 19.5181C4.56143 19.5828 4.6443 19.6155 4.73083 19.6155C4.82461 19.6155 4.90759 19.5828 4.97965 19.5181L7.7489 16.749C7.81384 16.6769 7.8462 16.5939 7.8462 16.5C7.8462 16.4064 7.81384 16.3234 7.7489 16.2514C7.67684 16.1867 7.59382 16.1543 7.50009 16.1543Z" fill="#EFEFEF"/>
<path d="M16.7493 7.74887C16.6698 7.81365 16.5868 7.84605 16.5003 7.84605C16.414 7.84605 16.331 7.81365 16.2517 7.74887C16.187 7.67665 16.1543 7.59379 16.1543 7.50005C16.1543 7.40631 16.187 7.32334 16.2517 7.25123L19.0208 4.48198C19.093 4.41723 19.1759 4.38468 19.2695 4.38468C19.3634 4.38468 19.4461 4.41723 19.5185 4.48198C19.5832 4.55405 19.6156 4.63702 19.6156 4.7308C19.6156 4.82453 19.5832 4.90751 19.5185 4.97961L16.7493 7.74887Z" fill="#EFEFEF"/>
<path d="M16.2841 10.3126C16.1325 10.1611 15.9306 10.0097 15.6783 9.85828L15.4836 12.4437L18.4476 15.4183C18.6495 15.6202 18.7502 15.8657 18.7502 16.154C18.7502 16.4352 18.6493 16.6769 18.4476 16.8788L16.8571 18.4582C16.6622 18.6532 16.4173 18.7487 16.1214 18.7449C15.8255 18.7411 15.5807 18.6423 15.386 18.4473L12.4327 15.4835L9.84741 15.6784C9.99893 15.9306 10.1503 16.1326 10.3017 16.284L13.9149 19.9078C14.5136 20.5209 15.2488 20.8274 16.1214 20.8274C16.9871 20.8274 17.7186 20.5281 18.3174 19.9296L19.9078 18.3502C20.5206 17.7516 20.8274 17.0198 20.8274 16.1543C20.8274 15.3033 20.5245 14.5676 19.9187 13.9473L16.2841 10.3126Z" fill="#EFEFEF"/>
<path d="M20.6545 8.88492C20.7553 8.88492 20.8383 8.91735 20.9031 8.9821C20.9678 9.04701 21.0003 9.12998 21.0002 9.23092C21.0002 9.33193 20.9678 9.41491 20.9031 9.47973C20.8383 9.5446 20.7553 9.57703 20.6545 9.57703H17.1928C17.0919 9.57703 17.0089 9.5446 16.9441 9.47973C16.8791 9.41491 16.8467 9.33193 16.8467 9.23092C16.8467 9.12998 16.8791 9.04701 16.9441 8.9821C17.0089 8.91731 17.0919 8.88492 17.1928 8.88492H20.6545Z" fill="#EFEFEF"/>
<path d="M7.14306 5.54218C7.35232 5.34744 7.59739 5.25025 7.87875 5.25025C8.16712 5.25025 8.41237 5.35115 8.61432 5.5531L11.5675 8.51702L14.1528 8.3222C14.0012 8.06982 13.8501 7.86787 13.6985 7.71647L10.0855 4.09268C9.4869 3.47971 8.75133 3.17311 7.87875 3.17311C7.01333 3.17311 6.28136 3.47251 5.68279 4.07108L4.0926 5.6504C3.47963 6.24908 3.17315 6.98097 3.17315 7.84632C3.17315 8.69741 3.47611 9.43298 4.0818 10.0531L7.71647 13.6878C7.86784 13.8394 8.06978 13.9907 8.32216 14.1421L8.51687 11.546L5.55283 8.58204C5.351 8.38009 5.25002 8.13491 5.25002 7.84635C5.25002 7.56518 5.35088 7.32364 5.55283 7.12169L7.14306 5.54218Z" fill="#EFEFEF"/>
<path d="M8.98214 16.9435C9.04705 16.8788 9.12991 16.8464 9.23096 16.8464C9.33182 16.8464 9.4148 16.8788 9.47977 16.9435C9.54468 17.0085 9.57707 17.0916 9.57707 17.1924V20.6538C9.57707 20.755 9.54468 20.8377 9.47977 20.9028C9.41483 20.9675 9.33197 21 9.23096 21C9.12991 21 9.04705 20.9675 8.98214 20.9028C8.9172 20.8377 8.88485 20.755 8.88485 20.6538V17.1924C8.88485 17.0913 8.91732 17.0083 8.98214 16.9435Z" fill="#EFEFEF"/>
</svg>
