<svg width="24" height="24" viewBox="0 0 24 24" fill="none" xmlns="http://www.w3.org/2000/svg">
<path d="M11.4852 21C9 21 6.75 19.9923 5.12098 18.3633L6.53607 16.9491C7.8027 18.2169 9.5526 18.9998 11.4852 18.9998C15.3504 18.9998 18.4851 15.8651 18.4851 11.9999C18.4851 8.13475 15.3504 5.0001 11.4852 5.0001C9.49289 5.0001 7.7001 5.83588 6.4248 7.17182H9.17068V9.1698L3.9999 9.17191L3.99902 9.1698C3.44824 9.1698 3 8.7225 3 8.1699V3H4.99887L4.99975 5.76932C6.6375 4.06441 8.93432 3 11.4852 3C16.4559 3 20.4852 7.02932 20.4852 12C20.4852 16.9707 16.4559 21 11.4852 21Z" fill="#EFEFEF"/>
</svg>
