<svg width="24" height="24" viewBox="0 0 24 24" fill="none" xmlns="http://www.w3.org/2000/svg">
<path d="M10.1633 3C9.45429 3 8.87755 3.57673 8.87755 4.28571C8.87755 4.99469 9.45429 5.57143 10.1633 5.57143C10.8722 5.57143 11.449 4.99469 11.449 4.28571C11.449 3.57673 10.8722 3 10.1633 3ZM5.78963 3.73469C4.19829 3.73469 3 5.03878 3 6.76531C3 8.33645 4.61706 9.06122 5.70918 9.06122C6.83547 9.06122 8.5102 8.30082 8.5102 6.17976C8.5102 4.24825 6.72931 3.73469 5.78963 3.73469ZM14.5024 4.84812C9.93955 4.84812 6.23706 8.90767 6.23706 13.894C6.23743 18.3051 11.7373 21 14.7327 21C17.8658 21 21.3673 17.3166 21.3673 12.3787C21.3673 7.60322 16.1569 4.84812 14.5024 4.84812ZM9.61224 9.97959H11.449V14.2041C11.449 14.3502 11.507 14.4904 11.6104 14.5937C11.7137 14.697 11.8539 14.7551 12 14.7551H15.3061C15.4523 14.7551 15.5924 14.697 15.6958 14.5937C15.7991 14.4904 15.8571 14.3502 15.8571 14.2041V9.97959H17.6939V16.5918H12C11.6864 16.5918 11.3759 16.5301 11.0862 16.4101C10.7965 16.2901 10.5333 16.1142 10.3116 15.8925C9.86381 15.4447 9.61224 14.8374 9.61224 14.2041V9.97959Z" fill="#EFEFEF"/>
</svg>
