<svg width="24" height="24" viewBox="0 0 24 24" fill="none" xmlns="http://www.w3.org/2000/svg">
<path fill-rule="evenodd" clip-rule="evenodd" d="M5.71429 3H12.7246C13.2187 3 13.6953 3.18288 14.0625 3.5134L15.9094 5.17555C16.3308 5.55484 16.5714 6.09517 16.5714 6.66215V11.6989C14.2811 12.2185 12.5714 14.2667 12.5714 16.7143C12.5714 17.5353 12.7638 18.3115 13.106 19H5.71429C4.76751 19 4 18.2325 4 17.2857V4.71429C4 3.76751 4.76751 3 5.71429 3ZM12.2857 7.28571V4.14286L15.7143 7.28571H12.2857ZM6.28571 9.28571C5.97011 9.28571 5.71429 9.54154 5.71429 9.85714V10.4286C5.71429 10.7442 5.97011 11 6.28571 11H12C12.3156 11 12.5714 10.7442 12.5714 10.4286V9.85714C12.5714 9.54154 12.3156 9.28571 12 9.28571H6.28571ZM5.71429 12.7143C5.71429 12.3987 5.97011 12.1429 6.28571 12.1429H9.71429C10.0299 12.1429 10.2857 12.3987 10.2857 12.7143V13.2857C10.2857 13.6013 10.0299 13.8571 9.71429 13.8571H6.28571C5.97011 13.8571 5.71429 13.6013 5.71429 13.2857V12.7143Z" fill="#EFEFEF"/>
<path d="M17.8108 14.2896C17.5935 14.094 17.2636 14.094 17.0463 14.2896L14.1892 16.861C13.9546 17.0721 13.9356 17.4334 14.1467 17.668C14.3578 17.9026 14.7191 17.9216 14.9537 17.7105L16.8571 15.9973V20.4286C16.8571 20.7442 17.113 21 17.4286 21C17.7442 21 18 20.7442 18 20.4286V15.9973L19.9035 17.7105C20.138 17.9216 20.4993 17.9026 20.7104 17.668C20.9216 17.4334 20.9026 17.0721 20.668 16.861L17.8108 14.2896Z" fill="#EFEFEF"/>
</svg>
