<svg width="24" height="24" viewBox="0 0 24 24" fill="none" xmlns="http://www.w3.org/2000/svg">
<path d="M7.16577 8.09533L11.4101 3.7897C11.5575 3.64317 11.753 3.5625 11.9609 3.5625C12.1696 3.5625 12.3658 3.64378 12.5144 3.7924L16.8393 8.10041C16.9917 8.25229 17.1912 8.32818 17.3906 8.32812C17.591 8.32812 17.7915 8.25142 17.9441 8.09823C18.2486 7.79249 18.2477 7.29785 17.9419 6.99334L13.6182 2.68649C13.1755 2.24378 12.5869 2 11.9609 2C11.3349 2 10.7463 2.24378 10.3037 2.68649L10.2997 2.69046L6.053 6.99842C5.75011 7.30568 5.75362 7.80032 6.06094 8.10326C6.3682 8.40615 6.86289 8.40264 7.16577 8.09533Z" fill="#EFEFEF"/>
<path d="M11.2188 6.6875V16.2578C11.2188 16.6893 11.5685 17.0391 12 17.0391C12.4315 17.0391 12.7812 16.6893 12.7812 16.2578V6.6875C12.7812 6.25603 12.4315 5.90625 12 5.90625C11.5685 5.90625 11.2188 6.25603 11.2188 6.6875Z" fill="#EFEFEF"/>
<path d="M20.4375 18.875C20.4375 18.4435 20.7873 18.0938 21.2188 18.0938C21.6502 18.0938 22 18.4435 22 18.875C22 20.5981 20.5981 22 18.875 22H5.125C3.40188 22 2 20.5981 2 18.875C2 18.4435 2.34977 18.0938 2.78125 18.0938C3.21273 18.0938 3.5625 18.4435 3.5625 18.875C3.5625 19.7366 4.26344 20.4375 5.125 20.4375H18.875C19.7366 20.4375 20.4375 19.7366 20.4375 18.875Z" fill="#EFEFEF"/>
</svg>
