<svg width="24" height="24" viewBox="0 0 24 24" fill="none" xmlns="http://www.w3.org/2000/svg">
<path d="M5.01972 9.05062C3.5728 12.9011 5.56785 17.2521 9.45742 18.6528C9.60702 18.7537 9.75661 18.9529 9.75661 19.1042V19.8039C9.75661 19.9047 9.75661 19.9539 9.70635 20.0043C9.65609 20.2048 9.45742 20.3044 9.25756 20.2048C6.46544 19.3046 4.3208 17.1537 3.4232 14.3534C1.92722 9.60153 4.52066 4.55076 9.25756 3.0504C9.30782 3 9.40715 3 9.45742 3C9.65728 3.04922 9.75661 3.19925 9.75661 3.39968V4.09947C9.75661 4.3503 9.65728 4.50036 9.45742 4.59998C7.4133 5.35014 5.76772 6.95013 5.01972 9.05062Z" fill="#EFEFEF"/>
<path d="M14.2936 3.24965C14.3439 3.04922 14.5426 2.9496 14.7424 3.04922C17.4855 3.94941 19.6792 6.10031 20.5768 8.94979C22.0728 13.7017 19.4793 18.7525 14.7424 20.2528C14.6922 20.3032 14.5928 20.3032 14.5426 20.3032C14.3427 20.254 14.2434 20.104 14.2434 19.9035V19.2038C14.2434 18.9529 14.3427 18.8029 14.5426 18.7033C16.5867 17.9531 18.2323 16.3531 18.9803 14.2526C20.4272 10.4021 18.4321 6.05111 14.5426 4.65038C14.393 4.54955 14.2434 4.3503 14.2434 4.14987V3.45011C14.2434 3.34928 14.2434 3.30008 14.2936 3.24965Z" fill="#EFEFEF"/>
<path d="M12.2576 10.8817C14.3692 11.1331 15.425 11.7344 15.425 13.4879C15.425 14.841 14.4187 15.8933 12.9116 16.1447V17.3474C12.8621 17.5975 12.7113 17.7479 12.5098 17.7479H11.7556C11.5046 17.6986 11.3538 17.5482 11.3538 17.3474V16.1447C9.69465 15.8945 8.89103 14.9925 8.68952 13.7393V13.6888C8.68952 13.4879 8.84035 13.3376 9.04186 13.3376H9.89616C10.047 13.3376 10.1978 13.4374 10.2485 13.6383C10.3993 14.39 10.8518 14.9408 12.1586 14.9408C13.1143 14.9408 13.8178 14.39 13.8178 13.5878C13.8178 12.7856 13.3653 12.4849 11.9571 12.2347C9.84548 11.9846 8.84035 11.3327 8.84035 9.679C8.84035 8.4258 9.79601 7.42396 11.3043 7.22311V6.07094C11.3538 5.82078 11.5046 5.67044 11.7061 5.67044H12.4603C12.7113 5.71975 12.8621 5.87009 12.8621 6.07094V7.27363C14.0181 7.37345 14.923 8.22495 15.1245 9.32782V9.37833C15.1245 9.57918 14.9737 9.72952 14.7722 9.72952H13.9674C13.8166 9.72952 13.6657 9.6297 13.615 9.47936C13.3641 8.72768 12.8609 8.42701 11.9559 8.42701C10.9508 8.42701 10.4476 8.87802 10.4476 9.57918C10.4476 10.2803 10.7493 10.6808 12.2576 10.8817Z" fill="#EFEFEF"/>
</svg>
