<svg width="24" height="25" viewBox="0 0 24 25" fill="none" xmlns="http://www.w3.org/2000/svg">
<path fill-rule="evenodd" clip-rule="evenodd" d="M13.7107 4.38205C13.6815 4.46272 13.5669 4.61126 13.4561 4.71222C13.2795 4.87304 13.2642 4.91344 13.3329 5.03851C13.4091 5.17716 13.417 5.17283 13.6103 4.88849C13.7421 4.69458 13.8016 4.53498 13.7865 4.41566C13.7646 4.24185 13.7619 4.24069 13.7107 4.38205ZM12.548 5.07012C12.5059 5.23295 12.4383 5.35899 12.3978 5.35026C12.3572 5.34154 12.2931 5.42111 12.2553 5.52711C12.2176 5.63312 12.1466 5.75884 12.0978 5.80648C12.0489 5.85405 12.0089 5.94707 12.0089 6.01306C12.0089 6.07906 11.9711 6.17156 11.9248 6.21855C11.8786 6.26548 11.7863 6.4749 11.7198 6.68381C11.6532 6.89279 11.512 7.24655 11.4059 7.46994C11.2997 7.6934 11.2129 7.90871 11.2129 7.94852C11.2129 7.98834 11.1704 8.03682 11.1184 8.05628C11.0664 8.07573 11.0031 8.21296 10.9777 8.36124C10.9523 8.50958 10.8463 8.84092 10.7421 9.09753C10.5026 9.68716 9.714 11.225 9.62298 11.2798C9.58537 11.3025 9.55453 11.3666 9.55453 11.4222C9.55453 11.5156 9.44116 11.7923 9.05615 12.6385C8.97529 12.8162 8.83804 13.1435 8.75121 13.3657C8.66437 13.5879 8.57409 13.7696 8.55061 13.7696C8.52712 13.7696 8.48699 13.6606 8.46139 13.5272C8.34955 12.9445 7.95963 11.96 7.39259 10.8286C7.26788 10.5798 7.16599 10.3385 7.16619 10.2924C7.16632 10.2463 7.06198 9.99109 6.93428 9.72536C6.80659 9.45957 6.70211 9.20619 6.70211 9.16224C6.70211 9.11828 6.62748 8.94576 6.53627 8.7788C6.33892 8.4176 6.33733 8.40558 6.48652 8.40157C6.55531 8.39976 6.50795 8.35355 6.37043 8.28826C6.18881 8.20204 6.13388 8.13391 6.11803 7.97516C6.10151 7.81007 6.07372 7.7784 5.96877 7.80516C5.88771 7.82578 5.83929 7.80516 5.83856 7.7497C5.83789 7.70109 5.72048 7.56684 5.57766 7.45126C5.3224 7.24474 5.31723 7.24358 5.27205 7.38236C5.22688 7.52094 5.22436 7.52036 5.13275 7.35004C5.07915 7.2503 4.9833 7.17655 4.90741 7.17655C4.78177 7.17655 4.78064 7.18444 4.88399 7.33815C5.00937 7.52456 4.94608 7.55068 4.76207 7.38837C4.64041 7.28113 4.63742 7.28333 4.67994 7.44848C4.71895 7.6 4.70767 7.61577 4.58303 7.58403C4.45142 7.55048 4.44711 7.56057 4.51895 7.73399C4.56127 7.83625 4.62548 7.98246 4.6617 8.05893C4.80519 8.36221 4.65646 8.35342 4.49666 8.04917C4.39616 7.85784 4.23862 7.67575 4.11046 7.60284C3.88485 7.4746 3.65646 7.24255 3.26933 6.74845C3.14355 6.58796 3.02607 6.47083 3.0083 6.48815C2.95264 6.54239 3.18687 6.96169 3.41705 7.22005L3.63749 7.46742L3.42853 7.54331L3.21951 7.61919L3.43039 7.62411C3.67616 7.62986 3.83404 7.76146 3.88744 8.00521C3.90833 8.10049 3.96989 8.32013 4.02422 8.49336C4.07855 8.66659 4.10681 8.84945 4.08697 8.8998C4.06714 8.95016 4.096 9.00814 4.15099 9.02876C4.22508 9.05642 4.23245 9.08809 4.17925 9.15047C4.12923 9.20923 4.12823 9.27076 4.17606 9.35305C4.21381 9.41801 4.27503 9.5902 4.31225 9.73564C4.3494 9.88108 4.43961 10.0529 4.51278 10.1173C4.58588 10.1818 4.64572 10.3006 4.64572 10.3812C4.64572 10.4619 4.74416 10.6537 4.86456 10.8075C4.98489 10.9613 5.14814 11.2035 5.22728 11.3457C5.3902 11.6383 5.64074 12.3506 5.64074 12.5212C5.64074 12.6215 5.75471 12.9768 5.90642 13.3495C6.11876 13.8711 6.37375 14.779 6.32207 14.8294C6.30178 14.8492 6.3173 14.9031 6.35657 14.9492C6.39584 14.9952 6.48871 15.2468 6.56307 15.5081C6.6834 15.9313 6.68752 15.9981 6.60062 16.119C6.4834 16.282 6.47073 16.4126 6.58271 16.3035C6.70363 16.1856 6.78238 16.2106 6.73621 16.3522C6.71359 16.4217 6.73906 16.5453 6.79279 16.6269C6.93355 16.8407 6.96407 17.6986 6.83385 17.7801C6.75664 17.8285 6.75339 17.8533 6.81899 17.8946C6.88214 17.9344 6.88566 17.9951 6.83325 18.1414C6.77946 18.2918 6.78669 18.3782 6.86523 18.525C6.92102 18.6292 6.96679 18.7453 6.96705 18.7829C6.96785 18.9142 7.70875 19.4738 7.9916 19.5568C8.65349 19.7509 9.33184 19.5539 9.72036 19.0547C9.82982 18.9141 10.0006 18.7212 10.0999 18.6261C10.1992 18.531 10.315 18.3568 10.3571 18.239C10.4108 18.089 10.4666 18.0334 10.5439 18.053C10.6401 18.0776 10.6506 18.0285 10.627 17.6673C10.6043 17.3194 10.6198 17.2388 10.724 17.1619C10.8039 17.1029 10.8169 17.0696 10.7604 17.0683C10.4529 17.061 10.4118 16.6181 10.6687 16.0816C10.7414 15.9298 10.8193 15.6379 10.8418 15.4328C10.8814 15.0715 11.1129 14.0887 11.4086 13.0263C11.6765 12.0638 12.4187 9.99167 12.7122 9.38724C12.8727 9.05662 13.004 8.762 13.004 8.73252C13.004 8.70298 13.0826 8.51133 13.1788 8.30662C13.275 8.10191 13.3768 7.84388 13.4051 7.73321C13.5145 7.30447 13.7509 6.74987 13.8834 6.61097C13.9597 6.53094 13.9867 6.46553 13.9433 6.46553C13.8363 6.46553 13.8961 5.90234 14.0296 5.6529C14.0853 5.54883 14.131 5.42731 14.1313 5.38284C14.1318 5.26998 14.0028 5.28162 13.9568 5.39861C13.9358 5.45175 13.8907 5.47831 13.8564 5.45769C13.8222 5.43707 13.7488 5.45685 13.6934 5.50171C13.6063 5.57217 13.5987 5.55976 13.6372 5.41031C13.664 5.30618 13.6544 5.23741 13.613 5.23741C13.5254 5.23741 13.2693 5.55187 13.2693 5.65936C13.2693 5.70409 13.2245 5.75742 13.1698 5.77791C13.053 5.82154 13.0386 5.74663 13.1441 5.64379C13.1847 5.60423 13.1979 5.54024 13.1734 5.50158C13.1062 5.39564 12.931 5.41716 12.8239 5.54444C12.6899 5.70377 12.7774 5.54812 13.041 5.15797C13.3165 4.75036 13.2714 4.66096 12.9642 5.00581C12.7527 5.24309 12.7386 5.24917 12.7376 5.10277C12.7355 4.78326 12.627 4.76458 12.548 5.07012ZM3.91603 6.45247C3.91603 6.48337 3.93845 6.53004 3.96578 6.55622C3.99311 6.5824 4.04624 6.72305 4.08372 6.86881C4.14004 7.08761 4.18342 7.13796 4.33248 7.15742L4.51304 7.18095L4.39948 6.93636C4.33699 6.80184 4.25739 6.65382 4.2225 6.60741C4.13732 6.4941 3.91603 6.38221 3.91603 6.45247ZM19.2465 6.9116C19.1332 7.01476 19.0405 7.12756 19.0405 7.16233C19.0405 7.23408 18.7422 7.35385 18.543 7.36206C18.47 7.36504 18.1064 7.37635 17.7351 7.38714C17.2267 7.40194 17.0299 7.43278 16.939 7.51189C16.8726 7.56968 16.6839 7.65171 16.5197 7.69417C15.8183 7.87561 14.9935 8.39446 14.2594 9.11602C13.7962 9.57139 13.565 9.89859 13.1864 10.6347C12.8296 11.3283 12.722 11.7843 12.7295 12.5702C12.7346 13.1048 12.7555 13.1958 12.9705 13.62C13.4903 14.6454 14.4575 15.0929 15.8288 14.9424C16.1541 14.9068 16.693 14.8134 17.0263 14.7349C17.7174 14.5723 17.9483 14.5961 17.9952 14.8351C18.0466 15.0977 17.7321 15.4303 16.6524 16.2549C15.9219 16.8129 14.1564 18.5816 13.9594 18.9528C13.8971 19.0702 13.6194 19.3811 13.3421 19.6438C12.8436 20.1163 12.8415 20.1196 13.1519 19.9492C13.4144 19.8052 13.4584 19.7959 13.421 19.8921C13.387 19.9795 13.4353 19.9636 13.6213 19.8262C13.7561 19.7266 13.8663 19.6707 13.8663 19.7018C13.8663 19.7816 13.6044 20.005 13.3688 20.126C13.2434 20.1905 13.2111 20.2293 13.2816 20.2309C13.5119 20.2362 13.7481 20.0954 14.0892 19.7495C14.4788 19.3544 14.5644 19.3143 14.5021 19.5562C14.4517 19.7515 14.6124 19.8425 14.8029 19.7266C15.0504 19.576 15.0003 19.6588 14.6676 19.9502C14.4803 20.1143 14.2954 20.3062 14.2568 20.3764C14.1939 20.491 14.2027 20.4993 14.3415 20.4565C14.4268 20.4303 14.5912 20.3385 14.707 20.2526L14.9174 20.0965L14.9392 20.2457C14.9591 20.3832 14.9722 20.3763 15.1039 20.1591C15.2631 19.8966 15.9109 19.3982 16.0712 19.4148C16.1279 19.4207 16.3851 19.2291 16.6427 18.9892C16.9004 18.7492 17.1435 18.5529 17.1831 18.5529C17.2227 18.5529 17.4105 18.4434 17.6005 18.3095C17.7905 18.1756 18.027 18.0258 18.126 17.9766C18.5707 17.7556 19.7079 16.7756 20.2722 16.1274C20.6937 15.643 20.8979 15.0773 20.8979 14.3931C20.8979 14.1332 20.8774 13.9005 20.8524 13.8762C20.7863 13.8117 20.6347 13.3686 20.6335 13.2364C20.633 13.1742 20.5952 13.1232 20.5496 13.1231C20.504 13.1231 20.3818 12.9922 20.2782 12.8323C20.1721 12.6687 20.0389 12.5415 19.9737 12.5415C19.9099 12.5415 19.8229 12.4669 19.7802 12.3757C19.7221 12.2514 19.6699 12.2201 19.5714 12.2506C19.424 12.2962 19.0722 12.1271 18.8988 11.9275C18.7671 11.7758 18.6687 11.8305 18.7631 12.0027C18.8236 12.1128 18.7895 12.1224 18.2921 12.136C17.8023 12.1495 16.8315 12.3112 16.2549 12.4755C15.8742 12.5839 15.4068 12.5598 15.3343 12.428C15.1264 12.0495 16.0528 10.869 16.8182 10.537C17.2432 10.3527 17.4541 10.3362 17.7045 10.4677C17.8356 10.5366 19.3908 10.7234 19.8862 10.7297C19.9684 10.7308 20.0952 10.6735 20.1682 10.6024C20.2411 10.5313 20.3307 10.4731 20.3672 10.4731C20.5568 10.4731 20.8315 10.0529 20.8315 9.76311C20.8315 9.65239 20.8775 9.47508 20.9337 9.36914C21.0426 9.16405 21.0167 9.05106 20.8608 9.05106C20.749 9.05106 20.735 8.83898 20.8348 8.65728C20.8888 8.55903 20.8724 8.47507 20.7619 8.28361L20.6194 8.03663L20.7587 7.77077C20.8352 7.62456 20.8979 7.44435 20.8979 7.37034C20.8979 7.21107 20.6703 6.95219 20.5788 7.00733C20.5437 7.02853 20.4979 6.98231 20.4771 6.90475C20.44 6.76674 20.4362 6.76629 20.3033 6.88355C20.2285 6.94948 20.1479 6.98445 20.1241 6.96124C20.1003 6.9381 20.0356 6.95523 19.9804 6.99938C19.895 7.06751 19.8855 7.05839 19.917 6.93901C19.9461 6.82893 19.9306 6.80656 19.8456 6.83591C19.6655 6.89815 19.5712 6.99227 19.5712 7.10978C19.5712 7.21611 19.3778 7.4351 19.284 7.4351C19.1734 7.4351 19.2559 7.1028 19.4112 6.92298C19.6286 6.67127 19.5189 6.66371 19.2465 6.9116ZM15.0879 19.2053C15.0189 19.2797 14.9023 19.3716 14.8289 19.4097C14.7047 19.4742 14.7024 19.4704 14.795 19.3553C14.9226 19.1967 15.0771 19.0746 15.1536 19.072C15.1866 19.0709 15.1571 19.1309 15.0879 19.2053ZM14.189 19.7789C13.9663 20.0181 13.7775 20.2977 13.8144 20.3337C13.8355 20.3542 13.974 20.2891 14.1223 20.1891C14.3249 20.0525 14.3926 19.963 14.3945 19.8295C14.3973 19.6261 14.3437 19.6129 14.189 19.7789Z" fill="#EFEFEF"/>
</svg>
