<svg width="24" height="25" viewBox="0 0 24 25" fill="none" xmlns="http://www.w3.org/2000/svg">
<path d="M10.3277 4C8.33968 4 6.72778 5.61189 6.72778 7.59993C6.72778 9.58776 8.33968 11.1997 10.3277 11.1997C12.3158 11.1997 13.9276 9.58817 13.9276 7.59993C13.9276 5.61148 12.3158 4 10.3277 4Z" fill="#EFEFEF"/>
<path d="M11.5349 12.9998H6.72762C4.73958 12.9998 3.12769 14.6119 3.12769 16.6V20.1999H16.6062C13.6337 20.1884 11.2277 17.7755 11.2277 14.8C11.2277 14.1687 11.3359 13.5629 11.5349 12.9998Z" fill="#EFEFEF"/>
<path fill-rule="evenodd" clip-rule="evenodd" d="M16.6276 10.3C14.1423 10.3 12.1277 12.3144 12.1277 14.7999C12.1277 17.2854 14.1423 19.2998 16.6276 19.2998C19.1131 19.2998 21.1277 17.2854 21.1277 14.7997C21.1277 12.3142 19.1131 10.3 16.6276 10.3ZM17.1277 12H16.1277V16H19.6277V15H17.1277V12Z" fill="#EFEFEF"/>
</svg>
