<svg width="24" height="24" viewBox="0 0 24 24" fill="none" xmlns="http://www.w3.org/2000/svg">
<path d="M18.9537 5.26C19.3706 5.26 19.759 5.38316 20.0811 5.59632V5.12737C20.0811 4.50684 19.579 4 18.9537 4H4.12737C3.50684 4 3 4.50684 3 5.12737V5.59632C3.0344 5.57354 3.06418 5.55218 3.09211 5.53215C3.11917 5.51273 3.1445 5.49457 3.17059 5.47758C3.54927 5.23098 1.72078 5.232 7.72965 5.24784C10.5124 5.2531 14.16 5.26 18.9537 5.26Z" fill="#EFEFEF"/>
<path d="M13.7423 13.2425C13.7423 11.8736 14.8602 10.7557 16.2291 10.7557H20.1986V7.33569C20.1986 6.71043 19.6965 6.20832 19.0712 6.20832H4.2449C3.62437 6.20832 3.11753 6.71043 3.11753 7.33569V19.1494C3.11753 19.7699 3.62437 20.2768 4.2449 20.2768H19.0712C19.6965 20.2768 20.1986 19.7699 20.1986 19.1494V15.7294H16.2291C14.8602 15.7294 13.7423 14.6115 13.7423 13.2425Z" fill="#EFEFEF"/>
<path fill-rule="evenodd" clip-rule="evenodd" d="M16.1116 11.7021H20.4363C20.7489 11.7021 21 11.9532 21 12.2658V14.2174C21 14.5253 20.7489 14.7811 20.4363 14.7811H16.1116C15.2637 14.7811 14.5721 14.0895 14.5721 13.2416C14.5721 12.3937 15.2637 11.7021 16.1116 11.7021ZM15.5953 13.2416C15.5953 13.7011 15.9695 14.0753 16.4337 14.0753C16.8932 14.0753 17.2674 13.7011 17.2674 13.2416C17.2674 12.7774 16.8932 12.4032 16.4337 12.4032C15.9695 12.4032 15.5953 12.7774 15.5953 13.2416Z" fill="#EFEFEF"/>
</svg>
