<svg width="24" height="25" viewBox="0 0 24 25" fill="none" xmlns="http://www.w3.org/2000/svg">
<path d="M6.68497 8.43581C9.62039 5.5618 14.3796 5.5618 17.315 8.43581L17.6683 8.78171C17.8151 8.92541 17.8151 9.15839 17.6683 9.30209L16.4598 10.4853C16.3864 10.5572 16.2675 10.5572 16.1941 10.4853L15.7079 10.0093C13.6601 8.00435 10.3399 8.00435 8.29211 10.0093L7.77147 10.5191C7.69809 10.5909 7.57911 10.5909 7.50572 10.5191L6.29721 9.33585C6.15044 9.19215 6.15044 8.95916 6.29721 8.81546L6.68497 8.43581ZM19.8144 10.8829L20.8899 11.9359C21.0367 12.0796 21.0367 12.3126 20.8899 12.4563L16.0401 17.2048C15.8933 17.3485 15.6554 17.3485 15.5086 17.2048C15.5086 17.2048 15.5086 17.2048 15.5086 17.2048L12.0665 13.8347C12.0298 13.7987 11.9703 13.7987 11.9336 13.8347C11.9336 13.8347 11.9336 13.8347 11.9336 13.8347L8.49155 17.2048C8.34478 17.3485 8.10682 17.3485 7.96005 17.2048C7.96005 17.2048 7.96005 17.2048 7.96004 17.2048L3.11008 12.4563C2.96331 12.3126 2.96331 12.0796 3.11008 11.9359L4.18565 10.8828C4.33242 10.7391 4.57039 10.7391 4.71716 10.8828L8.15932 14.253C8.19601 14.2889 8.25551 14.2889 8.2922 14.253C8.2922 14.253 8.2922 14.253 8.2922 14.253L11.7342 10.8828C11.881 10.7391 12.1189 10.7391 12.2657 10.8828C12.2657 10.8828 12.2657 10.8828 12.2657 10.8828L15.7079 14.253C15.7446 14.2889 15.804 14.2889 15.8407 14.253L19.2828 10.8829C19.4296 10.7392 19.6676 10.7392 19.8144 10.8829Z" fill="#EFEFEF"/>
</svg>
