<svg width="24" height="24" viewBox="0 0 24 24" fill="none" xmlns="http://www.w3.org/2000/svg">
<path d="M20.7542 17.5659L13.6392 4.95695C13.4752 4.66653 13.237 4.42489 12.949 4.25675C12.661 4.0886 12.3335 4 12 4C11.6665 4 11.339 4.0886 11.051 4.25675C10.763 4.42489 10.5248 4.66653 10.3608 4.95695L3.24581 17.5659C3.0833 17.851 2.99854 18.1738 3.00002 18.502C3.0015 18.8301 3.08917 19.1522 3.25424 19.4358C3.41932 19.7195 3.65601 19.9548 3.94063 20.1182C4.22524 20.2815 4.54778 20.3673 4.87596 20.3668H19.124C19.4522 20.3673 19.7748 20.2815 20.0594 20.1182C20.344 19.9548 20.5807 19.7195 20.7458 19.4358C20.9108 19.1522 20.9985 18.8301 21 18.502C21.0015 18.1738 20.9167 17.851 20.7542 17.5659ZM11.0994 11.2614C11.0994 11.0225 11.1943 10.7935 11.3632 10.6246C11.5321 10.4557 11.7611 10.3608 12 10.3608C12.2389 10.3608 12.4679 10.4557 12.6368 10.6246C12.8057 10.7935 12.9006 11.0225 12.9006 11.2614V13.9633C12.9006 14.2022 12.8057 14.4313 12.6368 14.6002C12.4679 14.7691 12.2389 14.864 12 14.864C11.7611 14.864 11.5321 14.7691 11.3632 14.6002C11.1943 14.4313 11.0994 14.2022 11.0994 13.9633V11.2614ZM12 17.5659C11.8219 17.5659 11.6477 17.513 11.4996 17.4141C11.3515 17.3151 11.2361 17.1745 11.1679 17.0099C11.0998 16.8453 11.0819 16.6642 11.1167 16.4895C11.1514 16.3148 11.2372 16.1543 11.3632 16.0284C11.4891 15.9024 11.6496 15.8166 11.8243 15.7819C11.999 15.7471 12.1801 15.765 12.3447 15.8331C12.5092 15.9013 12.6499 16.0168 12.7489 16.1649C12.8478 16.313 12.9006 16.4871 12.9006 16.6652C12.9006 16.9041 12.8057 17.1332 12.6368 17.3021C12.4679 17.471 12.2389 17.5659 12 17.5659Z" fill="#EFEFEF"/>
</svg>
