<svg width="24" height="24" viewBox="0 0 24 24" fill="none" xmlns="http://www.w3.org/2000/svg">
<path fill-rule="evenodd" clip-rule="evenodd" d="M6.38408 4.07725C6.28594 4.14449 6.07072 4.54708 5.00089 6.66453L3.7339 9.17215H4.32655H4.91916L5.24026 8.52973C5.41686 8.17642 5.81481 7.39066 6.12458 6.78365L6.6878 5.67999L7.57413 7.42607L8.46045 9.17215H9.05894H9.65747L9.378 8.63533C8.75435 7.43734 7.78097 5.50571 7.79424 5.49241C7.80695 5.47973 10.3942 6.41221 10.4088 6.43477C10.4122 6.43988 10.4333 6.54703 10.4558 6.67287C10.542 7.15555 10.872 7.60774 11.2858 7.8104L11.4833 7.90709V12.7765V17.6459L11.2191 17.6698C10.6586 17.7206 10.1707 17.9056 9.73639 18.2321C9.192 18.6413 8.81489 19.2807 8.70151 19.9868C8.62512 20.4624 8.6912 20.6874 8.95249 20.8413C9.06943 20.9102 9.13529 20.9117 12.0113 20.9117C14.8873 20.9117 14.9531 20.9102 15.0701 20.8413C15.3314 20.6874 15.3975 20.4624 15.3211 19.9868C15.2055 19.2675 14.8001 18.5933 14.2471 18.2012C13.8031 17.8864 13.349 17.7193 12.8035 17.6698L12.5393 17.6459V12.7765V7.90709L12.7275 7.81497C12.8309 7.76428 12.9834 7.66086 13.0663 7.58507L13.217 7.44733L14.8054 8.02523C15.679 8.34306 16.4374 8.61988 16.4908 8.6404L16.5877 8.67772L15.4758 10.8786L14.3638 13.0795L14.9564 13.0786L15.549 13.0778L16.429 11.3365C16.913 10.3788 17.317 9.59544 17.3267 9.59576C17.3363 9.59608 17.7403 10.38 18.2242 11.3379L19.1043 13.0795H19.6955H20.2867L19.0302 10.589C18.3392 9.21921 17.7486 8.06934 17.7178 8.03364C17.687 7.99798 17.63 7.95127 17.591 7.92983C17.5521 7.9084 16.6411 7.57082 15.5666 7.17966L13.6129 6.46843L13.5857 6.253C13.456 5.22629 12.4689 4.58739 11.5096 4.90927C11.2727 4.98875 10.9138 5.22168 10.8141 5.36058C10.7622 5.43299 10.7403 5.42598 8.79536 4.71569C6.66442 3.93747 6.60937 3.9229 6.38408 4.07725ZM12.2907 5.96579C12.718 6.26546 12.5336 6.91928 12.0219 6.91928C11.6516 6.91928 11.4089 6.60219 11.5131 6.2544C11.611 5.92781 12.0201 5.77595 12.2907 5.96579ZM3.33247 10.2777C3.18751 10.3408 3.0429 10.5199 3.01446 10.6715C2.94775 11.0271 3.11978 11.8502 3.36696 12.3583C3.99499 13.6493 5.27162 14.4523 6.69593 14.4523C8.64427 14.4523 10.2603 12.9378 10.381 10.9987C10.4003 10.6882 10.3953 10.6484 10.3202 10.5147C10.2662 10.4187 10.1886 10.345 10.0928 10.2986C9.95055 10.2297 9.87698 10.2282 6.69361 10.2296C4.06799 10.2307 3.4191 10.24 3.33247 10.2777ZM14.0043 14.1715C13.8806 14.209 13.7479 14.3289 13.6751 14.4687C13.6323 14.5511 13.6253 14.644 13.6417 14.9088C13.7487 16.6275 15.0516 18.0499 16.7714 18.3254C17.1511 18.3863 17.8603 18.3522 18.2419 18.2548C18.6139 18.1599 19.2405 17.857 19.5476 17.6235C20.4277 16.9545 20.9826 15.9016 20.9991 14.869C21.0057 14.4598 20.979 14.3871 20.7628 14.2257C20.6664 14.1537 20.6387 14.1531 17.3857 14.147C15.5817 14.1436 14.0601 14.1546 14.0043 14.1715Z" fill="#EFEFEF"/>
</svg>
