<svg width="24" height="24" viewBox="0 0 24 24" fill="none" xmlns="http://www.w3.org/2000/svg">
<path d="M21.0007 11.9996C21.0007 11.9989 21.0007 11.9989 21.0007 11.9981C21.0007 9.28451 19.7962 6.85216 17.8926 5.20734L17.8814 5.19759C16.4488 5.96487 15.2203 6.89341 14.156 7.98246L14.153 7.98546C14.186 8.01996 14.2182 8.04921 14.2512 8.08446C17.0406 11.0936 19.5809 15.3823 19.1609 17.4381C20.3085 15.9493 21 14.057 21 12.0034C21 12.0019 21 12.0004 21 11.9989L21.0007 11.9996ZM12.4436 5.96562C13.7037 5.13759 15.218 4.59082 16.8478 4.44906L16.8838 4.44681C15.506 3.53927 13.8162 3 12.0004 3C10.3721 3 8.84499 3.43427 7.52869 4.1933L7.57219 4.17005C8.06571 4.59532 9.70003 4.75582 11.6854 5.97012C11.7926 6.03688 11.9224 6.07663 12.0619 6.07663C12.2036 6.07663 12.3356 6.03538 12.4466 5.96487L12.4436 5.96637V5.96562ZM9.87479 8.08296C9.90929 8.04621 9.94454 8.01546 9.97829 7.97946C9.10075 7.12892 8.14371 6.34889 7.12367 5.65436L7.04942 5.60636C6.82291 5.4406 6.53865 5.34085 6.23113 5.34085C6.12163 5.34085 6.01513 5.3536 5.91237 5.3776L5.92212 5.3761C4.12355 7.02467 3 9.38427 3 12.0064C3 14.1882 3.77778 16.1885 5.07159 17.7449L5.05959 17.7299C4.2863 15.8195 6.91741 11.2256 9.87404 8.08296H9.87479ZM12.0634 9.89804C9.09175 12.5254 4.95533 16.4458 5.58911 18.3119C7.21968 19.9717 9.48777 21 11.9959 21C14.6157 21 16.9738 19.878 18.6157 18.0876L18.6216 18.0809C18.9862 16.1173 15.0553 12.5779 12.0634 9.89804Z" fill="#EFEFEF"/>
</svg>
